<?xml version="1.0" encoding="UTF-8"?>
<svg xmlns="http://www.w3.org/2000/svg" viewBox="0 0 105.31 772.57">
  <defs>
    <style>
      .cls-1 {
        isolation: isolate;
      }

      .cls-2 {
        fill: #ffb48f;
      }

      .cls-3 {
        fill: #fff;
      }

      .cls-4 {
        opacity: .86;
      }

      .cls-5 {
        mix-blend-mode: overlay;
        opacity: .5;
      }
    </style>
  </defs>
  <g class="cls-1">
    <g id="Layer_1" data-name="Layer 1">
      <g>
        <g>
          <g>
            <path class="cls-2" d="M80.98,152.2c-.51,0-1.03-.03-1.54-.08l-58.92-5.99c-8.33-.85-14.87-9.11-15.21-19.23-.2-5.85,1.75-11.34,5.36-15.07,2.77-2.87,6.34-4.44,10.05-4.44l59.18.91c4.33.07,8.56,2.02,11.9,5.5,4.37,4.55,6.77,11.08,6.59,17.93-.29,11.48-7.94,20.48-17.4,20.48h0Z"/>
            <path d="M20.71,107.88c.07,0,.13,0,.2,0l58.97.91c10.09.16,18.31,10.63,18,22.91-.29,11.34-7.76,19.99-16.9,19.99-.49,0-.99-.02-1.49-.08l-58.92-5.99c-8.02-.82-14.43-8.95-14.76-18.75-.36-10.49,6.34-19,14.9-19M20.71,106.88c-3.85,0-7.54,1.63-10.41,4.6-3.7,3.83-5.7,9.45-5.5,15.44.35,10.37,7.09,18.84,15.66,19.71l58.92,5.99c.53.05,1.06.08,1.59.08,9.73,0,17.6-9.21,17.9-20.96.18-6.98-2.27-13.64-6.73-18.29-3.43-3.58-7.78-5.58-12.25-5.65l-58.97-.91h-.22Z"/>
          </g>
          <g>
            <path class="cls-2" d="M88.79,112.68c-.27,0-.55,0-.83-.02l-70.89-4.18c-8.73-.51-15.99-9.32-16.54-20.05-.32-6.33,1.69-12.27,5.53-16.3,2.88-3.03,6.6-4.7,10.48-4.7.15,0,.3,0,.45,0l70.54,2.27c7.84.25,14.79,7.32,16.52,16.8l.35,1.91c1.26,6.91-.38,13.91-4.4,18.73-2.98,3.58-6.96,5.54-11.21,5.54Z"/>
            <path d="M16.54,67.91c.14,0,.29,0,.43,0l70.54,2.27c7.66.25,14.35,7.08,16.05,16.39l.35,1.91c2.26,12.38-5.08,23.68-15.12,23.68-.26,0-.53,0-.8-.02l-70.89-4.18c-8.51-.5-15.53-9.05-16.07-19.57-.57-11.27,6.45-20.48,15.51-20.48M16.54,66.91c-4.01,0-7.86,1.73-10.84,4.86C1.77,75.91-.29,81.98.03,88.45c.56,10.98,8.03,19.99,17.01,20.52l70.89,4.18c.29.02.57.03.85.03,4.4,0,8.52-2.03,11.6-5.72,4.11-4.93,5.79-12.08,4.51-19.14l-.35-1.91c-1.77-9.71-8.92-16.95-17-17.21l-70.54-2.27c-.16,0-.31,0-.46,0h0Z"/>
          </g>
          <g>
            <path class="cls-2" d="M79.65,72.83c-.34,0-.68-.01-1.02-.04l-46.92-3.6c-7.57-.58-13.79-7.67-14.47-16.5-.43-5.52,1.29-10.84,4.73-14.62,2.77-3.04,6.4-4.75,10.22-4.82l47.76-.8c4.09,0,7.95,1.85,10.87,5.21,3.6,4.13,5.27,10.05,4.47,15.83l-.61,4.4c-1.2,8.65-7.52,14.94-15.03,14.94h0Z"/>
            <path d="M79.94,32.95c9.22,0,16.33,9.77,14.85,20.47l-.61,4.4c-1.17,8.43-7.34,14.5-14.53,14.5-.32,0-.65-.01-.98-.04l-46.93-3.6c-7.38-.57-13.34-7.39-14.01-16.04-.78-10.08,5.85-18.75,14.46-18.9l47.53-.8c.07,0,.15,0,.22,0M79.94,31.95h-.24s-47.53.8-47.53.8c-3.96.07-7.72,1.83-10.58,4.98-3.53,3.88-5.3,9.34-4.86,14.99.71,9.07,7.13,16.36,14.94,16.96l46.93,3.6c.35.03.71.04,1.06.04,7.76,0,14.29-6.46,15.52-15.37l.61-4.4c.82-5.92-.9-11.99-4.59-16.23-3.02-3.47-7.02-5.38-11.25-5.38h0Z"/>
          </g>
          <g>
            <path class="cls-2" d="M79.02,36.12c-.17,0-.35,0-.52-.01l-38.76-2.07c-5.58-.3-10.54-5.34-12.05-12.26-1.11-5.08-.16-10.28,2.54-13.9,1.91-2.57,4.56-4.11,7.45-4.34L76.35.53c.25-.02.5-.03.75-.03,6.89,0,12.84,7.38,12.99,16.11l.09,5.08c.08,4.49-1.41,8.63-4.08,11.34-1.99,2.02-4.44,3.09-7.08,3.09h0Z"/>
            <path d="M77.1,1c6.58,0,12.35,7.09,12.49,15.62l.09,5.08c.13,7.84-4.57,13.92-10.66,13.92-.16,0-.33,0-.49-.01l-38.76-2.07c-5.34-.29-10.13-5.19-11.59-11.87-1.92-8.78,2.58-17.09,9.54-17.64l38.67-3.01c.24-.02.48-.03.71-.03M77.1,0c-.26,0-.53.01-.79.03l-38.67,3.01c-3.04.24-5.81,1.85-7.81,4.54-2.78,3.74-3.76,9.09-2.62,14.31,1.56,7.14,6.7,12.34,12.51,12.65l38.76,2.07c.18,0,.37.01.55.01,2.78,0,5.36-1.12,7.44-3.24,2.76-2.81,4.3-7.07,4.22-11.7l-.09-5.08c-.15-9-6.33-16.6-13.49-16.6h0Z"/>
          </g>
          <g class="cls-4">
            <g class="cls-5">
              <path class="cls-3" d="M24.01,111.98c7.62.25,13.7,6.72,13.58,14.44-.12,7.72-6.39,13.77-14.01,13.52-7.62-.25-13.7-6.72-13.58-14.44.12-7.72,6.39-13.77,14.01-13.52Z"/>
            </g>
          </g>
          <g class="cls-4">
            <g class="cls-5">
              <path class="cls-3" d="M20.58,74.39c7.62.25,13.7,6.72,13.58,14.44-.12,7.72-6.39,13.77-14.01,13.52-7.62-.25-13.7-6.72-13.58-14.44.12-7.72,6.39-13.77,14.01-13.52Z"/>
            </g>
          </g>
          <g class="cls-4">
            <g class="cls-5">
              <path class="cls-3" d="M33.85,40.5c6.71.22,12.08,5.43,11.99,11.62-.09,6.2-5.61,11.04-12.33,10.81-6.71-.22-12.08-5.43-11.99-11.62.09-6.2,5.61-11.04,12.33-10.81Z"/>
            </g>
          </g>
          <g class="cls-4">
            <g class="cls-5">
              <path class="cls-3" d="M40.1,8.6c4.9.16,8.82,4.47,8.74,9.63-.08,5.15-4.12,9.2-9.02,9.03-4.9-.16-8.82-4.47-8.74-9.63.08-5.15,4.12-9.2,9.02-9.03Z"/>
            </g>
          </g>
        </g>
        <g>
          <g>
            <path class="cls-2" d="M20.71,665.19c-3.71,0-7.28-1.58-10.05-4.44-3.6-3.73-5.55-9.22-5.36-15.07.35-10.12,6.89-18.39,15.21-19.23l58.92-5.99c.51-.05,1.03-.08,1.54-.08,9.46,0,17.1,8.99,17.4,20.48.18,6.84-2.23,13.38-6.59,17.93-3.34,3.48-7.56,5.43-11.9,5.5l-59.18.91Z"/>
            <path d="M80.98,620.88c9.14,0,16.61,8.65,16.9,19.99.32,12.29-7.91,22.76-18,22.91l-58.97.91c-.07,0-.13,0-.2,0-8.56,0-15.26-8.51-14.9-19,.33-9.8,6.74-17.94,14.76-18.75l58.92-5.99c.5-.05.99-.08,1.49-.08M80.98,619.88h0c-.53,0-1.06.03-1.59.08l-58.92,5.99c-8.57.87-15.31,9.35-15.66,19.71-.2,5.98,1.8,11.61,5.5,15.44,2.86,2.96,6.56,4.6,10.41,4.6h.22s58.97-.91,58.97-.91c4.47-.07,8.82-2.08,12.25-5.65,4.46-4.64,6.91-11.31,6.73-18.29-.3-11.75-8.16-20.96-17.9-20.96h0Z"/>
          </g>
          <g>
            <path class="cls-2" d="M16.54,705.16c-3.87,0-7.59-1.67-10.48-4.7-3.83-4.03-5.85-9.98-5.53-16.3.55-10.73,7.81-19.53,16.54-20.05l70.89-4.18c.28-.02.55-.02.82-.02,4.25,0,8.23,1.97,11.21,5.54,4.01,4.81,5.66,11.82,4.4,18.73l-.35,1.91c-1.73,9.48-8.68,16.55-16.52,16.8l-70.54,2.27c-.15,0-.3,0-.45,0Z"/>
            <path d="M88.79,660.4c10.04,0,17.38,11.31,15.12,23.68l-.35,1.91c-1.7,9.31-8.39,16.15-16.05,16.39l-70.54,2.27c-.14,0-.29,0-.43,0-9.05,0-16.08-9.22-15.51-20.48.54-10.52,7.55-19.07,16.07-19.57l70.89-4.18c.27-.02.53-.02.8-.02M88.79,659.4c-.28,0-.57,0-.85.03l-70.89,4.18c-8.98.53-16.45,9.54-17.01,20.52-.33,6.46,1.74,12.54,5.66,16.67,2.98,3.13,6.83,4.86,10.84,4.86.15,0,.31,0,.46,0l70.54-2.27c8.08-.26,15.23-7.5,17-17.21l.35-1.91c1.29-7.06-.4-14.21-4.51-19.14-3.08-3.69-7.2-5.72-11.6-5.72h0Z"/>
          </g>
          <g>
            <path class="cls-2" d="M32.18,739.32c-3.82-.06-7.45-1.77-10.22-4.81-3.43-3.77-5.16-9.1-4.73-14.62.69-8.83,6.91-15.92,14.47-16.5l46.92-3.6c.34-.03.68-.04,1.02-.04,7.51,0,13.83,6.28,15.03,14.94l.61,4.4c.8,5.78-.87,11.7-4.47,15.83-2.92,3.36-6.79,5.21-10.87,5.21l-47.76-.8Z"/>
            <path d="M79.65,700.25c7.19,0,13.36,6.08,14.53,14.5l.61,4.4c1.48,10.71-5.63,20.47-14.85,20.47-.07,0-.15,0-.22,0l-47.53-.8c-8.61-.15-15.24-8.81-14.46-18.9.67-8.65,6.64-15.48,14.01-16.04l46.93-3.6c.33-.03.66-.04.98-.04M79.65,699.25c-.35,0-.71.01-1.06.04l-46.92,3.6c-7.81.6-14.23,7.89-14.94,16.96-.44,5.65,1.33,11.12,4.86,14.99,2.86,3.14,6.62,4.91,10.58,4.98l47.53.8h.24c4.23,0,8.23-1.91,11.25-5.38,3.7-4.24,5.41-10.31,4.59-16.23l-.61-4.4c-1.23-8.9-7.76-15.37-15.52-15.37h0Z"/>
          </g>
          <g>
            <path class="cls-2" d="M77.1,772.07c-.25,0-.5,0-.75-.03l-38.67-3.01c-2.89-.22-5.54-1.76-7.45-4.34-2.7-3.63-3.65-8.83-2.54-13.9,1.51-6.92,6.46-11.96,12.05-12.26l38.76-2.07c.17,0,.35-.01.52-.01,2.65,0,5.1,1.07,7.08,3.09,2.67,2.71,4.15,6.85,4.08,11.34l-.09,5.08c-.15,8.73-6.1,16.11-12.99,16.11Z"/>
            <path d="M79.02,736.95c6.09,0,10.8,6.08,10.66,13.92l-.09,5.08c-.15,8.53-5.91,15.62-12.49,15.62-.24,0-.47,0-.71-.03l-38.67-3.01c-6.96-.54-11.45-8.85-9.54-17.64,1.46-6.68,6.24-11.58,11.59-11.87l38.76-2.07c.16,0,.33-.01.49-.01M79.02,735.95h0c-.18,0-.36,0-.55.01l-38.76,2.07c-5.81.31-10.95,5.51-12.51,12.65-1.14,5.22-.16,10.57,2.62,14.31,2,2.69,4.77,4.3,7.81,4.54l38.67,3.01c.26.02.53.03.79.03,7.16,0,13.34-7.6,13.49-16.6l.09-5.08c.08-4.63-1.46-8.89-4.22-11.7-2.08-2.12-4.66-3.24-7.44-3.24h0Z"/>
          </g>
          <g class="cls-4">
            <g class="cls-5">
              <path class="cls-3" d="M24.01,660.59c7.62-.25,13.7-6.72,13.58-14.44-.12-7.72-6.39-13.77-14.01-13.52-7.62.25-13.7,6.72-13.58,14.44.12,7.72,6.39,13.77,14.01,13.52Z"/>
            </g>
          </g>
          <g class="cls-4">
            <g class="cls-5">
              <path class="cls-3" d="M20.58,698.18c7.62-.25,13.7-6.72,13.58-14.44-.12-7.72-6.39-13.77-14.01-13.52-7.62.25-13.7,6.72-13.58,14.44.12,7.72,6.39,13.77,14.01,13.52Z"/>
            </g>
          </g>
          <g class="cls-4">
            <g class="cls-5">
              <path class="cls-3" d="M33.85,732.07c6.71-.22,12.08-5.43,11.99-11.62-.09-6.2-5.61-11.04-12.33-10.81-6.71.22-12.08,5.43-11.99,11.62.09,6.2,5.61,11.04,12.33,10.81Z"/>
            </g>
          </g>
          <g class="cls-4">
            <g class="cls-5">
              <path class="cls-3" d="M40.1,763.97c4.9-.16,8.82-4.47,8.74-9.63-.08-5.15-4.12-9.2-9.02-9.03-4.9.16-8.82,4.47-8.74,9.63.08,5.15,4.12,9.2,9.02,9.03Z"/>
            </g>
          </g>
        </g>
      </g>
    </g>
  </g>
</svg>