<?xml version="1.0" encoding="UTF-8"?>
<svg id="Layer_1" data-name="Layer 1" xmlns="http://www.w3.org/2000/svg" viewBox="0 0 592.89 747.12">
  <defs>
    <style>
      .cls-1 {
        fill: #ffc0a4;
      }

      .cls-1, .cls-2, .cls-3, .cls-4, .cls-5, .cls-6, .cls-7 {
        stroke-miterlimit: 10;
      }

      .cls-1, .cls-2, .cls-3, .cls-5, .cls-6, .cls-7 {
        stroke: #000;
      }

      .cls-8 {
        stroke: #242424;
        stroke-linecap: round;
        stroke-linejoin: round;
        stroke-width: .75px;
      }

      .cls-8, .cls-4, .cls-5 {
        fill: none;
      }

      .cls-2 {
        fill: #fff;
      }

      .cls-3 {
        fill: #e35451;
      }

      .cls-4 {
        stroke: #e05555;
        stroke-width: 3px;
      }

      .cls-6 {
        fill: #9e3b3b;
      }

      .cls-7 {
        fill: #d66;
      }

      .cls-9 {
        fill: #ffa383;
      }
    </style>
  </defs>
  <g>
    <g>
      <path d="M344.2,144.56c3.23-8.38,17.14-44.4,50.45-61.58,36.04-18.58,84.71-9.91,121.61,21.93-4.49-1.74-12.72-4.24-23.14-3.52-12.5.86-21.5,5.89-25.68,8.6,6.9-1.67,18.52-3.44,32.05-.24,28.35,6.71,42.53,29.86,45.44,34.86-4.39-2.45-31.36-16.96-58.36-5.35-7.76,3.34-13.59,8-17.77,12.22,4.34.43,11.32.58,19.43-1.72,7.06-2,12.34-5.12,15.71-7.47.27,7.65-.56,18.19-6.09,28.42-27.15,50.15-143.6,48.24-160.15,13.27-4.8-10.14-.43-21.44,6.51-39.43Z"/>
      <path d="M348.15,677.24c3.36,8.33,17.8,44.14,51.36,60.82,36.31,18.04,84.85,8.65,121.27-23.73-4.47,1.8-12.66,4.42-23.09,3.86-12.51-.67-21.59-5.57-25.8-8.21,6.92,1.57,18.56,3.16,32.05-.24,28.25-7.12,42.08-30.49,44.92-35.53-4.36,2.52-31.1,17.42-58.27,6.21-7.81-3.22-13.71-7.8-17.95-11.95,4.33-.5,11.31-.75,19.45,1.43,7.09,1.9,12.42,4.93,15.82,7.24.15-7.65-.83-18.18-6.51-28.32-27.89-49.74-144.3-46.11-160.32-10.9-4.65,10.21-.11,21.45,7.09,39.33Z"/>
    </g>
    <path d="M552.03,515.82c40.81-92.36,32.17-217.44-51.54-299.25-93.45-91.34-228.68-78.16-311.09-39.57-19.95,9.34-137.89,67.52-154,189.11-7.41,55.95,9.84,101.92,20.85,125.47-8.08-4.45-26.93-16.26-39.9-39.86-11.41-20.75-12.53-40.17-12.47-49.41-10.69,48.93,1.15,92.65,29.41,109.24,5.85,3.43,14.76,7.09,27.56,7.5-19.07,2.94-32.13,18.7-31.33,34.6.57,11.42,8.24,21.89,19.42,27.48-.84-1.93-5.48-13.08-.19-25.22,3.8-8.71,10.59-13.06,13.1-14.51,13.52,25.49,29.16,44.45,43.67,58.52,103.47,100.37,267.9,66.82,293.12,61.29,21.85-8.92,110.3-47.9,153.38-145.4Z"/>
  </g>
  <g>
    <g>
      <path class="cls-1" d="M417.93,69.68c8.91,8.86,20.78,18.9,30.62,25.99,12.97,9.35,31.36,19.09,37.18,32.67,6.61,15.41,10.92,19-3.94,31.24-4.15,3.42-32.2-3.75-35.91-11.58-4.94-10.44-22.06-25.76-26.98-31.31-10.11-11.41-13.81-12.51-22.39-21.58-3.84,1.97-2.97,1.8-8.52,2.97-5.55,1.17-20.11.23-26.21-.61-8.98-1.24-15.86,5.36-23.39.84-7.53-4.52,1.94-13.78,6.65-16.02,5.84-2.79,9.76-2.52,15.72-2.01-3.4-2.81-7.32-5.16-11.17-7.3-4.47-2.49-11.46-7.34-15.5-8.91-7.51-2.92-23.6-5.33-20.72-14.93,2.89-9.6,14.06-4.16,20.68-1.6,6.62,2.56,14.04,5.1,20.79,7.31-3.9-3.82-8.87-8.42-12.99-11.64-7.03-5.49-13.41-10.35-20.17-15.72-5.66-4.5-7.17-11.23,1.99-11.98,9.16-.75,15.41,5.61,22.88,11.08,5.82,4.27,13.12,9.93,19.01,14.58-4.02-5.39-9.13-11.41-13.66-16.08-4.53-4.67-7.84-7.64-11.9-12.7-3.24-4.04-4.92-11.36,2.87-11.56,7.78-.2,10.66,4.76,16.6,10.78,5.05,5.13,13.19,13.77,18.5,19.79-1.12-4.33-2.62-8.09-4.75-12.29-2.13-4.2-4.6-8.49-4.03-13.53.57-5.04,4.16-6.5,8.76-3.63,4.6,2.87,4.5,7.55,7.82,12.73,3.32,5.19,7.09,12.2,12.51,17.17,5.42,4.97,12.66,13.04,15.44,19.77,2.79,6.73,2.83,11.38,4.19,18.05Z"/>
      <path class="cls-8" d="M462.6,157.92c-5-1.68-15.74-11.55-18.39-14.4-16.59-17.85-30.47-32.65-47.57-48.18-3.82,1.58-3.34,1.62-8.55,2.75-5.2,1.12-20.69.05-25.89-.6-9.54-1.19-16.2,5.39-23.81.83-7.61-4.56,2-13.78,6.66-16.03,5.78-2.79,9.78-2.52,15.71-2.01-3.39-2.81-7.32-5.16-11.17-7.3-4.47-2.49-11.46-7.34-15.5-8.91-7.51-2.92-23.6-5.33-20.72-14.93,2.89-9.6,14.06-4.16,20.68-1.6,6.62,2.56,14.04,5.1,20.79,7.31-3.9-3.82-8.87-8.42-12.99-11.64-7.03-5.49-13.41-10.35-20.17-15.72-5.66-4.5-7.17-11.23,1.99-11.98,9.16-.75,15.41,5.61,22.88,11.08,5.82,4.27,13.12,9.93,19.01,14.58-4.02-5.39-9.13-11.41-13.66-16.08-4.53-4.67-7.84-7.64-11.9-12.7-3.24-4.04-4.92-11.36,2.87-11.56,7.78-.2,10.66,4.76,16.6,10.78,5.05,5.13,13.19,13.77,18.5,19.79-1.12-4.33-2.62-8.09-4.75-12.29-2.13-4.2-4.6-8.49-4.03-13.53.57-5.04,4.16-6.5,8.76-3.63,4.6,2.87,4.5,7.55,7.82,12.73,3.31,5.18,7.09,12.2,12.5,17.17,5.41,4.97,12.67,13.05,15.44,19.77,2.77,6.72,2.93,11.37,4.07,17.95,9.98,9.6,19.9,18.22,31.28,26.52,15,10.94,30.36,20.98,40.23,37.25"/>
      <path class="cls-8" d="M360.72,80.29c9.86-10.75,19.36-15.61,34.08-14.62"/>
      <path class="cls-8" d="M359.65,58.58c6.64-8.4,13.85-15,23.36-20"/>
      <path class="cls-8" d="M402.2,89.41c-1.56,2.38-3.44,4.29-5.68,6.04"/>
    </g>
    <path class="cls-3" d="M533.31,347.5c-22.57-47.61-48.92-80.14-81.15-124.09-20.19-27.53-44.07-65.67-69.09-93.29,4.93-11.29,7.09-21.7,13.69-32.06,14.67-23.05,34.46-39.68,57.77-53.96,74.04,76.6,122.95,164.96,137.85,271.52-1.08,15.93-3.98,29.04-19.4,36.81-14.01,7.07-26.73.96-39.68-4.94Z"/>
  </g>
  <g>
    <g>
      <g>
        <path class="cls-1" d="M369.02,208.58c-6.24-5.52-14.59-13.14-15.47-24.75-1.03-13.53,8.61-25.95,18.45-31.56,21.7-12.38,57.6.8,69.84,26.66,6.53,13.8,8.23,35.24-3.06,45.89-16.62,15.68-52.21-.7-69.76-16.24Z"/>
        <path class="cls-5" d="M373.84,165.49c2.84,7.11,7.79,17.46,16.38,28.17,7.43,9.27,20.82,25.98,30.48,22.58,7.06-2.48,13.47-16.17,7.03-26.04-4.94-7.57-15.8-10.39-24.87-5.59"/>
      </g>
      <g>
        <path class="cls-1" d="M372.01,612.86c-6.15,5.61-14.4,13.36-15.1,24.97-.83,13.54,8.99,25.82,18.92,31.29,21.88,12.06,57.59-1.65,69.44-27.69,6.33-13.9,7.7-35.36-3.74-45.84-16.85-15.43-52.2,1.47-69.52,17.27Z"/>
        <path class="cls-5" d="M377.48,655.88c2.73-7.15,7.53-17.57,15.96-28.41,7.29-9.38,20.43-26.29,30.15-23.03,7.1,2.38,13.7,15.97,7.41,25.93-4.83,7.64-15.65,10.62-24.79,5.96"/>
      </g>
    </g>
    <path class="cls-1" d="M331.66,613.87c31.59-.41,53.46.18,91.22-1.76,10.96-.56,16.47-.84,18.24-1.22,36.48-7.56,57.52-46.09,69.44-70.87,1.16-2.36,2.19-4.59,3.17-6.68,5.28-11.21,25.84-56.9,25.71-123.86v-.03c-.51-39.87-8.24-72.07-15.58-93.94-4.99-14.87-9.76-24.99-11.96-29.49-1.01-2.07-2.08-4.29-3.27-6.63-12.29-24.61-33.9-62.82-70.48-69.86-.97-.2-3.07-.34-6.57-.49-2.86-.13-6.72-.28-11.69-.46-37.78-1.35-59.64-.43-91.23-.38-12.29,0-30-.08-51.54-.7-15.5-2.23-81-9.88-140.71,32.91-67.05,48.02-76.31,123.42-78.86,144.22-.43,3.38-.73,6.75-.98,10.07-.17,1.99-.3,4.01-.38,6.03-.11,1.78-.15,3.59-.2,5.39-.03.54-.05,1.11-.02,1.66-.05,1.75-.06,3.49-.05,5.24v.12c.01,1.75.06,3.49.13,5.24-.03.57,0,1.11.04,1.66.07,1.81.15,3.61.28,5.39.11,2.02.27,4.03.47,6.02.3,3.31.65,6.68,1.13,10.05,2.86,20.73,13.24,96.01,80.99,143.03,60.34,41.87,125.72,33.25,141.18,30.79,21.53-.91,39.23-1.28,51.52-1.44Z"/>
    <path d="M310.16,205.11c-24.16,8.08-56.03,21.62-89.46,44.78-43.84,30.38-72.19,64.74-88.97,88.79,21.01-2.02,38.2-.52,50.12,1.29,15.67,2.38,81.68,12.4,119.03,66.47,9.56,13.84,14.64,26.8,17.32,34.89-13.81-13.09-34.05-29.1-61.37-41.75-55.9-25.88-107.92-22.16-132.15-18.78,26.63,10.04,66.86,29.34,104.66,66.57,71.17,70.09,85.06,155.73,88.48,185.23-23.11,3.23-61.84,5.62-106.88-6.75-21.51-5.91-70.11-19.89-109.79-61.66-76.68-80.71-54.2-195.83-52.53-203.7,4.58-21.62,24.04-113.47,110.29-152.85,69.58-31.77,136.29-8.23,151.25-2.54Z"/>
    <path class="cls-9" d="M481.5,330.04c15.93-.12,30.59-5.53,42.36-14.53-4.99-14.87-9.76-24.99-11.96-29.49-1.01-2.07-2.08-4.29-3.27-6.63-12.29-24.61-33.9-62.82-70.48-69.86-.97-.2-3.07-.34-6.57-.49-13.19,12.9-21.34,30.97-21.19,50.94.29,38.97,32.12,70.36,71.12,70.07Z"/>
    <path class="cls-9" d="M482.69,489.72c15.93-.12,30.67,5.07,42.57,13.9-4.77,14.94-9.39,25.13-11.53,29.66-.98,2.09-2.02,4.32-3.17,6.68-11.92,24.79-32.96,63.31-69.44,70.9-.96.22-3.07.38-6.56.59-13.38-12.7-21.79-30.65-21.94-50.62-.29-38.97,31.07-70.83,70.07-71.12Z"/>
    <g>
      <g>
        <path class="cls-2" d="M339.31,568.36c30.56,3.07,59.05-23.95,57.33-54.96-1.43-25.64-23.16-47.75-49.53-48.8-29.99-1.19-55.36,25.28-53.97,54.73,1.19,25.1,21.54,46.55,46.17,49.02Z"/>
        <path d="M339.96,545.18c23.62,2.37,45.63-18.51,44.3-42.47-1.1-19.81-17.9-36.9-38.27-37.71-23.17-.92-42.78,19.53-41.7,42.3.92,19.4,16.65,35.97,35.67,37.88Z"/>
        <path class="cls-5" d="M293.14,519.34c-.12,2.29-1.13,29.37,20.69,45.75,16.26,12.21,34.33,10.32,38.34,9.8"/>
      </g>
      <g>
        <path class="cls-2" d="M336.96,250.77c30.51-3.52,59.4,23.07,58.14,54.1-1.04,25.66-22.45,48.09-48.8,49.53-29.97,1.64-55.73-24.45-54.77-53.93.82-25.12,20.85-46.86,45.43-49.7Z"/>
        <path d="M339.06,273.44c23.58-2.72,45.9,17.83,44.93,41.81-.81,19.83-17.35,37.16-37.71,38.27-23.16,1.26-43.07-18.9-42.33-41.67.63-19.41,16.11-36.21,35.11-38.41Z"/>
        <path class="cls-5" d="M291.52,300.47c-.16-2.29-1.56-29.35,20.01-46.05,16.08-12.44,34.17-10.83,38.19-10.37"/>
      </g>
      <g>
        <path class="cls-5" d="M374.88,260.74c1.55-2.85,3.11-5.7,4.66-8.54"/>
        <path class="cls-5" d="M366.59,256.54c1.55-2.85,3.11-5.7,4.66-8.54"/>
      </g>
      <g>
        <path class="cls-5" d="M377.08,556.94c1.6,2.82,3.19,5.65,4.79,8.47"/>
        <path class="cls-5" d="M368.85,561.26c1.6,2.82,3.19,5.65,4.79,8.47"/>
      </g>
    </g>
    <path class="cls-5" d="M397.39,383.47c-1.71.7-12.52,5.35-16.62,17.41-1.26,3.7-3.44,12.67,1.5,21.73,5.14,9.42,14.3,12.24,16.08,12.74"/>
    <g>
      <path d="M201.3,293.79c.08-3.81.76-9.73,3.96-15.97,7.37-14.36,22.09-18.66,25.06-19.46.46,11.74.92,23.47,1.37,35.21.06,8.39-6.69,15.25-15.09,15.31-8.39.06-15.25-6.69-15.31-15.09Z"/>
      <path d="M202.97,519.39c.14,3.81.9,9.72,4.2,15.91,7.58,14.25,22.37,18.33,25.35,19.09.28-11.74.57-23.48.85-35.22-.06-8.39-6.92-15.15-15.31-15.09s-15.15,6.92-15.09,15.31Z"/>
    </g>
    <rect class="cls-4" x="203.31" y="570.59" width="22.43" height="63.23" rx="3.72" ry="3.72" transform="translate(330.09 -26.54) rotate(30.02)"/>
    <rect class="cls-4" x="236.29" y="589.65" width="22.43" height="63.23" rx="3.72" ry="3.72" transform="translate(344.05 -40.48) rotate(30.02)"/>
    <g>
      <path class="cls-6" d="M428.81,451.14c7.45-1.42,14.4-3.06,20.62-7.79,12.68-9.63,19.11-22.2,17.95-38.12-.42-5.74-1.95-10.12-5.06-14.96-8.61-13.41-21.09-19.43-36.89-20.49-.06,1.74.08,3.15.36,4.89.56,3.54,1.26,6.7,2.06,10.35,1.63,7.45,3.12,15.22,3.91,22.93.06.55.1,1.21.15,1.79.05.58.05,1.23.04,1.82-.1,5.77-.36,11.91-1.03,17.51-.8,6.7-1.83,12.85-2.1,19.46-.04.97-.03,1.64-.01,2.63Z"/>
      <path class="cls-2" d="M427.87,384.99c1.62,7.57,3.08,15.15,3.92,22.97,3.19-3.07,5.65-4.81,5.49-10.08-.16-5.27-4.36-10.46-9.4-12.9Z"/>
      <path class="cls-2" d="M430.94,429.1c4.12-2.48,7.14-6.17,6.95-11.08-.16-4.13-2.65-6.48-5.96-8.31,0,.62.03,1.22.02,1.82-.09,5.9-.39,11.72-1.02,17.57Z"/>
      <path class="cls-7" d="M449.48,443.45c12.65-10.04,18.93-22.12,17.98-38.24-.34-5.81-2.61-9.96-4.94-15-8.64,5.9-13.48,13.09-15.89,23.35-2.41,10.26-2.1,20.39,2.84,29.89Z"/>
    </g>
  </g>
</svg>