<?xml version="1.0" encoding="UTF-8"?>
<svg xmlns="http://www.w3.org/2000/svg" viewBox="0 0 2539.78 2539.78">
  <defs>
    <style>
      .cls-1 {
        fill: none;
        opacity: .46;
        stroke: #fff;
        stroke-miterlimit: 10;
        stroke-width: .69px;
      }

      .cls-2 {
        fill: #e55451;
      }

      .cls-3, .cls-4, .cls-5 {
        fill: #d47000;
      }

      .cls-3, .cls-5, .cls-6 {
        opacity: .5;
      }

      .cls-3, .cls-6 {
        mix-blend-mode: multiply;
      }

      .cls-7 {
        opacity: .18;
      }

      .cls-7, .cls-8 {
        fill: #fff;
      }

      .cls-9 {
        fill: #953c00;
      }

      .cls-10 {
        isolation: isolate;
      }

      .cls-11 {
        fill: #b24d00;
      }

      .cls-12, .cls-6 {
        fill: #f2ad36;
      }

      .cls-8 {
        opacity: .15;
      }

      .cls-8, .cls-5 {
        mix-blend-mode: screen;
      }

      .cls-13 {
        fill: #f4bf45;
      }

      .cls-14 {
        fill: #dc9220;
      }
    </style>
  </defs>
  <g class="cls-10">
    <g id="Layer_1" data-name="Layer 1">
      <g>
        <g>
          <g>
            <g>
              <path class="cls-9" d="M938.82,1836.84c0-19.55,148.26-35.36,331.05-35.36s331.06,15.81,331.06,35.36-148.2,35.36-331.06,35.36-331.05-15.81-331.05-35.36Z"/>
              <path d="M940.32,1836.84c0-.12.01-.23.02-.34.01-.33-.11.37,0-.02.07-.24.13-.48.21-.71.08-.26-.2.35.02-.04.06-.11.12-.23.18-.34s.14-.23.21-.34c.05-.08.34-.47.16-.24s.12-.14.18-.21c.11-.12.22-.24.33-.36.23-.24.48-.47.74-.7.13-.11.27-.22.4-.33.36-.3-.17.11.23-.17.32-.23.63-.45.96-.66,1.63-1.06,3.39-1.92,5.17-2.7.11-.05.23-.1.34-.15.24-.1-.18.07.17-.07.26-.11.52-.21.78-.32.57-.23,1.14-.45,1.71-.66,1.25-.46,2.5-.89,3.77-1.3,6.31-2.04,12.78-3.57,19.27-4.93,8.57-1.79,17.21-3.25,25.87-4.54,10.48-1.56,20.99-2.86,31.52-4.02,12.33-1.35,24.68-2.5,37.04-3.5,13.81-1.12,27.63-2.07,41.47-2.87,15.21-.89,30.43-1.61,45.65-2.21,16.26-.63,32.52-1.11,48.79-1.45,17.17-.36,34.34-.57,51.51-.64,17.58-.07,35.16,0,52.74.23,16.73.21,33.46.57,50.18,1.07,15.79.48,31.57,1.09,47.35,1.85,14.49.71,28.98,1.55,43.45,2.56,13.07.91,26.12,1.96,39.16,3.2,11.49,1.09,22.96,2.33,34.4,3.79,9.54,1.22,19.06,2.61,28.54,4.28,7.57,1.34,15.13,2.84,22.57,4.76,2.93.76,5.84,1.58,8.72,2.52,1.25.41,2.5.84,3.73,1.3.55.21,1.09.42,1.63.63.72.29.67.27,1.34.56,1.75.77,3.47,1.63,5.06,2.68.33.22.66.45.98.69.21.15-.28-.23,0,0,.06.05.13.1.19.15.14.12.28.24.42.36.25.22.49.45.72.7.1.11.2.23.3.34.05.05.09.1.13.16.2.23-.21-.29-.03-.04.15.22.3.44.44.68.06.11.11.23.17.34.1.19-.08-.35.02.06.06.24.13.47.19.71.03.13.01-.42,0,0,0,.12,0,.25,0,.37,0,.12-.02.23-.02.34.02-.3.07-.26-.02.02-.07.23-.14.46-.22.68.18-.51-.1.19-.23.4-.07.12-.15.22-.22.34-.23.37,0,.03-.08.11-.43.5-.88.97-1.38,1.39-.13.11-.27.22-.41.33-.2.16.25-.19.04-.03-.08.06-.16.12-.24.18-.33.24-.67.47-1.01.69-1.66,1.06-3.44,1.92-5.24,2.7-.1.04-.35.15-.11.05-.12.05-.24.1-.35.15-.28.12-.57.23-.85.34-.57.23-1.15.45-1.73.66-1.26.46-2.53.89-3.8,1.3-2.92.93-5.88,1.75-8.85,2.51-7.49,1.9-15.08,3.4-22.69,4.72-9.59,1.67-19.22,3.06-28.88,4.28-11.45,1.45-22.93,2.68-34.42,3.76-13.15,1.24-26.33,2.28-39.51,3.19-14.52,1-29.06,1.83-43.6,2.53-15.74.76-31.49,1.35-47.25,1.82-16.83.5-33.67.84-50.51,1.05s-35.02.28-52.53.2c-17.22-.08-34.44-.3-51.66-.67-16.23-.35-32.45-.84-48.67-1.48-15.18-.6-30.35-1.33-45.51-2.23-13.78-.82-27.55-1.77-41.31-2.9-12.25-1.01-24.48-2.15-36.7-3.51-10.51-1.17-21.01-2.48-31.47-4.06-8.55-1.29-17.07-2.74-25.53-4.53-6.44-1.37-12.87-2.91-19.12-4.96-4.23-1.39-7.9-2.67-11.63-5.19-.16-.11-.32-.22-.48-.33-.1-.07-.51-.38-.33-.24s-.22-.18-.3-.24c-.13-.11-.26-.22-.39-.33-.23-.21-.45-.42-.66-.64-.1-.11-.2-.23-.3-.34-.26-.29-.11-.13-.08-.09-.16-.22-.31-.44-.44-.68-.06-.11-.11-.23-.18-.34-.17-.31.1.35-.02-.04-.06-.22-.12-.44-.19-.66-.13-.41.02.27,0,0,0-.12-.02-.25-.02-.37-.01-1.93-3.01-1.93-3,0,.02,2.96,2.37,5.17,4.63,6.73,3.62,2.51,7.92,4.08,12.07,5.47,6.21,2.08,12.6,3.63,19,5,8.53,1.83,17.13,3.3,25.76,4.6,10.59,1.6,21.22,2.95,31.87,4.13,12.36,1.38,24.74,2.54,37.13,3.56,13.95,1.15,27.91,2.11,41.87,2.94,15.24.9,30.49,1.64,45.75,2.24,16.46.65,32.93,1.14,49.41,1.49,17.4.37,34.81.59,52.21.66,17.74.07,35.48,0,53.22-.23s33.75-.58,50.61-1.09c15.91-.48,31.81-1.11,47.71-1.89,14.65-.72,29.29-1.58,43.92-2.62,13.17-.93,26.34-2,39.48-3.27,11.44-1.11,22.86-2.36,34.25-3.84,9.65-1.26,19.28-2.67,28.86-4.39,7.51-1.35,15-2.87,22.38-4.83,5.31-1.41,10.62-3.02,15.62-5.31,3.02-1.39,6.34-3.14,8.25-5.96,1.48-2.19,1.4-4.86-.15-6.99-2.05-2.82-5.43-4.56-8.54-5.95-5.1-2.28-10.49-3.89-15.89-5.3-7.46-1.95-15.04-3.47-22.63-4.81-9.6-1.7-19.26-3.11-28.93-4.36-11.51-1.49-23.05-2.74-34.6-3.84-13.2-1.26-26.43-2.33-39.66-3.25-14.68-1.03-29.37-1.88-44.07-2.59-15.86-.77-31.73-1.38-47.61-1.85-16.98-.51-33.96-.86-50.94-1.07s-35.51-.28-53.26-.2-34.75.31-52.12.69c-16.43.36-32.87.86-49.29,1.52-15.21.61-30.42,1.35-45.61,2.26-13.91.83-27.82,1.81-41.71,2.96-12.33,1.03-24.65,2.2-36.94,3.59-10.58,1.19-21.14,2.54-31.66,4.15-8.51,1.3-17,2.77-25.42,4.6-6.35,1.38-12.69,2.93-18.85,5.04-4.05,1.39-8.28,2.96-11.79,5.48-2.15,1.55-4.32,3.69-4.34,6.53-.01,1.93,2.99,1.93,3,0Z"/>
            </g>
            <g>
              <path class="cls-9" d="M1600.93,702.97c0,19.55-148.26,35.36-331.05,35.36s-331.05-15.81-331.05-35.36,148.2-35.36,331.05-35.36,331.05,15.81,331.05,35.36Z"/>
              <path d="M1599.43,702.97c0,.12-.01.23-.02.34-.01.33.11-.37,0,.02-.07.24-.13.48-.21.71-.08.26.2-.35-.02.04-.06.11-.12.23-.18.34s-.14.23-.21.34c-.05.08-.34.47-.16.24s-.12.14-.18.21c-.11.12-.22.24-.33.36-.23.24-.48.47-.74.7-.13.11-.27.22-.4.33-.36.3.17-.11-.23.17-.32.23-.63.45-.96.66-1.63,1.06-3.39,1.92-5.17,2.7-.11.05-.23.1-.34.15-.24.1.18-.07-.17.07-.26.11-.52.21-.78.32-.57.23-1.14.45-1.71.66-1.25.46-2.5.89-3.77,1.3-6.31,2.04-12.78,3.57-19.27,4.93-8.57,1.79-17.21,3.25-25.87,4.54-10.48,1.56-20.99,2.86-31.52,4.02-12.33,1.35-24.68,2.5-37.04,3.5-13.81,1.12-27.63,2.07-41.47,2.87-15.21.89-30.43,1.61-45.65,2.21-16.26.63-32.52,1.11-48.79,1.45-17.17.36-34.34.57-51.51.64s-35.16,0-52.74-.23-33.46-.57-50.18-1.07c-15.79-.48-31.57-1.09-47.35-1.85-14.49-.71-28.98-1.55-43.45-2.56-13.07-.91-26.12-1.96-39.16-3.2-11.49-1.09-22.96-2.33-34.4-3.79-9.54-1.22-19.06-2.61-28.54-4.28-7.57-1.34-15.13-2.84-22.57-4.76-2.93-.76-5.84-1.58-8.72-2.52-1.25-.41-2.5-.84-3.73-1.3-.55-.21-1.09-.42-1.63-.63-.72-.29-.67-.27-1.34-.56-1.75-.77-3.47-1.63-5.06-2.68-.33-.22-.66-.45-.98-.69-.21-.15.28.23,0,0-.06-.05-.13-.1-.19-.15-.14-.12-.28-.24-.42-.36-.25-.22-.49-.45-.72-.7-.1-.11-.2-.23-.3-.34-.05-.05-.09-.1-.13-.16-.2-.23.21.29.03.04-.15-.22-.3-.44-.44-.68-.06-.11-.11-.23-.17-.34-.1-.19.08.35-.02-.06-.06-.24-.13-.47-.19-.71-.03-.13-.01.42,0,0,0-.12,0-.25,0-.37,0-.12.02-.23.02-.34-.02.3-.07.26.02-.02.07-.23.14-.46.22-.68-.18.51.1-.19.23-.4.07-.12.15-.22.22-.34.23-.37,0-.03.08-.11.43-.5.88-.97,1.38-1.39.13-.11.27-.22.41-.33.2-.16-.25.19-.04.03.08-.06.16-.12.24-.18.33-.24.67-.47,1.01-.69,1.66-1.06,3.44-1.92,5.24-2.7.1-.04.35-.15.11-.05.12-.05.24-.1.35-.15.28-.12.57-.23.85-.34.57-.23,1.15-.45,1.73-.66,1.26-.46,2.53-.89,3.8-1.3,2.92-.93,5.88-1.75,8.85-2.51,7.49-1.9,15.08-3.4,22.69-4.72,9.59-1.67,19.22-3.06,28.88-4.28,11.45-1.45,22.93-2.68,34.42-3.76,13.15-1.24,26.33-2.28,39.51-3.19,14.52-1,29.06-1.83,43.6-2.53,15.74-.76,31.49-1.35,47.25-1.82,16.83-.5,33.67-.84,50.51-1.05s35.02-.28,52.53-.2c17.22.08,34.44.3,51.66.67,16.23.35,32.45.84,48.67,1.48,15.18.6,30.35,1.33,45.51,2.23,13.78.82,27.55,1.77,41.31,2.9,12.25,1.01,24.48,2.15,36.7,3.51,10.51,1.17,21.01,2.48,31.47,4.06,8.55,1.29,17.07,2.74,25.53,4.53,6.44,1.37,12.87,2.91,19.12,4.97,4.23,1.39,7.9,2.67,11.63,5.19.16.11.32.22.48.33.1.07.51.38.33.24s.22.18.3.24c.13.11.26.22.39.33.23.21.45.42.66.65.1.11.2.23.3.34.26.29.11.13.08.09.16.22.31.44.44.68.06.11.11.23.18.34.17.31-.1-.35.02.04.06.22.12.44.19.66.13.41-.02-.27,0,0,0,.12.02.25.02.37.01,1.93,3.01,1.93,3,0-.02-2.96-2.37-5.17-4.63-6.74-3.62-2.51-7.92-4.08-12.07-5.47-6.21-2.08-12.6-3.63-19-5-8.53-1.83-17.13-3.3-25.76-4.6-10.59-1.6-21.22-2.95-31.87-4.13-12.36-1.38-24.74-2.54-37.13-3.56-13.95-1.15-27.91-2.11-41.87-2.94-15.24-.9-30.49-1.64-45.75-2.24-16.46-.65-32.93-1.14-49.41-1.49-17.4-.37-34.81-.59-52.21-.66-17.74-.07-35.48,0-53.22.23-16.87.22-33.75.58-50.61,1.09-15.91.48-31.81,1.11-47.71,1.89-14.65.72-29.29,1.58-43.92,2.62-13.17.93-26.34,2-39.48,3.27-11.44,1.11-22.86,2.36-34.25,3.84-9.65,1.26-19.28,2.67-28.86,4.39-7.51,1.35-15,2.87-22.38,4.83-5.31,1.41-10.62,3.02-15.62,5.31-3.02,1.39-6.34,3.14-8.25,5.96-1.48,2.19-1.4,4.86.15,6.99,2.05,2.82,5.43,4.56,8.54,5.95,5.1,2.28,10.49,3.89,15.89,5.3,7.46,1.95,15.04,3.47,22.63,4.81,9.6,1.7,19.26,3.11,28.93,4.36,11.51,1.49,23.05,2.74,34.6,3.84,13.2,1.26,26.43,2.33,39.66,3.25,14.68,1.03,29.37,1.88,44.07,2.59,15.86.77,31.73,1.38,47.61,1.85,16.98.51,33.96.86,50.94,1.07,17.75.22,35.51.28,53.26.2,17.37-.08,34.75-.31,52.12-.69,16.43-.36,32.87-.86,49.29-1.52,15.21-.61,30.42-1.35,45.61-2.26,13.91-.83,27.82-1.81,41.71-2.96,12.33-1.03,24.65-2.2,36.94-3.59,10.58-1.19,21.14-2.54,31.66-4.15,8.51-1.3,17-2.77,25.42-4.6,6.35-1.38,12.69-2.93,18.85-5.04,4.05-1.39,8.28-2.96,11.79-5.48,2.15-1.55,4.32-3.69,4.34-6.53.01-1.93-2.99-1.93-3,0Z"/>
            </g>
          </g>
          <g>
            <g>
              <path class="cls-7" d="M1460.26,1416.72c-20.34-21.42-48.19-47.34-84.78-74.53-62.98-46.8-79.43-63.23-83.63-85.27,4.2-22.03,20.65-38.46,83.63-85.27,36.59-27.19,64.44-53.11,84.78-74.53,53.74-49.91,87.34-120.65,87.34-199.16,0-151.16-124.34-273.69-277.72-273.69s-277.73,122.54-277.73,273.69c0,52.94,15.29,102.33,41.7,144.22h-.05s1.21,2,3.7,5.61c8.78,13.2,18.68,25.6,29.58,37.08,20.84,23.38,52.18,54.17,96.07,86.79,62.98,46.8,79.43,63.23,83.63,85.27-4.2,22.03-20.65,38.46-83.63,85.27-43.89,32.61-75.23,63.41-96.07,86.79-10.9,11.48-20.8,23.88-29.58,37.08-2.49,3.61-3.7,5.6-3.7,5.6h.05c-26.41,41.9-41.7,91.29-41.7,144.23,0,151.16,124.34,273.69,277.73,273.69s277.72-122.54,277.72-273.69c0-78.51-33.6-149.25-87.34-199.16Z"/>
              <path class="cls-1" d="M1460.26,1416.72c-20.34-21.42-48.19-47.34-84.78-74.53-62.98-46.8-79.43-63.23-83.63-85.27,4.2-22.03,20.65-38.46,83.63-85.27,36.59-27.19,64.44-53.11,84.78-74.53,53.74-49.91,87.34-120.65,87.34-199.16,0-151.16-124.34-273.69-277.72-273.69s-277.73,122.54-277.73,273.69c0,52.94,15.29,102.33,41.7,144.22h-.05s1.21,2,3.7,5.61c8.78,13.2,18.68,25.6,29.58,37.08,20.84,23.38,52.18,54.17,96.07,86.79,62.98,46.8,79.43,63.23,83.63,85.27-4.2,22.03-20.65,38.46-83.63,85.27-43.89,32.61-75.23,63.41-96.07,86.79-10.9,11.48-20.8,23.88-29.58,37.08-2.49,3.61-3.7,5.6-3.7,5.6h.05c-26.41,41.9-41.7,91.29-41.7,144.23,0,151.16,124.34,273.69,277.73,273.69s277.72-122.54,277.72-273.69c0-78.51-33.6-149.25-87.34-199.16Z"/>
            </g>
            <g>
              <path class="cls-8" d="M1233.42,1195.08c2.27,5.95,4.55,11.49,7.06,16.63-13.89-14.24-34.89-30.81-66.22-54.09-14.41-10.74-28.12-21.76-41.08-33.02,0-.06-.06-.06-.06-.12-58.11-80.4-78.12-184.61-66.57-283.15,6.01-50.82,20.71-101.58,45.28-146.27,43.93-33.37,99.01-53.27,158.7-53.27h2.57c-29,59.86-54.49,120.54-66.05,186.41-8.17,46.62-8.81,94.23-7.93,141.61,1.4,76.32,7.18,153.92,34.31,225.27Z"/>
              <path class="cls-8" d="M1233.42,1322.79c2.27-5.95,4.55-11.49,7.06-16.63-13.89,14.24-34.89,30.81-66.22,54.09-14.41,10.74-28.12,21.76-41.08,33.02,0,.06-.06.06-.06.12-58.11,80.4-78.12,184.61-66.57,283.15,6.01,50.82,20.71,101.58,45.28,146.27,43.93,33.37,99.01,53.27,158.7,53.27h2.57c-29-59.86-54.5-120.54-66.05-186.41-8.17-46.62-8.81-94.23-7.94-141.61,1.4-76.32,7.18-153.92,34.31-225.27Z"/>
              <path class="cls-8" d="M1430.25,1400.61c0-.06-.06-.06-.06-.11-6.96-6.05-14.2-12.02-21.61-17.92,1.29,4.74,2.53,9.36,3.73,13.62,9.81,34.78,17.6,70.01,21.5,105.97,7.22,66.65,4.11,135.35-7.27,201.36-8.46,49.08-20.35,99.45-37.63,147.07,22.37-8.63,43.23-20.23,61.95-34.45,23.77-43.25,38-92.37,43.81-141.54,11.18-95.36-8.19-196.19-64.42-273.99Z"/>
            </g>
            <g>
              <path d="M1461.32,1415.66c-10.24-10.77-20.89-21.15-31.89-31.14-13.38-12.15-27.27-23.74-41.56-34.8s-29.16-21.77-43.45-33.04c-9.78-7.71-19.49-15.6-28.47-24.25-5.79-5.58-11.33-11.49-15.63-18.27-3.3-5.21-5.49-10.4-6.78-16.45-.02-.09-.24-1.04-.21-1.05.06-.02-.14.9.07.17.06-.2.09-.42.13-.63.15-.69.31-1.39.48-2.07.36-1.4.77-2.79,1.25-4.15.98-2.82,2.17-5.36,3.74-8.1,3.81-6.64,8.86-12.39,14.26-17.81,8.27-8.32,17.34-15.85,26.48-23.18,13.76-11.03,27.99-21.44,42.05-32.09s29-22.83,42.78-35.09c11.42-10.16,22.49-20.73,33.12-31.72,5.24-5.41,10.77-10.52,15.96-15.98s10.54-11.57,15.44-17.68c9.84-12.29,18.66-25.4,26.27-39.19,7.67-13.9,14.12-28.47,19.25-43.49s9.06-31.04,11.46-47.02,3.39-32.19,2.94-48.36c-.39-13.98-1.86-27.93-4.38-41.68s-5.97-26.76-10.47-39.71c-4.44-12.77-9.83-25.22-16.11-37.19-6.22-11.87-13.33-23.27-21.23-34.09s-16.55-21.06-25.91-30.63-19.37-18.4-29.97-26.52-21.96-15.59-33.72-22.15-24.27-12.38-36.99-17.22c-12.91-4.91-26.18-8.85-39.66-11.79-13.81-3.01-27.86-4.98-41.97-5.91-14.32-.94-28.71-.8-43,.42s-28,3.43-41.7,6.7c-13.4,3.2-26.56,7.39-39.33,12.53-12.61,5.08-24.86,11.04-36.6,17.89s-22.77,14.42-33.31,22.79-20.27,17.33-29.41,27.03-17.65,20.15-25.33,31.11c-7.7,10.98-14.58,22.53-20.58,34.52s-11.22,24.68-15.41,37.55-7.49,26.45-9.7,40.01c-2.25,13.86-3.45,27.88-3.55,41.92-.14,17.73,1.46,35.48,4.76,52.91s8.16,33.92,14.65,50.09c6.16,15.33,13.69,30.09,22.49,44.08l.9-2.2h-.05c-.92.27-1.4,1.39-.9,2.22,2.68,4.39,5.68,8.63,8.67,12.82,4,5.61,8.2,11.08,12.61,16.38s8.77,9.92,13.2,14.86c3.12,3.48,6.29,6.92,9.5,10.31,15.75,16.66,32.52,32.36,50.01,47.17,10.77,9.12,21.83,17.91,33.12,26.39,10.68,8.02,21.41,15.97,31.93,24.19,13.52,10.57,27.3,21.38,38.77,34.21,6.57,7.34,11.97,15.51,14.35,24.99.13.5.25,1.01.36,1.52.05.23.1.46.15.7.03.14.04.29.08.42.2.67,0-.26.05-.24.12.05-.64,2.91-.71,3.19-.53,2.08-1.2,4.12-2,6.11-.32.79-.8,1.88-1.29,2.88-.52,1.06-1.07,2.1-1.66,3.12-1.25,2.17-2.64,4.26-4.13,6.27-3.66,4.95-8.02,9.54-12.48,13.86-6.13,5.93-12.62,11.48-19.22,16.88-20.24,16.58-41.72,31.56-62.15,47.89-19.27,15.41-37.76,31.82-55.16,49.32-6.75,6.79-13.33,13.74-19.72,20.87-4.56,5.1-9.24,10.07-13.59,15.35s-8.57,10.79-12.55,16.42c-2.79,3.95-5.61,7.94-8.14,12.07-.51.83-.02,1.95.9,2.2h.05c-.3-.72-.6-1.46-.9-2.19-12.94,20.56-23.17,42.83-30.23,66.08-7.24,23.82-11.13,48.65-11.62,73.54-.39,20.13,1.44,40.31,5.46,60.05,3.84,18.83,9.73,37.21,17.47,54.8,7.61,17.3,17.04,33.8,28.06,49.15s23.45,29.42,37.25,42.17c13.86,12.8,29.02,24.2,45.16,33.96,16.39,9.91,33.82,18.12,51.88,24.48s37.69,11.04,57.14,13.57,40.25,3.07,60.34,1.4c19.63-1.63,39.09-5.28,57.95-10.95,18.47-5.55,36.38-13.03,53.32-22.25s32.27-19.78,46.72-31.97c14.35-12.11,27.47-25.67,39.08-40.42s21.86-30.86,30.26-47.78,15.21-35.15,19.92-53.68,7.58-38.5,8.23-58.08c.75-22.67-1.32-45.43-6.18-67.58-4.83-21.98-12.45-43.33-22.55-63.43s-22.37-38.39-36.78-55.25c-6.92-8.1-14.32-15.79-22.12-23.04-1.41-1.31-3.54.8-2.12,2.12,16.08,14.95,30.39,31.77,42.48,50.11,12.17,18.46,22.09,38.39,29.39,59.26s12.19,43.43,14.07,65.87c1.75,20.77,1.14,41.77-1.92,62.39-2.79,18.83-7.59,37.35-14.29,55.16s-15.09,34.42-25.2,50.23-21.71,30.37-34.73,43.72c-12.98,13.3-27.28,25.28-42.66,35.71-15.62,10.59-32.32,19.62-49.77,26.81-17.78,7.33-36.31,12.8-55.21,16.32-19.53,3.64-39.44,5.15-59.3,4.61s-39.38-3.14-58.55-7.8-36.52-10.88-53.69-19.07-33.17-17.94-48.18-29.3c-14.83-11.22-28.52-23.99-40.79-37.96s-23.11-29.22-32.29-45.4c-9.29-16.39-16.86-33.73-22.52-51.7s-9.55-37.15-11.28-56.22c-2.06-22.79-1.28-45.88,2.45-68.46,3.96-23.98,11.19-47.42,21.46-69.45,4.85-10.39,10.36-20.47,16.47-30.18.52-.83.01-1.95-.9-2.2h-.05c.3.72.6,1.46.9,2.19,2.68-4.39,5.68-8.63,8.67-12.82,4.03-5.65,8.27-11.15,12.73-16.48s8.77-9.88,13.19-14.79c3.08-3.42,6.2-6.8,9.36-10.13,15.92-16.81,32.88-32.63,50.58-47.56,21.07-17.78,43.57-33.66,65.25-50.67,13.36-10.48,27-21.23,38.25-34.04,6.58-7.49,12.06-15.92,14.48-25.69.29-1.15.77-2.54.64-3.71-.12-1.07-.44-2.15-.71-3.19-.53-2.08-1.19-4.12-1.98-6.11-1.81-4.53-4.25-8.76-7.12-12.7-8.67-11.89-20.18-21.65-31.47-30.94-20.12-16.57-41.51-31.49-61.89-47.71-19.46-15.49-38.13-31.99-55.7-49.59-6.87-6.89-13.57-13.94-20.07-21.18-4.39-4.89-8.89-9.66-13.1-14.72-4.54-5.45-8.87-11.08-12.96-16.88-2.79-3.95-5.61-7.94-8.14-12.07l-.9,2.2h.05c.91-.26,1.42-1.39.9-2.22-9.11-14.47-16.9-29.78-23.12-45.72s-11.07-32.97-14.15-50.07-4.47-34.62-4.19-52.05c.22-13.97,1.51-27.93,3.9-41.7,2.33-13.41,5.67-26.63,10-39.53s9.52-25.15,15.66-37.11,13.08-23.3,20.85-34.15,16.28-21.04,25.51-30.6,19.12-18.45,29.6-26.59,21.76-15.62,33.4-22.21c11.71-6.62,23.91-12.4,36.47-17.25,12.82-4.95,26.01-8.94,39.42-11.94s27.62-5.09,41.62-6.06c14.31-.99,28.71-.9,43.01.26s27.71,3.32,41.29,6.52,26.48,7.29,39.22,12.38,24.7,10.95,36.37,17.73c11.51,6.69,22.56,14.21,32.99,22.49s20.27,17.33,29.41,27.03,17.53,20.01,25.14,30.91c7.61,10.91,14.43,22.37,20.37,34.27s11.11,24.52,15.24,37.32,7.4,26.37,9.57,39.88c2.21,13.77,3.32,27.72,3.37,41.67.06,16.42-1.34,32.84-4.27,49-2.86,15.77-7.13,31.28-12.75,46.29s-12.34,28.93-20.34,42.46-17.11,26.29-27.29,38.21c-5.08,5.95-10.42,11.69-15.98,17.19-2.67,2.64-5.46,5.17-8.06,7.88-2.38,2.49-4.79,4.95-7.22,7.4-11.1,11.17-22.64,21.89-34.54,32.2-14.35,12.43-29.27,24.12-44.48,35.46-13.17,9.82-26.29,19.73-38.98,30.15-8.38,6.88-16.65,13.98-24.07,21.9-5,5.34-9.67,11.14-13,17.68-1.38,2.71-2.53,5.55-3.41,8.47-.42,1.38-.77,2.78-1.07,4.19-.19.92-.28,1.69-.09,2.62.15.72.31,1.44.48,2.15,1.48,5.99,4.1,11.63,7.51,16.76,4.64,6.96,10.47,13.08,16.53,18.82,9.18,8.7,19.05,16.66,29,24.45,14.48,11.35,29.44,22.09,43.95,33.4,14.02,10.94,27.65,22.39,40.78,34.39,10.47,9.57,20.63,19.5,30.41,29.78,1.33,1.4,3.45-.72,2.12-2.12Z"/>
              <path d="M1461.32,1415.66c-10.24-10.77-20.89-21.15-31.89-31.14-13.38-12.15-27.27-23.74-41.56-34.8s-29.16-21.77-43.45-33.04c-9.78-7.71-19.49-15.6-28.47-24.25-5.79-5.58-11.33-11.49-15.63-18.27-3.3-5.21-5.49-10.4-6.78-16.45-.02-.09-.24-1.04-.21-1.05.06-.02-.14.9.07.17.06-.2.09-.42.13-.63.15-.69.31-1.39.48-2.07.36-1.4.77-2.79,1.25-4.15.98-2.82,2.17-5.36,3.74-8.1,3.81-6.64,8.86-12.39,14.26-17.81,8.27-8.32,17.34-15.85,26.48-23.18,13.76-11.03,27.99-21.44,42.05-32.09s29-22.83,42.78-35.09c11.42-10.16,22.49-20.73,33.12-31.72,5.24-5.41,10.77-10.52,15.96-15.98s10.54-11.57,15.44-17.68c9.84-12.29,18.66-25.4,26.27-39.19,7.67-13.9,14.12-28.47,19.25-43.49s9.06-31.04,11.46-47.02,3.39-32.19,2.94-48.36c-.39-13.98-1.86-27.93-4.38-41.68s-5.97-26.76-10.47-39.71c-4.44-12.77-9.83-25.22-16.11-37.19-6.22-11.87-13.33-23.27-21.23-34.09s-16.55-21.06-25.91-30.63-19.37-18.4-29.97-26.52-21.96-15.59-33.72-22.15-24.27-12.38-36.99-17.22c-12.91-4.91-26.18-8.85-39.66-11.79-13.81-3.01-27.86-4.98-41.97-5.91-14.32-.94-28.71-.8-43,.42s-28,3.43-41.7,6.7c-13.4,3.2-26.56,7.39-39.33,12.53-12.61,5.08-24.86,11.04-36.6,17.89s-22.77,14.42-33.31,22.79-20.27,17.33-29.41,27.03-17.65,20.15-25.33,31.11c-7.7,10.98-14.58,22.53-20.58,34.52s-11.22,24.68-15.41,37.55-7.49,26.45-9.7,40.01c-2.25,13.86-3.45,27.88-3.55,41.92-.14,17.73,1.46,35.48,4.76,52.91s8.16,33.92,14.65,50.09c6.16,15.33,13.69,30.09,22.49,44.08l.9-2.2h-.05c-.92.27-1.4,1.39-.9,2.22,2.68,4.39,5.68,8.63,8.67,12.82,4,5.61,8.2,11.08,12.61,16.38s8.77,9.92,13.2,14.86c3.12,3.48,6.29,6.92,9.5,10.31,15.75,16.66,32.52,32.36,50.01,47.17,10.77,9.12,21.83,17.91,33.12,26.39,10.68,8.02,21.41,15.97,31.93,24.19,13.52,10.57,27.3,21.38,38.77,34.21,6.57,7.34,11.97,15.51,14.35,24.99.13.5.25,1.01.36,1.52.05.23.1.46.15.7.03.14.04.29.08.42.2.67,0-.26.05-.24.12.05-.64,2.91-.71,3.19-.53,2.08-1.2,4.12-2,6.11-.32.79-.8,1.88-1.29,2.88-.52,1.06-1.07,2.1-1.66,3.12-1.25,2.17-2.64,4.26-4.13,6.27-3.66,4.95-8.02,9.54-12.48,13.86-6.13,5.93-12.62,11.48-19.22,16.88-20.24,16.58-41.72,31.56-62.15,47.89-19.27,15.41-37.76,31.82-55.16,49.32-6.75,6.79-13.33,13.74-19.72,20.87-4.56,5.1-9.24,10.07-13.59,15.35s-8.57,10.79-12.55,16.42c-2.79,3.95-5.61,7.94-8.14,12.07-.51.83-.02,1.95.9,2.2h.05c-.3-.72-.6-1.46-.9-2.19-12.94,20.56-23.17,42.83-30.23,66.08-7.24,23.82-11.13,48.65-11.62,73.54-.39,20.13,1.44,40.31,5.46,60.05,3.84,18.83,9.73,37.21,17.47,54.8,7.61,17.3,17.04,33.8,28.06,49.15s23.45,29.42,37.25,42.17c13.86,12.8,29.02,24.2,45.16,33.96,16.39,9.91,33.82,18.12,51.88,24.48s37.69,11.04,57.14,13.57,40.25,3.07,60.34,1.4c19.63-1.63,39.09-5.28,57.95-10.95,18.47-5.55,36.38-13.03,53.32-22.25s32.27-19.78,46.72-31.97c14.35-12.11,27.47-25.67,39.08-40.42s21.86-30.86,30.26-47.78,15.21-35.15,19.92-53.68,7.58-38.5,8.23-58.08c.75-22.67-1.32-45.43-6.18-67.58-4.83-21.98-12.45-43.33-22.55-63.43s-22.37-38.39-36.78-55.25c-6.92-8.1-14.32-15.79-22.12-23.04-1.41-1.31-3.54.8-2.12,2.12,16.08,14.95,30.39,31.77,42.48,50.11,12.17,18.46,22.09,38.39,29.39,59.26s12.19,43.43,14.07,65.87c1.75,20.77,1.14,41.77-1.92,62.39-2.79,18.83-7.59,37.35-14.29,55.16s-15.09,34.42-25.2,50.23-21.71,30.37-34.73,43.72c-12.98,13.3-27.28,25.28-42.66,35.71-15.62,10.59-32.32,19.62-49.77,26.81-17.78,7.33-36.31,12.8-55.21,16.32-19.53,3.64-39.44,5.15-59.3,4.61s-39.38-3.14-58.55-7.8-36.52-10.88-53.69-19.07-33.17-17.94-48.18-29.3c-14.83-11.22-28.52-23.99-40.79-37.96s-23.11-29.22-32.29-45.4c-9.29-16.39-16.86-33.73-22.52-51.7s-9.55-37.15-11.28-56.22c-2.06-22.79-1.28-45.88,2.45-68.46,3.96-23.98,11.19-47.42,21.46-69.45,4.85-10.39,10.36-20.47,16.47-30.18.52-.83.01-1.95-.9-2.2h-.05c.3.72.6,1.46.9,2.19,2.68-4.39,5.68-8.63,8.67-12.82,4.03-5.65,8.27-11.15,12.73-16.48s8.77-9.88,13.19-14.79c3.08-3.42,6.2-6.8,9.36-10.13,15.92-16.81,32.88-32.63,50.58-47.56,21.07-17.78,43.57-33.66,65.25-50.67,13.36-10.48,27-21.23,38.25-34.04,6.58-7.49,12.06-15.92,14.48-25.69.29-1.15.77-2.54.64-3.71-.12-1.07-.44-2.15-.71-3.19-.53-2.08-1.19-4.12-1.98-6.11-1.81-4.53-4.25-8.76-7.12-12.7-8.67-11.89-20.18-21.65-31.47-30.94-20.12-16.57-41.51-31.49-61.89-47.71-19.46-15.49-38.13-31.99-55.7-49.59-6.87-6.89-13.57-13.94-20.07-21.18-4.39-4.89-8.89-9.66-13.1-14.72-4.54-5.45-8.87-11.08-12.96-16.88-2.79-3.95-5.61-7.94-8.14-12.07l-.9,2.2h.05c.91-.26,1.42-1.39.9-2.22-9.11-14.47-16.9-29.78-23.12-45.72s-11.07-32.97-14.15-50.07-4.47-34.62-4.19-52.05c.22-13.97,1.51-27.93,3.9-41.7,2.33-13.41,5.67-26.63,10-39.53s9.52-25.15,15.66-37.11,13.08-23.3,20.85-34.15,16.28-21.04,25.51-30.6,19.12-18.45,29.6-26.59,21.76-15.62,33.4-22.21c11.71-6.62,23.91-12.4,36.47-17.25,12.82-4.95,26.01-8.94,39.42-11.94s27.62-5.09,41.62-6.06c14.31-.99,28.71-.9,43.01.26s27.71,3.32,41.29,6.52,26.48,7.29,39.22,12.38,24.7,10.95,36.37,17.73c11.51,6.69,22.56,14.21,32.99,22.49s20.27,17.33,29.41,27.03,17.53,20.01,25.14,30.91c7.61,10.91,14.43,22.37,20.37,34.27s11.11,24.52,15.24,37.32,7.4,26.37,9.57,39.88c2.21,13.77,3.32,27.72,3.37,41.67.06,16.42-1.34,32.84-4.27,49-2.86,15.77-7.13,31.28-12.75,46.29s-12.34,28.93-20.34,42.46-17.11,26.29-27.29,38.21c-5.08,5.95-10.42,11.69-15.98,17.19-2.67,2.64-5.46,5.17-8.06,7.88-2.38,2.49-4.79,4.95-7.22,7.4-11.1,11.17-22.64,21.89-34.54,32.2-14.35,12.43-29.27,24.12-44.48,35.46-13.17,9.82-26.29,19.73-38.98,30.15-8.38,6.88-16.65,13.98-24.07,21.9-5,5.34-9.67,11.14-13,17.68-1.38,2.71-2.53,5.55-3.41,8.47-.42,1.38-.77,2.78-1.07,4.19-.19.92-.28,1.69-.09,2.62.15.72.31,1.44.48,2.15,1.48,5.99,4.1,11.63,7.51,16.76,4.64,6.96,10.47,13.08,16.53,18.82,9.18,8.7,19.05,16.66,29,24.45,14.48,11.35,29.44,22.09,43.95,33.4,14.02,10.94,27.65,22.39,40.78,34.39,10.47,9.57,20.63,19.5,30.41,29.78,1.33,1.4,3.45-.72,2.12-2.12Z"/>
            </g>
          </g>
          <g>
            <g>
              <g>
                <g>
                  <path class="cls-4" d="M1699.54,519.02v100.18h-857.97c-.58-6.48-.99-14.47-1.17-22.99,0-.82,0-1.69-.06-2.51-.23-12.72-.12-26.49.12-38.8.06-1.34.06-2.68.06-3.97.23-8.23.47-15.58.64-21.12.06-1.28.06-2.45.12-3.56.18-4.55.29-7.23.29-7.23,0-6.07,12.02-11.84,33.72-17.15,17.91-4.32,42.47-8.34,72.35-11.84,78.65-9.22,194.12-15.05,322.88-15.05,157.36,0,294.94,8.69,369.56,21.7,10.56,1.81,19.84,3.73,27.71,5.72,20.48,5.13,31.74,10.74,31.74,16.63Z"/>
                  <path d="M1698.04,519.02v96.06c0,1.27-.18,2.68,0,3.94,0,.05,0,.12,0,.17l1.5-1.5h-35.24c-4.86,0-9.72,0-14.58,0-5.61,0-11.21,0-16.82,0h-111.09c-8.9,0-17.81,0-26.71,0s-18.48,0-27.72,0h-625.81l1.5,1.5c-1.62-18.16-1.48-36.5-1.26-54.71.11-9.07.33-18.14.62-27.21.12-3.99.23-7.98.39-11.96.09-2.25,0-4.59.29-6.82-.04.3.03-.11.06-.2.04-.16.09-.31.14-.47.02-.07.23-.52.42-.83.42-.69.89-1.19,1.54-1.79,1.69-1.56,3.75-2.72,5.8-3.74,6.72-3.37,14.12-5.44,21.37-7.32,14.46-3.74,29.25-6.25,44.01-8.47,15.79-2.38,31.65-4.29,47.54-5.95,13.73-1.44,27.47-2.69,41.23-3.8,15.25-1.23,30.51-2.3,45.77-3.24,16.59-1.02,33.19-1.88,49.79-2.62,17.76-.79,35.52-1.43,53.29-1.94,18.75-.54,37.51-.94,56.27-1.21,19.57-.28,39.14-.42,58.72-.43,19.59,0,39.18.12,58.77.39s37.58.64,56.36,1.17c17.81.5,35.62,1.13,53.42,1.9,16.66.72,33.31,1.58,49.95,2.58,15.33.93,30.65,1.98,45.96,3.2,13.83,1.1,27.65,2.35,41.45,3.78,12.12,1.26,24.22,2.65,36.29,4.28,11.11,1.5,22.2,3.19,33.23,5.19,8.49,1.54,16.94,3.29,25.29,5.48,7.24,1.9,14.69,3.99,21.33,7.54,1.91,1.02,3.81,2.17,5.31,3.74.53.56.88,1.01,1.25,1.73.22.44.38,1.14.39,1.58.03,1.93,3.03,1.93,3,0-.06-4.15-3.91-7.01-7.15-8.91-6.19-3.63-13.3-5.79-20.18-7.71-14.47-4.03-29.32-6.66-44.15-8.98-11.23-1.76-22.5-3.26-33.79-4.61-13.06-1.56-26.14-2.91-39.24-4.12-14.64-1.35-29.3-2.52-43.97-3.55-16.09-1.13-32.2-2.1-48.31-2.94-17.36-.9-34.73-1.66-52.11-2.28-18.53-.67-37.07-1.18-55.61-1.57s-38.74-.67-58.11-.79-40.01-.12-60.02.03-38.66.43-57.98.85-36.81.94-55.21,1.62c-17.31.64-34.61,1.41-51.91,2.33-16.09.86-32.18,1.85-48.25,3-14.57,1.05-29.12,2.23-43.66,3.59-13.94,1.31-27.86,2.78-41.76,4.5-16.82,2.09-33.63,4.51-50.27,7.79-7.23,1.42-14.43,3.01-21.53,4.98s-13.8,4.03-20,7.5c-3.27,1.83-7.33,4.58-7.75,8.67-.23,2.28-.21,4.61-.29,6.89-.16,3.99-.26,7.98-.39,11.96-.29,9.23-.51,18.45-.62,27.68s-.26,19.03.04,28.52c.27,8.59.47,17.16,1.23,25.73.07.81.63,1.5,1.5,1.5h351.37c10.4,0,20.8,0,31.2,0s20.86,0,31.3,0h444.11c.81,0,1.5-.69,1.5-1.5v-87.84c0-4.04.17-8.13,0-12.17,0-.06,0-.11,0-.17,0-1.93-3-1.93-3,0Z"/>
                </g>
                <g>
                  <g>
                    <path class="cls-11" d="M926.46,553.27c12.37-1.52,24.68-3.5,37.17-5.13-11.73,4.67-24.16,7.41-36.7,8.98-12.49,1.63-25.15,2.45-37.81,2.39-12.6.06-25.26-1.05-37.75-2.8-3.68-.53-7.29-1.11-10.91-1.81.06-1.34.06-2.68.06-3.97,3.79.64,7.58,1.22,11.38,1.75,12.37,1.63,24.8,2.39,37.28,2.57,12.43.12,24.91-.52,37.28-1.98Z"/>
                    <path class="cls-11" d="M1699.54,531.22v2.39c-13.59-2.51-27.13-4.96-40.73-7.23-18.67-3.21-37.4-6.13-56.19-8.52-37.63-4.78-75.5-8.17-113.37-11.9-75.62-7.12-151.35-14.06-227.26-13.65-75.91.35-151.64,7.06-227.43,13.13-37.92,3.03-75.73,6.36-113.48,10.79-18.85,2.22-37.69,4.73-56.42,7.7-7.99,1.4-15.99,3.15-23.51,5.89.06-1.28.06-2.45.12-3.56,7.41-2.68,15.11-4.38,22.81-5.78,18.84-3.15,37.63-5.78,56.54-8.17,37.75-4.73,75.67-8.29,113.54-11.67,75.73-6.48,151.52-13.89,227.78-14.53,76.26-.7,152.34,5.6,227.96,13.3,37.81,3.91,75.67,7.47,113.48,12.43,18.9,2.51,37.75,5.25,56.48,9.16,13.36,2.8,26.61,6.13,39.68,10.21Z"/>
                  </g>
                  <path class="cls-11" d="M929.66,533.8c18.43-4.2,37.22-6.06,56.02-6.87,18.8-.64,37.68-.22,56.38,2.58-18.81,1.82-37.47,2.46-56.16,3.25-18.69.62-37.35,1.4-56.24,1.04Z"/>
                  <path class="cls-11" d="M1051.4,545.49c17.41-5.33,35.36-8.1,53.35-9.99,18-1.92,36.06-3.39,54.16-3.94,36.22-1.25,72.4-.16,108.56,3.4,9.07,1.01,18.06,2.45,27.01,4.4,4.48,1,8.95,2.11,13.45,3.81,2.27.97,4.47,1.64,7.02,4.02.61.71,1.42,1.61,1.62,3.32.12.83-.09,1.64-.37,2.41-.29.55-.73,1.27-1.07,1.56-1.52,1.48-2.82,1.97-4.05,2.48-4.9,1.78-9.42,2.28-14.04,2.87-4.58.52-9.18.77-13.66,1.03l-27.09,1.31c-18.09.64-36.26.59-54.39-.65-9.06-.72-18.1-1.74-27.03-3.49-4.46-.87-8.91-1.81-13.31-2.91-4.35-1.19-8.92-2.37-12.75-4.88,4.29,1.5,8.7,2.06,13.2,2.44,4.48.49,8.94.97,13.41,1.31,8.95.65,17.88,1.28,26.83,1.63,17.89.9,35.84.48,53.8-.12l26.97-1.21c4.52-.23,8.94-.43,13.33-.88,4.31-.47,8.84-1.05,12.44-2.35.86-.29,1.65-.79,1.74-.89.06-.1-.26.37-.23.95.13.56.19.52.08.39-.73-.78-2.84-1.83-4.71-2.54-3.93-1.53-8.23-2.66-12.54-3.66-8.65-1.97-17.49-3.49-26.33-4.54-35.67-3.29-71.78-3.95-107.66-2.69-17.95.73-35.9,1.69-53.81,3.34-17.91,1.67-35.75,3.59-53.94,4.09Z"/>
                  <g>
                    <path class="cls-11" d="M1699.54,556.07v6.01l-17.15-4.03c-19.96-4.38-39.97-8.52-60.1-12.02-40.26-7.18-80.81-12.54-121.42-17.04-40.67-4.43-81.45-7.64-122.29-10.15-20.42-1.28-40.84-2.33-61.26-3.33-10.21-.35-20.42-1.05-30.69-1.69-10.21-.99-20.42-1.98-30.57-3.5,41.02-1.28,81.92,1.4,122.82,3.38,40.96,2.22,81.8,5.25,122.64,9.39,40.78,4.14,81.39,9.86,121.83,17.04,20.19,3.56,40.26,7.7,60.33,12.14l15.87,3.79Z"/>
                    <path class="cls-11" d="M1699.54,590.44v5.83c-9.74.41-19.55.52-29.41-.12-10.38-.76-20.6-2.33-30.75-4.32-20.25-3.97-39.91-9.39-59.98-13.01-20.01-3.85-40.26-6.77-60.5-9.74-40.43-5.95-81.33-11.49-120.83-23.46l-7.35-2.22-.53-.18c-.29-.58-.64.93-1.75-2.45.53-2.16,1.63-2.16,1.63-2.22.82-.23,1.05-.23,1.46-.29l2.04-.23,3.91-.17c5.19-.23,10.33-.29,15.46-.29,10.27,0,20.54.23,30.81.7,20.42,1.23,41.31,1.81,60.85,9.04-20.48-1.75-40.61-4.08-61.03-4.78-10.21-.41-20.42-.58-30.63-.47-3.27,0-6.53.06-9.74.12,37.92,10.85,77.25,15.87,116.52,21.35,20.25,2.8,40.55,5.83,60.74,9.63,20.3,3.68,40.14,9.1,60.04,13.01,9.98,1.98,20.01,3.5,30.05,4.2,9.57.64,19.31.47,29,.06Z"/>
                  </g>
                  <path class="cls-11" d="M1051.55,565.41c-9.86,1.75-19.72,3.09-29.58,4.61l-29.58,4.03c-19.72,2.68-39.44,4.9-59.22,7.06-19.78,2.1-39.44,4.96-58.99,8.17-9.8,1.58-19.49,3.56-29.17,5.89-1.52.35-3.09.7-4.61,1.05,0-.82,0-1.69-.06-2.51,1.28-.41,2.63-.88,3.91-1.28,9.57-2.92,19.31-5.37,29.06-7.58,19.55-4.26,39.33-7.23,59.1-9.51,19.84-2.04,39.68-4.14,59.51-5.72l29.81-2.45c9.92-.58,19.84-1.34,29.82-1.75Z"/>
                </g>
                <g>
                  <path class="cls-5" d="M1640.08,496.67c-111.21,8.11-223.17-13.24-335.08-16.39-43.23-1.23-86.53.29-129.76,1.81-75.85,2.63-151.76,5.31-227.61,7.94,78.65-9.22,194.12-15.05,322.88-15.05,157.36,0,294.94,8.69,369.56,21.7Z"/>
                  <path class="cls-3" d="M1699.54,519.02v100.18h-857.97c-3.03-32.26,0-100.18,0-100.18,0-6.07,12.02-11.84,33.72-17.15,5.78,22.64,24.27,42.83,46.09,53.04,30.11,14.12,64.71,13.71,97.96,12.25,149.89-6.42,300.13-27.89,449.38-12.49,30.46,3.15,60.97,7.82,91.54,6.3,30.63-1.52,61.9-9.86,85.19-29.76,9.28-7.88,16.98-17.85,22.35-28.82,20.48,5.13,31.74,10.74,31.74,16.63Z"/>
                </g>
              </g>
              <g>
                <ellipse class="cls-9" cx="1270.54" cy="619.2" rx="429" ry="45.83"/>
                <path d="M1698.04,619.2c0,.15-.02.3-.02.45,0,.41.11-.36-.02.13-.09.31-.17.62-.27.92-.11.35.17-.3-.05.11-.09.16-.16.32-.25.47-.19.33-.4.64-.63.94.29-.4-.02.02-.15.16-.14.16-.28.31-.42.47-.3.32-.62.61-.95.9-.17.15-.35.29-.52.44-.08.07-.17.14-.26.2.38-.3,0,0-.1.07-.41.3-.82.59-1.24.87-2.11,1.38-4.38,2.5-6.68,3.51-.69.3-.9.39-1.76.73-.73.29-1.47.58-2.21.85-1.59.59-3.19,1.14-4.8,1.66-8.18,2.65-16.56,4.64-24.97,6.41-11.11,2.33-22.31,4.22-33.53,5.89-13.61,2.03-27.28,3.73-40.96,5.23-15.94,1.75-31.9,3.24-47.88,4.54-17.94,1.46-35.9,2.69-53.87,3.74-19.67,1.15-39.35,2.09-59.04,2.86-21.13.82-42.26,1.44-63.4,1.89-22.31.47-44.63.74-66.95.83s-45.64,0-68.46-.3-43.47-.74-65.2-1.4c-20.42-.62-40.83-1.41-61.23-2.41-18.82-.92-37.64-2.01-56.44-3.33-16.96-1.19-33.92-2.55-50.85-4.17-14.84-1.41-29.66-3.02-44.44-4.92-12.39-1.59-24.76-3.39-37.06-5.57-9.77-1.73-19.52-3.68-29.13-6.16-3.8-.98-7.57-2.05-11.3-3.27-1.6-.52-3.18-1.07-4.76-1.67s-2.79-1.08-3.98-1.61c-2.26-1-4.48-2.11-6.54-3.48-.43-.28-.84-.58-1.25-.89-.16-.12.26.21-.02-.02-.08-.07-.17-.14-.25-.2-.18-.15-.36-.3-.54-.46-.33-.3-.65-.6-.95-.93-.13-.14-.24-.28-.37-.41-.06-.07-.11-.14-.17-.21-.07-.08.21.3,0,0s-.41-.59-.58-.91c-.08-.15-.15-.3-.22-.45-.15-.29.1.26.04.1-.03-.09-.07-.17-.1-.26-.09-.3-.16-.59-.23-.9-.05-.19,0,.39,0-.1,0-.16-.01-.32-.01-.48,0-.15.02-.3.03-.45.01-.18-.09.44-.02.13.02-.09.03-.18.05-.26.08-.32.18-.62.29-.92-.18.48-.02.04.08-.14.09-.16.17-.32.26-.47.09-.14.18-.28.27-.42.16-.25.35-.46.15-.22.54-.65,1.13-1.26,1.78-1.81.16-.14.33-.27.5-.41.31-.25-.22.16.06-.05.1-.08.2-.15.31-.23.44-.32.88-.62,1.34-.92,2.11-1.35,4.38-2.46,6.68-3.45.49-.21.28-.12.75-.32.36-.15.73-.3,1.09-.44.74-.29,1.49-.58,2.23-.85,1.63-.6,3.27-1.16,4.91-1.69,3.76-1.21,7.56-2.26,11.39-3.24,9.72-2.47,19.56-4.42,29.44-6.14,12.4-2.17,24.86-3.96,37.34-5.55,14.92-1.9,29.88-3.5,44.86-4.91,17.01-1.6,34.04-2.96,51.08-4.14,18.87-1.3,37.75-2.39,56.65-3.3,20.46-.98,40.93-1.76,61.4-2.37,21.78-.64,43.56-1.09,65.34-1.35,22.76-.28,45.52-.36,68.27-.25s44.56.39,66.84.87,42.32,1.1,63.48,1.94c19.63.78,39.24,1.73,58.85,2.9,17.89,1.06,35.78,2.3,53.65,3.77,15.9,1.31,31.78,2.8,47.63,4.57,13.59,1.51,27.15,3.22,40.67,5.26,11.08,1.67,22.14,3.56,33.11,5.9,8.3,1.77,16.59,3.76,24.65,6.43,1.6.53,3.2,1.09,4.78,1.69s2.55,1,3.88,1.59c2.23,1,4.43,2.11,6.45,3.49.21.14.41.29.62.43.13.09.72.55.34.25.34.27.68.55,1.01.85.3.27.59.55.86.85.13.14.26.29.39.44.36.41-.06-.13.15.19.19.28.39.56.56.86.08.15.15.3.23.45.19.36-.08-.34.05.11.09.3.17.6.25.9.13.45,0-.32.01.08,0,.16.02.32.02.48.01,1.93,3.01,1.93,3,0-.02-3.7-3.04-6.46-5.87-8.4-4.68-3.22-10.22-5.24-15.57-7.03-8.11-2.71-16.45-4.72-24.8-6.5-11.03-2.35-22.16-4.25-33.32-5.94-13.68-2.07-27.4-3.8-41.15-5.33-16.02-1.79-32.07-3.29-48.13-4.62-18.08-1.49-36.17-2.74-54.27-3.81-19.78-1.17-39.56-2.12-59.36-2.9-21.26-.84-42.53-1.47-63.8-1.92-22.55-.48-45.1-.76-67.65-.85s-45.8,0-68.7.3-43.92.75-65.87,1.42c-20.54.63-41.07,1.43-61.59,2.44-18.92.93-37.82,2.04-56.72,3.38-17.08,1.21-34.15,2.59-51.19,4.24-14.89,1.44-29.77,3.07-44.61,5-12.45,1.62-24.88,3.45-37.24,5.67-9.71,1.74-19.4,3.71-28.94,6.23-6.86,1.81-13.71,3.88-20.18,6.83-3.87,1.77-8.16,3.98-10.64,7.59-1.89,2.74-1.76,6.04.21,8.69,2.65,3.58,7.01,5.78,10.98,7.55,6.59,2.93,13.55,5,20.51,6.81,9.69,2.52,19.52,4.49,29.37,6.23,12.46,2.21,24.99,4.02,37.54,5.64,14.93,1.92,29.9,3.55,44.88,4.97,17.06,1.63,34.14,3,51.23,4.19,18.96,1.32,37.93,2.42,56.9,3.34,20.65,1,41.31,1.8,61.97,2.41,22,.66,44,1.11,66.01,1.38,22.92.28,45.84.36,68.76.26s44.87-.4,67.29-.89c21.3-.47,42.59-1.11,63.87-1.96,19.73-.79,39.46-1.75,59.17-2.94,18.03-1.08,36.05-2.34,54.05-3.84,15.92-1.33,31.84-2.84,47.72-4.63,13.66-1.54,27.3-3.28,40.89-5.35,11.09-1.7,22.16-3.61,33.13-5.98,8.24-1.79,16.46-3.8,24.45-6.52,5.23-1.78,10.66-3.81,15.19-7.05,2.67-1.92,5.45-4.58,5.47-8.12.01-1.93-2.99-1.93-3,0Z"/>
              </g>
            </g>
            <g>
              <g>
                <path class="cls-4" d="M1601.46,625.74v77.25c0-19.55-148.26-35.36-331.05-35.36s-331.05,15.81-331.05,35.36c-.52-5.43-.82-12.25-.93-19.55,0-.35,0-.7-.06-1.11-.06-4.78-.06-9.8-.06-14.76,0-.99,0-1.93.06-2.86,0-3.09.06-6.13.06-9.04.06-2.8.12-5.48.17-8.05.06-.41.06-.82.06-1.17.06-2.74.18-5.31.23-7.64.23-7.88.47-13.07.47-13.07,0-18.79,148.2-34.02,331.05-34.02s331.05,15.23,331.05,34.02Z"/>
                <path d="M1599.96,625.74v77.25h3c-.02-2.96-2.37-5.17-4.63-6.74-3.62-2.51-7.92-4.08-12.07-5.47-6.21-2.08-12.6-3.63-19-5-8.53-1.83-17.13-3.3-25.76-4.6-10.59-1.6-21.22-2.95-31.87-4.13-12.36-1.38-24.74-2.54-37.13-3.56-13.88-1.14-27.77-2.1-41.67-2.93-15.31-.91-30.63-1.65-45.95-2.25-16.46-.65-32.93-1.14-49.41-1.49-17.4-.37-34.81-.59-52.21-.66s-35.32,0-52.98.23c-16.95.22-33.91.58-50.85,1.09-15.91.48-31.81,1.11-47.71,1.89-14.58.72-29.16,1.57-43.73,2.6-13.18.93-26.35,2-39.5,3.27-11.49,1.11-22.97,2.37-34.42,3.86-9.65,1.26-19.28,2.67-28.86,4.39-7.51,1.35-15,2.87-22.38,4.83-5.29,1.4-10.58,3.01-15.56,5.29-3.04,1.39-6.34,3.14-8.28,5.96-.69,1-1.12,2.19-1.12,3.41h3c-.82-8.57-.99-17.22-1.03-25.82-.05-9.32.03-18.63.24-27.95.17-7.43.44-14.87.74-22.3.02-.41.04-.82.05-1.23,0-.12.02-.24.02-.36-.02.44-.05.21.02-.03.04-.11.08-.24.1-.36.1-.45-.09.14.02-.07.13-.25.26-.49.41-.73.05-.08.33-.46.15-.22-.17.22.14-.17.21-.25.24-.26.48-.51.74-.75.12-.11.25-.22.37-.32.07-.06.14-.11.21-.17.29-.24-.16.12.01-.01.34-.26.69-.5,1.05-.74.79-.52,1.62-.98,2.47-1.41.48-.24.96-.47,1.44-.7.25-.11.5-.23.75-.33.13-.06.26-.11.38-.17.18-.08-.12.05.21-.09,5.63-2.33,11.56-3.91,17.48-5.32,8.43-2,16.96-3.54,25.51-4.9,10.83-1.72,21.71-3.13,32.6-4.36,12.95-1.47,25.94-2.69,38.93-3.76,14.87-1.22,29.76-2.23,44.65-3.09,16.39-.94,32.79-1.7,49.19-2.31,17.78-.66,35.57-1.14,53.36-1.47,18.75-.35,37.51-.52,56.27-.54,18.92-.02,37.85.13,56.77.45,17.9.3,35.8.76,53.7,1.39,16.54.58,33.08,1.32,49.61,2.23,15,.83,30,1.82,44.97,3,13.25,1.05,26.49,2.26,39.7,3.71,11.12,1.22,22.22,2.61,33.27,4.31,8.77,1.35,17.52,2.87,26.17,4.83,6.22,1.41,12.45,2.99,18.4,5.3,1.28.5,1.75.69,3,1.28.92.43,1.82.89,2.69,1.4.38.23.76.46,1.13.71.17.11.33.23.5.34.2.14.51.39.25.18.55.44,1.05.92,1.53,1.44.3.32.02,0,.08.1.08.12.17.23.24.35.14.23.26.46.38.71-.24-.5.03.17.1.4.09.29.04.27.01,0,.01.13.02.25.02.38.01,1.93,3.01,1.93,3,0-.02-3.19-2.85-5.45-5.33-6.97-4.3-2.63-9.27-4.24-14.08-5.66-7.31-2.16-14.79-3.75-22.28-5.15-9.97-1.87-20-3.35-30.05-4.67-12.21-1.6-24.45-2.93-36.71-4.08-14.22-1.34-28.47-2.46-42.73-3.42-15.89-1.07-31.79-1.95-47.7-2.67-17.41-.79-34.83-1.4-52.26-1.85-18.6-.48-37.2-.79-55.8-.94-19.27-.15-38.53-.13-57.8.06-18.49.18-36.97.53-55.45,1.05-17.27.49-34.54,1.13-51.8,1.95-15.79.75-31.57,1.66-47.34,2.77-14.03.99-28.05,2.13-42.05,3.51-12.04,1.18-24.07,2.54-36.06,4.17-9.72,1.32-19.43,2.83-29.06,4.72-7.17,1.41-14.34,3-21.31,5.2-4.44,1.4-9.13,2.99-12.99,5.68-1.32.92-2.59,1.99-3.44,3.37-.8,1.3-.86,2.64-.92,4.12-.7,16.9-1.07,33.81-.98,50.72.05,8.44.23,16.94,1.03,25.35.18,1.89,2.99,1.97,3,0,0-.12,0-.23.02-.34.02-.33-.12.37,0-.02.07-.24.13-.48.21-.71.08-.26-.2.35.02-.04.06-.11.12-.23.18-.34s.14-.23.21-.34c.05-.08.34-.47.16-.24s.12-.14.18-.21c.11-.12.22-.24.33-.36.23-.24.48-.47.74-.7.13-.11.27-.22.4-.33.36-.3-.17.11.23-.17.32-.23.63-.45.96-.66,1.63-1.06,3.39-1.92,5.17-2.7.11-.05.23-.1.34-.15.24-.1-.18.07.17-.07.26-.11.52-.21.78-.32.57-.23,1.14-.45,1.71-.66,1.25-.46,2.5-.89,3.77-1.3,6.31-2.04,12.78-3.57,19.27-4.93,8.57-1.79,17.2-3.25,25.86-4.54,10.47-1.56,20.99-2.86,31.51-4.02,12.27-1.35,24.56-2.49,36.85-3.49,13.87-1.13,27.76-2.08,41.65-2.89,15.14-.88,30.28-1.61,45.43-2.2,16.33-.64,32.67-1.12,49.02-1.46,17.17-.36,34.34-.57,51.52-.64s35,0,52.49.22c16.81.21,33.61.57,50.41,1.07,15.72.47,31.43,1.08,47.13,1.84,14.56.71,29.12,1.55,43.66,2.57,13.07.91,26.13,1.96,39.17,3.2,11.44,1.09,22.86,2.32,34.26,3.78,9.59,1.23,19.17,2.62,28.69,4.3,7.54,1.33,15.07,2.83,22.49,4.74,2.94.75,5.86,1.58,8.74,2.51,1.26.41,2.51.84,3.74,1.3.57.21,1.14.43,1.7.66.71.29.66.26,1.34.56,1.75.77,3.47,1.63,5.06,2.68.33.22.66.45.98.69.21.16-.24-.19-.04-.03.07.06.15.12.22.18.13.11.26.22.39.33.25.22.49.45.72.7.1.11.2.23.3.34.25.28.16.21.1.11.16.22.31.44.44.68.06.11.11.23.18.34.17.31-.1-.35.02.04.06.22.12.44.19.66.13.41-.02-.27,0,0,0,.12.02.25.02.37.01,1.93,3,1.93,3,0v-77.25c0-1.93-3-1.93-3,0Z"/>
              </g>
              <g>
                <path class="cls-11" d="M1601.46,638.22v4.38c-5.66-1.81-11.2-3.91-16.98-5.54-6.77-2.1-13.54-4.2-20.48-5.89-6.83-1.93-13.77-3.56-20.71-5.02-27.77-6.13-56.01-9.98-84.43-11.61-28.36-1.63-56.83-1.63-85.24.23-14.18.93-28.36,2.39-42.48,4.08-12.25,1.52-24.62,3.62-35.18,9.1,6.19,2.8,13.54,3.62,20.83,3.85,9.1.23,18.55.29,27.77.82,18.61.88,37.05,2.51,55.55,3.79,18.44,1.34,36.87,2.28,55.31,1.69,9.16-.18,18.38-.76,27.48-1.93,7.88-.93,15.93-1.93,22.99-4.9-7.35-2.92-15.64-3.5-23.86-4.08l-28.59-1.52c-19.08-.88-38.16-1.23-57.3-2.45,9.57-.82,19.14-1.28,28.71-1.4,9.57-.17,19.14.06,28.71.29,9.57.23,19.14.64,28.71,1.23,9.51.53,19.6,1.58,28.53,6.42l2.8,1.46-2.8,1.52-.06.06c-8.58,4.78-18.2,6.07-27.31,7.35-9.28,1.34-18.55,2.1-27.89,2.51-18.61.7-37.28-.12-55.78-1.28-18.5-1.11-36.99-2.63-55.43-3.38-9.28-.41-18.32-.47-27.71-.58-9.34-.29-19.55-1.28-28.18-7l-3.68-2.45,3.73-2.39c12.78-8.28,27.77-10.74,41.95-12.54,14.24-1.75,28.47-3.21,42.83-4.14,28.59-1.81,57.35-2.1,86-.12,28.65,1.93,57.12,6.13,85.13,12.6,7,1.58,13.94,3.27,20.83,5.25,6.94,1.81,13.83,4.03,20.65,6.19,5.25,1.63,10.44,3.44,15.58,5.43Z"/>
                <path class="cls-11" d="M1601.46,676.44v.64c-39.73-5.08-79.52-10.15-119.32-14.24-23.05-2.22-46.09-4.26-69.14-5.66-23.1-1.4-46.21-1.98-69.32-2.39l-69.49-1.34c-11.61-.29-23.22-.64-34.83-1.17-11.49-.58-23.4-.88-35.01-4.43-2.86-.88-5.72-1.98-8.46-3.33-1.34-.7-2.63-1.4-3.97-2.27-1.34-.93-2.92-2.1-3.85-4.03-.93-1.81-.99-4.2-.29-6.01.64-1.87,1.75-3.27,2.92-4.49,2.33-2.27,5.13-3.97,7.88-5.13,10.68-4.73,21.59-8.93,32.67-12.49,22.17-7.06,45.16-11.73,68.32-13.13-22.81,3.85-45.39,9.1-67.16,16.69-10.91,3.73-21.53,8.05-31.97,12.89-2.51,1.11-4.78,2.57-6.48,4.38-1.81,1.87-2.45,3.73-1.63,5.19.58,1.4,3.33,2.8,5.72,4.03,2.51,1.17,5.08,2.16,7.76,2.92,10.74,3.03,22.23,3.15,33.78,3.62,11.55.47,23.16.76,34.72,1.05l69.49,1.23c46.33,1.17,92.77,4.32,138.8,10.04,22.99,2.8,45.98,6.01,68.85,9.39l50,8.05Z"/>
                <path class="cls-11" d="M1185.45,611.91c-.12.47-.41.88-.7,1.23-.52.52-.41.35-.7.58-.35.23-.47.29-.7.41l-1.11.58c-10.91,4.67-21.65,8.23-32.56,12.08-10.85,3.73-21.76,7.35-32.67,10.85-21.88,7-43.82,13.89-66.11,19.6-22.29,6.07-45.1,9.22-67.27,14.7-15.17,3.38-30.28,7.24-45.22,11.49,0-.35,0-.7-.06-1.11,14.7-4.84,29.58-9.16,44.58-13.19,22.23-6.07,44.93-9.69,66.81-16.22,21.94-6.36,43.88-13.13,65.58-20.3,17.91-6.01,36.12-12.08,53.56-18.85h-1.28l-17.15.12c-11.44.23-22.87.58-34.31,1.11-22.87,1.11-45.68,2.98-68.38,5.66-37.46,3.79-73.52,14.64-109.17,26.96.06-.41.06-.82.06-1.17,13.59-5.37,27.31-10.44,41.19-15,21.88-7.12,44.58-12.08,67.33-15.23,22.81-3.38,45.74-5.19,68.73-6.48,11.44-.64,22.93-1.11,34.42-1.4l17.27-.29,8.64-.06h6.19c.12,0,.93.06,1.34.23,1.11-.23,2.45,3.68,1.69,3.68Z"/>
                <path class="cls-11" d="M1108.38,625.97l-48.48,10.62c-16.1,3.68-32.21,7.35-48.19,11.38-16.05,3.91-31.97,8.23-47.9,12.49l-25.5,7.12c0-.99,0-1.93.06-2.86,7.99-3.03,16.05-5.83,24.15-8.52,15.7-5.31,31.68-9.8,47.78-13.89,16.1-3.91,32.32-7.47,48.72-10.15,8.17-1.28,16.39-2.57,24.62-3.68,8.23-.93,16.45-1.93,24.74-2.51Z"/>
              </g>
              <path class="cls-5" d="M1601.46,625.74v7.41c-86.82-25.38-179.35-22.46-270.02-25.61-67.16-2.33-134.37-8.17-201.58-6.24-65.29,1.87-131.22,11.38-190.97,37.52.23-7.88.47-13.07.47-13.07,0-18.79,148.2-34.02,331.05-34.02s331.05,15.23,331.05,34.02Z"/>
              <path class="cls-3" d="M1601.46,651.64v51.34c0-19.55-148.26-35.36-331.05-35.36s-331.05,15.81-331.05,35.36c-.52-5.43-.82-12.25-.93-19.55,0-.35,0-.7-.06-1.11-.06-4.78-.06-9.8-.06-14.76,0-.99,0-1.93.06-2.86,0-3.09.06-6.13.06-9.04,20.95,10.74,45.33,14.41,69.02,14.06,27.19-.41,54.03-5.66,80.93-9.63,123.17-17.97,248.61-8.05,372.54,4.2,47.44,4.67,99.01,8.69,140.55-12.66Z"/>
            </g>
            <g>
              <g>
                <g>
                  <path class="cls-4" d="M840.21,2020.79v-100.18h857.97c.58,6.48.99,14.47,1.17,22.99,0,.82,0,1.69.06,2.51.23,12.72.12,26.49-.12,38.8-.06,1.34-.06,2.68-.06,3.97-.23,8.23-.47,15.58-.64,21.12-.06,1.28-.06,2.45-.12,3.56-.18,4.55-.29,7.23-.29,7.23,0,6.07-12.02,11.84-33.72,17.15-17.91,4.32-42.48,8.34-72.35,11.84-78.65,9.22-194.12,15.05-322.89,15.05-157.36,0-294.94-8.69-369.56-21.7-10.56-1.81-19.84-3.73-27.71-5.72-20.48-5.13-31.74-10.74-31.74-16.63Z"/>
                  <path d="M841.71,2020.79v-96.06c0-1.27.18-2.68,0-3.94,0-.05,0-.12,0-.17l-1.5,1.5h857.97l-1.5-1.5c1.62,18.16,1.49,36.5,1.26,54.71-.11,9.07-.34,18.14-.62,27.21-.12,3.99-.23,7.98-.39,11.97-.09,2.25,0,4.59-.29,6.82.04-.3-.03.11-.06.2-.04.16-.09.31-.14.46-.02.07-.23.52-.42.83-.39.65-.9,1.2-1.54,1.79-1.69,1.56-3.75,2.72-5.8,3.74-6.72,3.37-14.12,5.44-21.37,7.32-14.46,3.74-29.25,6.25-44.01,8.47-15.79,2.38-31.65,4.29-47.54,5.95-13.73,1.44-27.47,2.69-41.23,3.8-15.25,1.23-30.51,2.3-45.77,3.24-16.59,1.02-33.19,1.88-49.79,2.62-17.76.79-35.52,1.43-53.29,1.94-18.75.54-37.51.94-56.27,1.21s-39.14.42-58.72.43c-19.59,0-39.18-.12-58.77-.39-18.79-.26-37.58-.64-56.36-1.17-17.81-.5-35.62-1.13-53.42-1.9-16.66-.72-33.31-1.58-49.95-2.58-15.33-.93-30.65-1.98-45.96-3.2-13.83-1.1-27.65-2.35-41.45-3.78-12.12-1.26-24.22-2.65-36.29-4.28-11.11-1.5-22.2-3.19-33.23-5.19-8.49-1.54-16.94-3.29-25.29-5.48-7.24-1.9-14.69-3.99-21.33-7.54-1.91-1.02-3.81-2.17-5.31-3.74-.53-.56-.88-1.01-1.25-1.73-.22-.44-.38-1.14-.39-1.58-.03-1.93-3.03-1.93-3,0,.06,4.15,3.91,7.01,7.15,8.91,6.19,3.63,13.3,5.79,20.18,7.71,14.47,4.03,29.32,6.66,44.15,8.98,11.23,1.76,22.5,3.26,33.79,4.61,13.06,1.56,26.14,2.91,39.24,4.12,14.64,1.35,29.3,2.52,43.97,3.55,16.09,1.13,32.2,2.1,48.31,2.94,17.36.9,34.73,1.66,52.11,2.28,18.53.67,37.07,1.18,55.61,1.57,19.37.4,38.74.67,58.11.79s40.01.12,60.02-.03,38.66-.43,57.98-.85,36.81-.94,55.21-1.62c17.31-.64,34.61-1.41,51.91-2.33,16.09-.86,32.18-1.85,48.25-3,14.57-1.05,29.12-2.23,43.66-3.59s27.86-2.78,41.76-4.5c16.82-2.09,33.63-4.51,50.27-7.79,7.23-1.42,14.43-3,21.53-4.98s13.8-4.03,20-7.5c3.27-1.83,7.33-4.58,7.75-8.67.23-2.28.21-4.61.3-6.89.16-3.99.26-7.98.39-11.97.29-9.23.51-18.45.62-27.68s.27-19.03-.04-28.52c-.27-8.59-.47-17.16-1.23-25.73-.07-.81-.63-1.5-1.5-1.5h-857.97c-.81,0-1.5.69-1.5,1.5v87.84c0,4.04-.17,8.13,0,12.17,0,.06,0,.11,0,.17,0,1.93,3,1.93,3,0Z"/>
                </g>
                <g>
                  <g>
                    <path class="cls-11" d="M1613.29,1986.54c-12.37,1.52-24.68,3.5-37.17,5.13,11.73-4.67,24.15-7.41,36.7-8.99,12.49-1.63,25.15-2.45,37.81-2.39,12.6-.06,25.26,1.05,37.75,2.8,3.68.52,7.29,1.11,10.91,1.81-.06,1.34-.06,2.68-.06,3.97-3.79-.64-7.58-1.22-11.38-1.75-12.37-1.63-24.8-2.39-37.28-2.57-12.43-.12-24.91.53-37.28,1.98Z"/>
                    <path class="cls-11" d="M840.21,2008.59v-2.39c13.59,2.51,27.13,4.96,40.73,7.24,18.67,3.21,37.4,6.13,56.19,8.52,37.63,4.78,75.5,8.17,113.37,11.9,75.62,7.12,151.35,14.06,227.26,13.65,75.91-.35,151.64-7.06,227.43-13.13,37.92-3.03,75.73-6.36,113.48-10.79,18.85-2.22,37.69-4.73,56.42-7.7,7.99-1.4,15.99-3.15,23.51-5.89-.06,1.28-.06,2.45-.12,3.56-7.41,2.68-15.11,4.38-22.81,5.78-18.85,3.15-37.63,5.78-56.54,8.17-37.75,4.73-75.67,8.29-113.54,11.67-75.73,6.48-151.52,13.89-227.78,14.53-76.26.7-152.34-5.6-227.96-13.3-37.81-3.91-75.67-7.47-113.48-12.43-18.9-2.51-37.75-5.25-56.48-9.16-13.36-2.8-26.6-6.13-39.68-10.21Z"/>
                  </g>
                  <path class="cls-11" d="M1610.09,2006.01c-18.43,4.2-37.22,6.06-56.02,6.87-18.8.64-37.68.22-56.38-2.58,18.81-1.82,37.47-2.45,56.16-3.25,18.69-.62,37.35-1.4,56.24-1.04Z"/>
                  <path class="cls-11" d="M1488.36,1994.32c-17.41,5.33-35.36,8.1-53.35,9.99-18,1.92-36.06,3.39-54.16,3.94-36.22,1.25-72.4.15-108.56-3.4-9.07-1.01-18.06-2.45-27.01-4.41-4.48-1-8.95-2.11-13.45-3.8-2.27-.97-4.47-1.64-7.02-4.02-.61-.71-1.42-1.61-1.62-3.32-.12-.83.09-1.64.37-2.41.29-.55.73-1.27,1.07-1.56,1.52-1.49,2.82-1.97,4.05-2.48,4.9-1.78,9.42-2.28,14.04-2.87,4.59-.52,9.18-.77,13.66-1.03l27.09-1.31c18.09-.64,36.26-.59,54.39.65,9.06.72,18.1,1.74,27.03,3.49,4.46.87,8.91,1.81,13.31,2.91,4.35,1.19,8.92,2.37,12.75,4.88-4.29-1.5-8.69-2.06-13.2-2.44-4.47-.49-8.94-.97-13.41-1.31-8.95-.65-17.88-1.28-26.83-1.62-17.89-.9-35.84-.48-53.8.12l-26.97,1.21c-4.52.23-8.94.43-13.33.88-4.31.47-8.84,1.05-12.44,2.35-.86.29-1.65.79-1.74.89-.06.1.26-.37.23-.95-.13-.56-.19-.52-.08-.39.73.78,2.84,1.83,4.71,2.54,3.93,1.53,8.23,2.66,12.54,3.66,8.65,1.97,17.49,3.49,26.33,4.54,35.67,3.29,71.78,3.95,107.66,2.69,17.95-.73,35.9-1.69,53.81-3.34,17.91-1.67,35.75-3.59,53.94-4.09Z"/>
                  <g>
                    <path class="cls-11" d="M840.21,1983.74v-6.01l17.15,4.03c19.95,4.38,39.97,8.52,60.1,12.02,40.26,7.18,80.81,12.54,121.42,17.04,40.67,4.43,81.45,7.64,122.29,10.15,20.42,1.28,40.84,2.33,61.26,3.33,10.21.35,20.42,1.05,30.69,1.69,10.21.99,20.42,1.98,30.57,3.5-41.02,1.28-81.92-1.4-122.82-3.38-40.96-2.22-81.8-5.25-122.64-9.39-40.78-4.14-81.39-9.86-121.83-17.04-20.19-3.56-40.26-7.7-60.33-12.14l-15.87-3.79Z"/>
                    <path class="cls-11" d="M840.21,1949.37v-5.83c9.74-.41,19.55-.53,29.41.12,10.39.76,20.6,2.33,30.75,4.32,20.25,3.97,39.91,9.39,59.98,13.01,20.01,3.85,40.26,6.77,60.5,9.74,40.43,5.95,81.33,11.49,120.83,23.45l7.35,2.22.52.17c.29.58.64-.93,1.75,2.45-.52,2.16-1.63,2.16-1.63,2.22-.82.23-1.05.23-1.46.29l-2.04.23-3.91.18c-5.19.23-10.33.29-15.46.29-10.27,0-20.54-.23-30.81-.7-20.42-1.23-41.31-1.81-60.85-9.04,20.48,1.75,40.61,4.08,61.03,4.78,10.21.41,20.42.58,30.63.47,3.27,0,6.53-.06,9.74-.12-37.92-10.85-77.25-15.87-116.52-21.35-20.25-2.8-40.55-5.83-60.74-9.63-20.3-3.68-40.14-9.1-60.04-13.01-9.98-1.98-20.01-3.5-30.05-4.2-9.57-.64-19.31-.47-29-.06Z"/>
                  </g>
                  <path class="cls-11" d="M1488.2,1974.4c9.86-1.75,19.72-3.09,29.58-4.61l29.58-4.03c19.72-2.68,39.44-4.9,59.22-7.06,19.78-2.1,39.44-4.96,58.99-8.17,9.8-1.58,19.49-3.56,29.17-5.89,1.52-.35,3.09-.7,4.61-1.05,0,.82,0,1.69.06,2.51-1.28.41-2.63.88-3.91,1.28-9.57,2.92-19.31,5.37-29.06,7.58-19.55,4.26-39.32,7.24-59.1,9.51-19.84,2.04-39.68,4.14-59.51,5.72l-29.81,2.45c-9.92.58-19.84,1.34-29.82,1.75Z"/>
                </g>
                <g>
                  <path class="cls-5" d="M899.67,2043.13c111.21-8.11,223.17,13.24,335.08,16.4,43.23,1.22,86.53-.29,129.76-1.81,75.85-2.63,151.76-5.31,227.61-7.94-78.65,9.22-194.12,15.05-322.89,15.05-157.36,0-294.94-8.69-369.56-21.7Z"/>
                  <path class="cls-3" d="M840.21,2020.79v-100.18h857.97c3.03,32.27,0,100.18,0,100.18,0,6.07-12.02,11.84-33.72,17.15-5.78-22.64-24.27-42.83-46.09-53.04-30.11-14.12-64.71-13.71-97.96-12.25-149.89,6.42-300.13,27.89-449.38,12.49-30.46-3.15-60.97-7.82-91.54-6.3-30.63,1.52-61.91,9.86-85.19,29.76-9.28,7.88-16.98,17.85-22.35,28.82-20.48-5.13-31.74-10.74-31.74-16.63Z"/>
                </g>
              </g>
              <g>
                <ellipse class="cls-9" cx="1269.21" cy="1920.61" rx="429" ry="45.83"/>
                <path d="M841.71,1920.61c0-.15.02-.3.02-.45,0-.41-.11.36.02-.13.09-.31.17-.62.27-.92.11-.35-.17.3.05-.11.09-.16.16-.32.25-.47.19-.33.4-.64.63-.94-.29.4.02-.02.15-.16.14-.16.28-.31.42-.47.3-.32.62-.61.95-.9.17-.15.35-.29.52-.44.08-.07.17-.14.26-.2-.38.3,0,0,.1-.07.41-.3.82-.59,1.24-.87,2.11-1.38,4.38-2.5,6.68-3.51.69-.3.9-.39,1.76-.73.73-.29,1.47-.58,2.21-.85,1.59-.59,3.19-1.14,4.8-1.66,8.18-2.65,16.56-4.64,24.97-6.41,11.11-2.33,22.31-4.22,33.53-5.89,13.61-2.03,27.28-3.73,40.96-5.23,15.94-1.75,31.9-3.24,47.88-4.54,17.94-1.46,35.9-2.69,53.87-3.74,19.67-1.15,39.35-2.09,59.04-2.86,21.13-.82,42.26-1.44,63.4-1.89,22.31-.47,44.63-.74,66.95-.83s45.64,0,68.46.3c21.74.28,43.47.74,65.2,1.4,20.42.62,40.83,1.41,61.23,2.41,18.82.92,37.64,2.01,56.44,3.33,16.96,1.19,33.92,2.55,50.85,4.17,14.84,1.41,29.66,3.02,44.44,4.92,12.39,1.59,24.76,3.39,37.06,5.57,9.77,1.73,19.52,3.68,29.13,6.16,3.8.98,7.57,2.05,11.3,3.27,1.6.52,3.18,1.07,4.76,1.67s2.79,1.08,3.98,1.61c2.26,1,4.48,2.11,6.54,3.48.43.28.84.58,1.25.89.16.12-.26-.21.02.02.08.07.17.14.25.2.18.15.36.3.54.46.33.3.65.6.95.93.13.14.24.28.37.41.06.07.11.14.17.21.07.08-.21-.3,0,0s.41.59.58.91c.08.15.15.3.22.45.15.29-.1-.26-.04-.1.03.09.07.17.1.26.09.3.16.59.23.9.05.19,0-.39,0,.1,0,.16.01.32.01.48,0,.15-.02.3-.03.45-.01.18.09-.44.02-.13-.02.09-.03.18-.05.26-.08.32-.18.62-.29.92.18-.48.02-.04-.08.14-.09.16-.17.32-.26.47-.09.14-.18.28-.27.42-.16.25-.35.46-.15.22-.54.65-1.13,1.26-1.78,1.81-.16.14-.33.27-.5.41-.31.25.22-.16-.06.05-.1.08-.2.15-.31.23-.44.32-.88.62-1.34.92-2.11,1.35-4.38,2.46-6.68,3.45-.49.21-.28.12-.75.32-.36.15-.73.3-1.09.44-.74.29-1.49.58-2.23.85-1.63.6-3.27,1.16-4.91,1.69-3.76,1.21-7.56,2.26-11.39,3.24-9.72,2.47-19.56,4.42-29.44,6.14-12.4,2.17-24.86,3.96-37.34,5.55-14.92,1.9-29.88,3.5-44.86,4.91-17.01,1.6-34.04,2.96-51.08,4.14-18.87,1.3-37.75,2.39-56.65,3.3-20.46.98-40.93,1.76-61.4,2.37-21.78.64-43.56,1.09-65.34,1.35-22.76.28-45.52.36-68.27.25s-44.56-.39-66.84-.87c-21.16-.46-42.32-1.1-63.48-1.94-19.63-.78-39.24-1.73-58.85-2.9-17.89-1.06-35.78-2.3-53.65-3.77-15.9-1.31-31.78-2.8-47.63-4.57-13.59-1.51-27.15-3.22-40.67-5.26-11.08-1.67-22.14-3.56-33.11-5.9-8.3-1.77-16.59-3.76-24.65-6.43-1.6-.53-3.2-1.09-4.78-1.69s-2.55-1-3.88-1.59c-2.23-1-4.43-2.11-6.45-3.49-.21-.14-.41-.29-.62-.43-.13-.09-.72-.55-.34-.25-.34-.27-.68-.55-1.01-.85-.3-.27-.59-.55-.86-.85-.13-.14-.26-.29-.39-.44-.36-.41.06.13-.15-.19-.19-.28-.39-.56-.56-.86-.08-.15-.15-.3-.23-.45-.19-.36.08.34-.05-.11-.09-.3-.17-.6-.25-.9-.13-.45,0,.32-.01-.08,0-.16-.02-.32-.02-.48-.01-1.93-3.01-1.93-3,0,.02,3.7,3.04,6.46,5.87,8.4,4.68,3.22,10.22,5.24,15.57,7.03,8.11,2.71,16.45,4.72,24.8,6.5,11.03,2.35,22.16,4.25,33.32,5.94,13.68,2.07,27.4,3.8,41.15,5.33,16.02,1.79,32.07,3.29,48.13,4.62,18.08,1.49,36.17,2.74,54.27,3.81,19.78,1.17,39.56,2.12,59.36,2.9,21.26.84,42.53,1.47,63.8,1.92,22.55.48,45.1.76,67.65.85s45.8,0,68.7-.3c21.96-.28,43.92-.75,65.87-1.42,20.54-.63,41.07-1.43,61.59-2.44,18.92-.93,37.82-2.04,56.72-3.38,17.08-1.21,34.15-2.59,51.19-4.24,14.89-1.44,29.77-3.07,44.61-5,12.45-1.62,24.88-3.45,37.24-5.67,9.71-1.74,19.4-3.71,28.94-6.23,6.86-1.81,13.71-3.88,20.18-6.83,3.87-1.77,8.16-3.98,10.64-7.59,1.89-2.74,1.76-6.04-.21-8.69-2.65-3.58-7.01-5.78-10.98-7.55-6.59-2.93-13.55-5-20.51-6.81-9.69-2.52-19.52-4.49-29.37-6.23-12.46-2.21-24.99-4.02-37.54-5.64-14.93-1.92-29.9-3.55-44.88-4.97-17.06-1.63-34.14-3-51.23-4.19-18.96-1.32-37.93-2.42-56.9-3.34-20.65-1-41.31-1.8-61.97-2.41-22-.66-44-1.11-66.01-1.38s-45.84-.36-68.76-.26-44.87.4-67.29.89c-21.3.47-42.59,1.11-63.87,1.96-19.73.79-39.46,1.75-59.17,2.94-18.03,1.08-36.05,2.34-54.05,3.84-15.92,1.33-31.84,2.84-47.72,4.63-13.66,1.54-27.3,3.28-40.89,5.35-11.09,1.7-22.16,3.61-33.13,5.98-8.24,1.79-16.46,3.8-24.45,6.52-5.23,1.78-10.66,3.81-15.19,7.05-2.67,1.92-5.45,4.58-5.47,8.12-.01,1.93,2.99,1.93,3,0Z"/>
              </g>
            </g>
            <g>
              <g>
                <path class="cls-4" d="M938.29,1914.07v-77.25c0,19.55,148.26,35.36,331.05,35.36s331.05-15.81,331.05-35.36c.52,5.43.82,12.25.93,19.55,0,.35,0,.7.06,1.11.06,4.78.06,9.8.06,14.76,0,.99,0,1.93-.06,2.86,0,3.09-.06,6.13-.06,9.04-.06,2.8-.12,5.48-.18,8.05-.06.41-.06.82-.06,1.17-.06,2.74-.18,5.31-.23,7.64-.23,7.88-.47,13.07-.47,13.07,0,18.79-148.2,34.02-331.05,34.02s-331.05-15.23-331.05-34.02Z"/>
                <path d="M939.79,1914.07v-77.25h-3c.02,2.96,2.37,5.17,4.63,6.73,3.62,2.51,7.92,4.08,12.07,5.47,6.21,2.08,12.6,3.63,19,5,8.53,1.83,17.13,3.3,25.76,4.6,10.59,1.6,21.22,2.95,31.87,4.13,12.36,1.38,24.74,2.54,37.13,3.56,13.88,1.14,27.77,2.1,41.67,2.93,15.31.91,30.63,1.65,45.95,2.25,16.46.65,32.93,1.14,49.41,1.49,17.4.37,34.81.59,52.21.66s35.32,0,52.98-.23,33.91-.58,50.85-1.09c15.91-.48,31.81-1.11,47.71-1.89,14.58-.72,29.16-1.57,43.73-2.6,13.18-.93,26.35-2,39.5-3.27,11.49-1.11,22.97-2.37,34.42-3.86,9.65-1.26,19.28-2.67,28.86-4.39,7.51-1.35,15-2.87,22.38-4.83,5.29-1.4,10.58-3.01,15.56-5.29,3.04-1.39,6.34-3.14,8.28-5.96.69-1,1.12-2.19,1.12-3.41h-3c.82,8.57.99,17.22,1.03,25.82.05,9.32-.03,18.63-.24,27.95-.17,7.43-.44,14.87-.74,22.3-.02.41-.04.82-.05,1.23,0,.12-.02.24-.02.36.02-.44.05-.21-.02.03-.04.11-.08.24-.1.36-.1.45.09-.14-.02.07-.13.25-.26.49-.41.73-.05.08-.33.46-.15.22.17-.22-.14.17-.21.25-.24.26-.48.51-.74.75-.12.11-.25.22-.37.32-.07.06-.14.11-.21.17-.29.24.16-.12-.01.01-.34.26-.69.5-1.05.74-.79.52-1.62.98-2.47,1.41-.48.24-.96.47-1.44.7-.25.11-.5.23-.75.33-.13.06-.26.11-.38.17-.18.08.12-.05-.21.09-5.63,2.33-11.56,3.91-17.48,5.32-8.43,2-16.96,3.54-25.51,4.9-10.83,1.72-21.71,3.13-32.6,4.36-12.95,1.47-25.94,2.69-38.93,3.76-14.87,1.22-29.76,2.23-44.65,3.09-16.39.95-32.79,1.7-49.19,2.31-17.78.66-35.57,1.14-53.36,1.47-18.75.35-37.51.52-56.27.54-18.92.02-37.85-.13-56.77-.45-17.9-.3-35.8-.76-53.7-1.39-16.54-.58-33.08-1.32-49.61-2.23-15-.83-30-1.82-44.97-3-13.25-1.05-26.49-2.26-39.7-3.71-11.12-1.22-22.22-2.61-33.27-4.31-8.77-1.35-17.52-2.87-26.17-4.83-6.22-1.41-12.45-2.99-18.4-5.3-1.28-.5-1.75-.69-3-1.28-.92-.43-1.82-.89-2.69-1.4-.38-.23-.76-.46-1.13-.71-.17-.11-.33-.23-.5-.34-.2-.14-.51-.39-.25-.18-.55-.44-1.05-.92-1.53-1.44-.3-.32-.02,0-.08-.1-.08-.12-.17-.23-.24-.35-.14-.23-.26-.46-.38-.71.24.5-.03-.17-.1-.4-.09-.29-.04-.27-.01,0-.01-.13-.02-.25-.02-.38-.01-1.93-3.01-1.93-3,0,.02,3.19,2.85,5.45,5.33,6.97,4.3,2.63,9.27,4.24,14.08,5.66,7.31,2.16,14.79,3.75,22.28,5.15,9.97,1.87,20,3.35,30.05,4.67,12.21,1.6,24.45,2.93,36.71,4.08,14.22,1.34,28.47,2.46,42.73,3.42,15.89,1.07,31.79,1.95,47.7,2.67,17.41.79,34.83,1.4,52.26,1.85,18.6.48,37.2.79,55.8.94s38.53.13,57.8-.06,36.97-.53,55.45-1.05c17.27-.49,34.54-1.13,51.8-1.95,15.79-.75,31.57-1.66,47.34-2.77,14.03-.99,28.05-2.13,42.05-3.51,12.04-1.18,24.07-2.54,36.06-4.17,9.72-1.32,19.43-2.83,29.06-4.72,7.17-1.41,14.34-3,21.31-5.2,4.44-1.4,9.13-2.99,12.99-5.68,1.32-.92,2.59-1.99,3.44-3.37.8-1.3.86-2.64.92-4.12.7-16.9,1.07-33.81.98-50.72-.05-8.44-.23-16.94-1.03-25.35-.18-1.89-2.99-1.97-3,0,0,.12,0,.23-.02.34-.02.33.12-.37,0,.02-.07.24-.13.48-.21.71-.08.26.2-.35-.02.04-.06.11-.12.23-.18.34s-.14.23-.21.34c-.05.08-.34.47-.16.24s-.12.14-.18.21c-.11.12-.22.24-.33.36-.23.24-.48.47-.74.7-.13.11-.27.22-.4.33-.36.3.17-.11-.23.17-.32.23-.63.45-.96.66-1.63,1.06-3.39,1.92-5.17,2.7-.11.05-.23.1-.34.15-.24.1.18-.07-.17.07-.26.11-.52.21-.78.32-.57.23-1.14.45-1.71.66-1.25.46-2.5.89-3.77,1.3-6.31,2.04-12.78,3.57-19.27,4.93-8.57,1.79-17.2,3.25-25.86,4.54-10.47,1.56-20.99,2.86-31.51,4.02-12.27,1.35-24.56,2.49-36.85,3.49-13.87,1.13-27.76,2.08-41.65,2.89-15.14.88-30.28,1.61-45.43,2.2-16.33.64-32.67,1.12-49.02,1.46-17.17.36-34.34.57-51.52.64-17.5.07-35,0-52.49-.22s-33.61-.57-50.41-1.07c-15.72-.47-31.43-1.08-47.13-1.84-14.56-.71-29.12-1.55-43.66-2.57-13.07-.91-26.13-1.96-39.17-3.2-11.44-1.09-22.86-2.32-34.26-3.78-9.59-1.23-19.17-2.62-28.69-4.3-7.54-1.33-15.07-2.83-22.49-4.74-2.94-.75-5.86-1.58-8.74-2.51-1.26-.41-2.51-.84-3.74-1.3-.57-.21-1.14-.43-1.7-.66-.71-.29-.66-.26-1.34-.56-1.75-.77-3.47-1.63-5.06-2.68-.33-.22-.66-.45-.98-.69-.21-.16.24.19.04.03-.07-.06-.15-.12-.22-.18-.13-.11-.26-.22-.39-.33-.25-.22-.49-.45-.72-.7-.1-.11-.2-.23-.3-.34-.25-.28-.16-.21-.1-.11-.16-.22-.31-.44-.44-.68-.06-.11-.11-.23-.18-.34-.17-.31.1.35-.02-.04-.06-.22-.12-.44-.19-.66-.13-.41.02.27,0,0,0-.12-.02-.25-.02-.37-.01-1.93-3-1.93-3,0v77.25c0,1.93,3,1.93,3,0Z"/>
              </g>
              <g>
                <path class="cls-11" d="M938.29,1901.59v-4.38c5.66,1.81,11.2,3.91,16.98,5.54,6.77,2.1,13.54,4.2,20.48,5.89,6.83,1.93,13.77,3.56,20.71,5.02,27.77,6.13,56.01,9.98,84.43,11.61,28.36,1.63,56.83,1.63,85.24-.23,14.18-.93,28.36-2.39,42.48-4.08,12.25-1.52,24.62-3.62,35.18-9.1-6.18-2.8-13.54-3.62-20.83-3.85-9.1-.23-18.55-.29-27.77-.82-18.61-.88-37.05-2.51-55.55-3.79-18.44-1.34-36.87-2.27-55.31-1.69-9.16.18-18.38.76-27.48,1.93-7.88.93-15.93,1.93-22.99,4.9,7.35,2.92,15.64,3.5,23.86,4.08l28.59,1.52c19.08.88,38.16,1.23,57.29,2.45-9.57.82-19.14,1.28-28.71,1.4-9.57.17-19.14-.06-28.71-.29-9.57-.23-19.14-.64-28.71-1.23-9.51-.52-19.6-1.58-28.53-6.42l-2.8-1.46,2.8-1.52.06-.06c8.58-4.78,18.2-6.07,27.31-7.35,9.28-1.34,18.55-2.1,27.89-2.51,18.61-.7,37.28.12,55.78,1.28,18.5,1.11,36.99,2.63,55.43,3.38,9.28.41,18.32.47,27.71.58,9.34.29,19.55,1.28,28.18,7l3.68,2.45-3.73,2.39c-12.78,8.28-27.77,10.74-41.95,12.54-14.24,1.75-28.47,3.21-42.83,4.14-28.59,1.81-57.35,2.1-86,.12-28.65-1.93-57.12-6.13-85.13-12.6-7-1.58-13.94-3.27-20.83-5.25-6.94-1.81-13.83-4.03-20.65-6.19-5.25-1.63-10.44-3.44-15.58-5.43Z"/>
                <path class="cls-11" d="M938.29,1863.37v-.64c39.73,5.08,79.53,10.15,119.32,14.24,23.05,2.22,46.09,4.26,69.14,5.66,23.1,1.4,46.21,1.98,69.31,2.39l69.49,1.34c11.61.29,23.22.64,34.83,1.17,11.49.58,23.4.88,35.01,4.43,2.86.88,5.72,1.98,8.46,3.33,1.34.7,2.63,1.4,3.97,2.28,1.34.93,2.92,2.1,3.85,4.03.93,1.81.99,4.2.29,6.01-.64,1.87-1.75,3.27-2.92,4.49-2.33,2.28-5.13,3.97-7.88,5.13-10.68,4.73-21.59,8.93-32.67,12.49-22.17,7.06-45.16,11.73-68.32,13.13,22.81-3.85,45.39-9.1,67.16-16.69,10.91-3.73,21.53-8.05,31.97-12.89,2.51-1.11,4.78-2.57,6.48-4.38,1.81-1.87,2.45-3.73,1.63-5.19-.58-1.4-3.33-2.8-5.72-4.03-2.51-1.17-5.08-2.16-7.76-2.92-10.74-3.03-22.23-3.15-33.78-3.62-11.55-.47-23.16-.76-34.72-1.05l-69.49-1.23c-46.33-1.17-92.77-4.32-138.8-10.04-22.99-2.8-45.98-6.01-68.85-9.39l-50-8.05Z"/>
                <path class="cls-11" d="M1354.3,1927.9c.12-.47.41-.88.7-1.22.53-.53.41-.35.7-.58.35-.23.47-.29.7-.41l1.11-.58c10.91-4.67,21.65-8.23,32.56-12.08,10.85-3.73,21.76-7.35,32.67-10.85,21.88-7,43.82-13.89,66.1-19.6,22.29-6.07,45.1-9.22,67.27-14.7,15.17-3.38,30.28-7.23,45.22-11.49,0,.35,0,.7.06,1.11-14.7,4.84-29.58,9.16-44.58,13.19-22.23,6.07-44.93,9.69-66.81,16.22-21.94,6.36-43.88,13.13-65.58,20.3-17.91,6.01-36.12,12.08-53.56,18.85h1.28l17.15-.12c11.44-.23,22.87-.58,34.31-1.11,22.87-1.11,45.68-2.98,68.38-5.66,37.46-3.79,73.52-14.65,109.16-26.96-.06.41-.06.82-.06,1.17-13.59,5.37-27.31,10.44-41.19,14.99-21.88,7.12-44.58,12.08-67.33,15.23-22.81,3.38-45.74,5.19-68.73,6.48-11.44.64-22.93,1.11-34.42,1.4l-17.27.29-8.64.06h-6.18c-.12,0-.93-.06-1.34-.23-1.11.23-2.45-3.68-1.69-3.68Z"/>
                <path class="cls-11" d="M1431.37,1913.84l48.49-10.62c16.1-3.68,32.21-7.35,48.19-11.38,16.05-3.91,31.97-8.23,47.9-12.49l25.5-7.12c0,.99,0,1.93-.06,2.86-7.99,3.03-16.05,5.83-24.16,8.52-15.69,5.31-31.68,9.8-47.78,13.89-16.1,3.91-32.32,7.47-48.72,10.15-8.17,1.28-16.4,2.57-24.62,3.68-8.23.93-16.45,1.93-24.74,2.51Z"/>
              </g>
              <path class="cls-5" d="M938.29,1914.07v-7.41c86.82,25.38,179.35,22.46,270.02,25.61,67.16,2.33,134.37,8.17,201.58,6.24,65.29-1.87,131.22-11.38,190.97-37.52-.23,7.88-.47,13.07-.47,13.07,0,18.79-148.2,34.02-331.05,34.02s-331.05-15.23-331.05-34.02Z"/>
              <path class="cls-3" d="M938.29,1888.17v-51.34c0,19.55,148.26,35.36,331.05,35.36s331.05-15.81,331.05-35.36c.52,5.43.82,12.25.93,19.55,0,.35,0,.7.06,1.11.06,4.78.06,9.8.06,14.76,0,.99,0,1.93-.06,2.86,0,3.09-.06,6.13-.06,9.04-20.95-10.74-45.33-14.41-69.02-14.06-27.19.41-54.03,5.66-80.93,9.63-123.17,17.97-248.61,8.05-372.54-4.2-47.43-4.67-99.01-8.69-140.55,12.66Z"/>
            </g>
            <g>
              <g>
                <path class="cls-4" d="M1675.73,618.79v1299.13c0,2.1-2.98,3.97-7.82,5.37-5.43,1.52-13.13,2.51-21.7,2.51-2.92,0-5.72-.12-8.34-.35-12.2-.93-21.12-3.91-21.12-7.53V618.79c0-3.62,8.93-6.59,21.12-7.53,2.63-.23,5.43-.35,8.34-.35,8.58,0,16.28.99,21.7,2.51,4.84,1.4,7.82,3.27,7.82,5.37Z"/>
                <path d="M1674.23,618.79v78.64c0,8.78,0,17.56,0,26.35s0,19.77,0,29.65v464.11c0,16.15,0,32.3,0,48.45s0,32.48,0,48.71v143.29c0,15.37,0,30.73,0,46.1s0,30.09,0,45.13v365.85c0,.91.13,1.93,0,2.83-.04.31-.12.51-.34.79-.58.77-1.61,1.29-2.45,1.7-1.54.76-3.21,1.28-4.87,1.7-6.62,1.7-13.55,2.2-20.36,2.2s-14.02-.5-20.72-2.33c-2.08-.57-4.36-1.24-6.12-2.56-.44-.33-.94-.9-1.03-1.06-.16-.3-.1-.34-.11-.44-.05-.85,0-1.72,0-2.57v-76.96c0-8.87,0-17.74,0-26.61s0-19.74,0-29.61v-67.85c0-12.53,0-25.05,0-37.58,0-13.32,0-26.64,0-39.96s0-27.79,0-41.69v-88.43c0-15.35,0-30.69,0-46.04s0-31.5,0-47.25v-289.32c0-15.67,0-31.35,0-47.02s0-30.86,0-46.29v-130.19c0-13.26,0-26.53,0-39.79s0-25.21,0-37.81v-35.21c0-10.85,0-21.71,0-32.56s0-19.88,0-29.82c0-8.84,0-17.69,0-26.53s0-15.51,0-23.27,0-13.02,0-19.53c0-5.23,0-10.46,0-15.68s0-7.76,0-11.64v-7.24c0-.88-.06-1.79,0-2.67,0,0,0,0,0,0,0-.09-.05-.13.11-.43-.06.11.25-.35.31-.41,1.07-1.23,2.83-1.9,4.33-2.43,5.73-2.04,11.99-2.66,18.02-2.97,6.73-.35,13.59-.1,20.25.98,2.7.44,5.4.99,7.99,1.89,1.32.46,4.91,1.6,4.99,3.38.09,1.92,3.09,1.93,3,0-.11-2.47-2.23-4.05-4.27-5.06-2.72-1.35-5.7-2.11-8.67-2.7-7.03-1.38-14.28-1.8-21.43-1.57-6.69.22-13.7.83-20.08,2.96-2.96.98-7.36,2.68-7.53,6.37-.04.82,0,1.65,0,2.47v7.1c0,3.83,0,7.66,0,11.49v35.16c0,7.73,0,15.45,0,23.18s0,17.73,0,26.59,0,19.84,0,29.76,0,21.79,0,32.68c0,11.79,0,23.57,0,35.36,0,12.6,0,25.19,0,37.79v264.18c0,16,0,32,0,47.99s0,32.32,0,48.47v694.69c0,1.15-.15,2.48.27,3.58.63,1.65,2.23,2.77,3.74,3.55,2.36,1.22,4.97,1.97,7.56,2.55,6.95,1.55,14.21,2.02,21.32,1.89,6.63-.12,13.45-.7,19.87-2.46,3.31-.91,9.04-2.66,9.23-6.91.04-.88,0-1.78,0-2.67v-77.75c0-8.91,0-17.82,0-26.73s0-19.92,0-29.88c0-10.93,0-21.86,0-32.79,0-11.82,0-23.64,0-35.46v-730.82c0-14.49,0-28.99,0-43.48s0-27.84,0-41.76v-144.9c0-9.83,0-19.65,0-29.48s0-17.52,0-26.29v-77.11c0-1.93-3-1.93-3,0Z"/>
              </g>
              <g>
                <path class="cls-11" d="M1655.08,811.97c-.29,20.95.18,41.95,1.98,62.84.88,10.44,1.98,20.83,4.55,30.81,1.22,5.02,2.92,9.86,5.02,14.53.41.93.82,1.87,1.28,2.74,1.81,3.62,4.14,6.59,6.88,6.24.29,0,.64-.06.93-.23v4.55c-.12.06-.29.12-.41.12-2.86.47-5.54-.88-7.41-2.57-.58-.47-1.05-.99-1.46-1.52-1.92-2.33-3.09-4.9-4.32-7.29-2.28-4.9-4.08-10.04-5.43-15.29-2.74-10.44-3.97-21.06-4.96-31.62-1.98-21.06-2.68-42.24-2.51-63.42.35-21.12,1.46-42.24,2.92-63.25,1.63-21.06,2.98-42.07,5.25-63.13,1.23-10.5,2.86-21.06,5.43-31.39.64-2.57,1.34-5.13,2.16-7.7.58-1.93,1.23-4.2,2.92-6.07.52-.58,1.11-1.05,1.81-1.52,1.63-.99,3.91-.82,5.43.29.23.18.41.29.58.52v5.72c-.18-.41-.35-.76-.53-1.17-1.05-2.28-2.63-3.38-3.91-2.51-1.4.87-2.39,3.27-2.98,5.72-.17.53-.29,1.11-.41,1.63-.58,1.98-1.05,3.91-1.52,5.95-2.27,10.15-3.62,20.54-4.55,30.98-2.98,41.95-6.48,84.02-6.77,126.03Z"/>
                <path class="cls-11" d="M1635.12,1065.6c-.35,23.63-2.8,47.49-9.86,70.13-1.98,5.49-3.09,11.67-7.76,16.34-.23.23-.47.47-.76.64v-3.15c3.15-3.91,4.14-9.51,5.78-14.65,6.42-22.46,8.28-45.98,8.17-69.31-.23-23.45-1.98-46.85-3.44-70.37-1.46-23.51-2.68-47.03-3.56-70.54-1.4-47.08-1.98-94.17-.93-141.25l.99-35.3c.35-11.79,1.05-23.51.99-35.18-.06-5.83-.29-11.67-.99-17.5-.41-2.74-.47-6.18-2.27-7.29-.82-.52-1.93-.12-2.86.88-.7.7-1.28,1.69-1.87,2.63v-2.98c.18-.29.41-.53.64-.82.93-1.22,3.09-2.39,4.96-1.4,1.81.99,2.39,2.8,2.8,4.26.35,1.58.52,2.98.76,4.43.93,5.89,1.4,11.79,1.63,17.74.47,11.84,0,23.57-.12,35.36l-.23,35.24c-.06,47.03.41,94.05,2.33,141.02.7,23.46,1.69,46.97,2.97,70.42,1.23,23.45,3.15,46.97,2.63,70.66Z"/>
                <path class="cls-11" d="M1675.73,951.83v4.38c-1.05.99-1.93,2.16-2.74,3.44-2.39,3.91-3.85,8.4-5.08,13.19-1.17,4.55-2.04,9.34-3.27,13.94-4.43,18.96-7.64,38.16-9.63,57.59-4.32,38.74-4.08,77.83-3.68,116.92.64,39.09,2.16,78.3,1.81,117.57-.06,38.68-5.72,77.48,2.22,114.94,2.68-.7,4.55-4.67,5.19-8.46.88-4.43.41-9.74.58-14.76l.41-30.22,1.17-60.5,1.52-60.5c.41-20.13.99-40.32,3.27-60.45.18,2.04.29,4.03.41,6.07,1.11,18.15.93,36.29.64,54.44l-.64,47.61-.18,12.95-1.11,60.5-.7,30.28c-.29,5.08.18,9.92-.93,15.46-.52,2.68-1.4,5.31-3.15,7.82-1.52,2.51-5.08,4.67-8.46,4.08l-1.52-.29-.29-1.34v-.06c-4.96-19.31-5.95-39.27-5.66-58.93.35-19.66,1.28-39.15,1.34-58.7.23-39.09-1.4-78.18-2.16-117.39-.35-19.6-.53-39.21.18-58.87.58-19.6,1.75-39.27,4.08-58.81,2.16-19.55,5.54-39.03,10.15-58.17,1.22-4.78,2.39-9.51,3.73-14.29,1.11-3.79,2.51-7.7,4.67-11.26.52-.93,1.11-1.81,1.75-2.68,1.63-2.1,3.56-4.03,5.95-5.43.06,0,.06-.06.12-.06Z"/>
                <path class="cls-11" d="M1662.55,1595.32c-.41,11.44-1.63,23.34-6.71,34.37-.64,1.34-1.4,3.21-3.68,4.67-2.16,1.4-5.43.93-7.06-.29-1.75-1.11-2.86-2.51-3.79-3.97-.99-1.46-1.58-3.03-2.1-4.26-.47-1.11-.93-2.22-1.34-3.33-1.63-4.38-2.98-8.87-4.03-13.36-2.68-11.32-3.91-22.81-4.78-34.19-.88-11.38-1.63-22.75-2.16-34.13-1.87-45.57-1.63-91.08-3.09-136.47-.7-22.7-1.98-45.39-4.26-67.97-.7-7.76-1.46-15.58-2.8-23.22v-7c2.51,9.86,3.85,19.95,5.13,29.93,2.86,22.64,4.61,45.33,5.83,68.09,2.45,45.51,2.51,91.02,5.02,136.35.52,11.32,1.28,22.64,2.1,33.96.7,8.46,1.52,16.86,3.03,25.09.47,2.8,1.05,5.49,1.69,8.23,1.28,5.37,2.92,10.68,5.02,15.75.58,1.34.99,2.45,1.63,3.38.58.93,1.34,1.81,1.98,2.16.7.41.7.29.99.18.23-.06.82-.88,1.34-2.04,4.49-9.8,5.72-21,6.42-32.21,1.23-22.58,1.63-45.33,1.23-68.03-.18-11.32-.58-22.64-1.17-34.02-.64-11.32-1.17-22.64-.76-34.13,2.63,11.2,3.85,22.52,4.61,33.9.76,11.38,1.4,22.75,1.75,34.13.82,22.81.76,45.63-.06,68.44Z"/>
                <path class="cls-11" d="M1675.73,1654.25v16.63c-1.87,13.36-3.09,26.84-4.2,40.38-.93,12.31-2.1,24.62-3.62,36.87-.64,5.25-1.34,10.44-2.1,15.64-1.4,8.75-2.98,17.45-5.19,26.08-1.05,4.38-2.16,8.46-3.62,13.01-.82,2.22-2.39,5.31-5.78,6.53-3.38,1.22-6.59,0-8.75-1.34-1.81-1.11-3.27-2.51-4.61-3.91-.29-.35-.64-.7-.93-1.05-1.52-1.75-2.98-3.56-4.2-5.49-2.63-3.85-4.73-7.93-6.42-12.14-3.5-8.4-5.43-17.21-7-25.96-.88-5.25-1.69-10.44-2.57-15.64v-30.98l7.76,45.69c1.63,8.52,3.62,16.98,6.94,24.8,1.63,3.85,3.62,7.58,5.95,11.03.18.23.29.41.47.64,2.27,3.09,4.9,6.36,7.64,8.05,3.27,1.81,4.67,1.4,6.18-2.28,1.22-3.79,2.45-8.23,3.56-12.31,2.22-8.4,3.85-16.98,5.31-25.56,2.92-17.21,4.43-34.66,6.48-52.1.29-2.51.58-5.02.88-7.47,1.81-15.05,3.79-29.99,6.88-44.81.29-1.46.58-2.86.93-4.32Z"/>
                <path class="cls-11" d="M1675.73,1822.52v14c-2.16,4.2-4.61,8.23-7.82,11.84-1.28,1.46-2.68,2.86-4.2,4.2-2.1,1.69-4.55,3.15-7.35,3.97-2.8.82-6.01.82-8.81-.18-4.2-1.46-7.23-4.14-9.68-7-.93-1.05-1.75-2.1-2.57-3.09-5.89-7.88-11.38-15.99-16.1-24.51-.82-1.46-1.69-2.98-2.45-4.49v-8.23c1.98,3.56,4.08,7,6.3,10.44,4.67,7.18,9.51,14.35,14.82,21.06.58.76,1.17,1.52,1.75,2.27,2.86,3.62,6.07,7,9.68,8.11,3.56,1.22,7.47-.18,10.74-2.92,3.03-2.57,5.66-5.78,7.88-9.39,2.68-4.2,4.9-8.93,6.83-13.54.35-.88.7-1.69.99-2.57Z"/>
                <path class="cls-11" d="M1657.12,1874.63c-2.1,4.26-3.27,8.98-2.74,13.48.41,7.35,6.3,12.54,13.54,15.05,1.87.7,3.79,1.17,5.78,1.46.64.12,1.34.23,2.04.29v4.32c-.88,0-1.75-.06-2.63-.12-1.75-.12-3.44-.35-5.19-.76-3.68-.82-7.29-2.28-10.62-4.61-4.78-3.38-8.17-9.1-8.69-15.05-.99-11.96,5.83-22.58,14.47-29.06,1.52-1.17,3.15-2.22,4.84-3.15,2.45-1.46,5.08-2.63,7.82-3.5v3.5c-2.8,1.34-5.43,3.03-7.82,4.96-.7.58-1.34,1.11-1.98,1.69-3.62,3.38-6.77,7.18-8.81,11.49Z"/>
              </g>
              <path class="cls-5" d="M1675.73,618.79v1299.13c0,2.1-2.98,3.97-7.82,5.37V613.42c4.84,1.4,7.82,3.27,7.82,5.37Z"/>
              <path class="cls-3" d="M1637.87,611.27v1314.18c-12.2-.93-21.12-3.91-21.12-7.53V618.79c0-3.62,8.93-6.59,21.12-7.53Z"/>
            </g>
            <g>
              <g>
                <path class="cls-4" d="M864.02,618.79v1299.13c0,2.1,2.98,3.97,7.82,5.37,5.43,1.52,13.13,2.51,21.7,2.51,2.92,0,5.72-.12,8.34-.35,12.19-.93,21.12-3.91,21.12-7.53V618.79c0-3.62-8.93-6.59-21.12-7.53-2.63-.23-5.43-.35-8.34-.35-8.58,0-16.28.99-21.7,2.51-4.84,1.4-7.82,3.27-7.82,5.37Z"/>
                <path d="M862.52,618.79v1296.85c0,1.09-.15,2.39.19,3.45.75,2.34,3.37,3.64,5.46,4.5,2.92,1.21,6.03,1.9,9.14,2.42,7.06,1.18,14.29,1.52,21.43,1.15,6.45-.33,13.29-.96,19.38-3.29,2.67-1.02,6.23-2.66,6.38-5.96.04-.86,0-1.73,0-2.59v-239.98c0-13.34,0-26.69,0-40.03s0-27.98,0-41.97v-327.36c0-16.23,0-32.47,0-48.7s0-32.3,0-48.45v-349.06c0-11.72,0-23.44,0-35.16,0-10.82,0-21.64,0-32.46v-131.24c0-1.45.16-2.95-.64-4.25-.91-1.46-2.54-2.43-4.07-3.13-2.19-1-4.51-1.68-6.86-2.21-6.48-1.45-13.25-1.94-19.88-1.91s-12.79.53-19.01,1.91c-2.7.6-5.44,1.37-7.87,2.72-1.82,1.01-3.56,2.52-3.66,4.74-.09,1.93,2.91,1.93,3,0,.03-.69.8-1.27,1.35-1.65,1.35-.93,2.93-1.51,4.48-2,2.83-.9,5.79-1.44,8.72-1.85,7.37-1.03,14.89-1.11,22.29-.48,3.41.29,6.81.73,10.14,1.5,2.36.54,4.79,1.2,6.91,2.39.65.37,1.33.79,1.8,1.39.17.22.29.56.3.71,0,.02,0,.03,0,.05.06,1,0,2.02,0,3.03v7.63c0,3.97,0,7.94,0,11.92v534.35c0,16.08,0,32.17,0,48.25s0,32.48,0,48.72v144.56c0,15.65,0,31.29,0,46.94s0,30.79,0,46.18v44.72c0,14.49,0,28.98,0,43.47s0,27.69,0,41.54v277.28c0,.66.03.74-.23,1.12-.84,1.19-2.76,2.01-4.22,2.55-2.72,1-5.58,1.61-8.44,2.08-7.42,1.21-15.07,1.4-22.56.87-3.29-.23-6.56-.62-9.8-1.25-3.01-.59-6.19-1.3-8.85-2.88-.8-.47-1.79-1.11-1.88-2.06-.11-1.05,0-2.17,0-3.22v-889.95c0-14.93,0-29.86,0-44.78s0-28.87,0-43.3v-41.47c0-13.24,0-26.48,0-39.71,0-12.44,0-24.87,0-37.31v-199.3c0-1.93-3-1.93-3,0Z"/>
              </g>
              <g>
                <path class="cls-11" d="M884.67,811.97c.29,20.95-.18,41.95-1.98,62.84-.88,10.44-1.98,20.83-4.55,30.81-1.23,5.02-2.92,9.86-5.02,14.53-.41.93-.82,1.87-1.28,2.74-1.81,3.62-4.14,6.59-6.89,6.24-.29,0-.64-.06-.93-.23v4.55c.12.06.29.12.41.12,2.86.47,5.54-.88,7.41-2.57.58-.47,1.05-.99,1.46-1.52,1.93-2.33,3.09-4.9,4.32-7.29,2.27-4.9,4.08-10.04,5.43-15.29,2.74-10.44,3.97-21.06,4.96-31.62,1.98-21.06,2.68-42.24,2.51-63.42-.35-21.12-1.46-42.24-2.92-63.25-1.63-21.06-2.98-42.07-5.25-63.13-1.23-10.5-2.86-21.06-5.43-31.39-.64-2.57-1.34-5.13-2.16-7.7-.58-1.93-1.23-4.2-2.92-6.07-.53-.58-1.11-1.05-1.81-1.52-1.63-.99-3.91-.82-5.43.29-.23.18-.41.29-.58.52v5.72c.18-.41.35-.76.53-1.17,1.05-2.28,2.63-3.38,3.91-2.51,1.4.87,2.39,3.27,2.98,5.72.18.53.29,1.11.41,1.63.58,1.98,1.05,3.91,1.52,5.95,2.28,10.15,3.62,20.54,4.55,30.98,2.98,41.95,6.48,84.02,6.77,126.03Z"/>
                <path class="cls-11" d="M904.63,1065.6c.35,23.63,2.8,47.49,9.86,70.13,1.98,5.49,3.09,11.67,7.76,16.34.23.23.47.47.76.64v-3.15c-3.15-3.91-4.14-9.51-5.78-14.65-6.42-22.46-8.28-45.98-8.17-69.31.23-23.45,1.98-46.85,3.44-70.37,1.46-23.51,2.68-47.03,3.56-70.54,1.4-47.08,1.98-94.17.93-141.25l-.99-35.3c-.35-11.79-1.05-23.51-.99-35.18.06-5.83.29-11.67.99-17.5.41-2.74.47-6.18,2.27-7.29.82-.52,1.93-.12,2.86.88.7.7,1.28,1.69,1.87,2.63v-2.98c-.17-.29-.41-.53-.64-.82-.93-1.22-3.09-2.39-4.96-1.4-1.81.99-2.39,2.8-2.8,4.26-.35,1.58-.52,2.98-.76,4.43-.93,5.89-1.4,11.79-1.63,17.74-.47,11.84,0,23.57.12,35.36l.23,35.24c.06,47.03-.41,94.05-2.33,141.02-.7,23.46-1.69,46.97-2.98,70.42-1.23,23.45-3.15,46.97-2.63,70.66Z"/>
                <path class="cls-11" d="M864.02,951.83v4.38c1.05.99,1.93,2.16,2.74,3.44,2.39,3.91,3.85,8.4,5.08,13.19,1.17,4.55,2.04,9.34,3.27,13.94,4.43,18.96,7.64,38.16,9.63,57.59,4.32,38.74,4.08,77.83,3.68,116.92-.64,39.09-2.16,78.3-1.81,117.57.06,38.68,5.72,77.48-2.22,114.94-2.68-.7-4.55-4.67-5.19-8.46-.88-4.43-.41-9.74-.58-14.76l-.41-30.22-1.17-60.5-1.52-60.5c-.41-20.13-.99-40.32-3.27-60.45-.18,2.04-.29,4.03-.41,6.07-1.11,18.15-.93,36.29-.64,54.44l.64,47.61.17,12.95,1.11,60.5.7,30.28c.29,5.08-.17,9.92.93,15.46.52,2.68,1.4,5.31,3.15,7.82,1.52,2.51,5.08,4.67,8.46,4.08l1.52-.29.29-1.34v-.06c4.96-19.31,5.95-39.27,5.66-58.93-.35-19.66-1.28-39.15-1.34-58.7-.23-39.09,1.4-78.18,2.16-117.39.35-19.6.53-39.21-.17-58.87-.58-19.6-1.75-39.27-4.08-58.81-2.16-19.55-5.54-39.03-10.15-58.17-1.23-4.78-2.39-9.51-3.73-14.29-1.11-3.79-2.51-7.7-4.67-11.26-.53-.93-1.11-1.81-1.75-2.68-1.63-2.1-3.56-4.03-5.95-5.43-.06,0-.06-.06-.12-.06Z"/>
                <path class="cls-11" d="M877.2,1595.32c.41,11.44,1.63,23.34,6.71,34.37.64,1.34,1.4,3.21,3.68,4.67,2.16,1.4,5.43.93,7.06-.29,1.75-1.11,2.86-2.51,3.79-3.97.99-1.46,1.58-3.03,2.1-4.26.47-1.11.93-2.22,1.34-3.33,1.63-4.38,2.98-8.87,4.03-13.36,2.68-11.32,3.91-22.81,4.78-34.19.88-11.38,1.63-22.75,2.16-34.13,1.87-45.57,1.63-91.08,3.09-136.47.7-22.7,1.98-45.39,4.26-67.97.7-7.76,1.46-15.58,2.8-23.22v-7c-2.51,9.86-3.85,19.95-5.13,29.93-2.86,22.64-4.61,45.33-5.83,68.09-2.45,45.51-2.51,91.02-5.02,136.35-.52,11.32-1.28,22.64-2.1,33.96-.7,8.46-1.52,16.86-3.03,25.09-.47,2.8-1.05,5.49-1.69,8.23-1.28,5.37-2.92,10.68-5.02,15.75-.58,1.34-.99,2.45-1.63,3.38-.58.93-1.34,1.81-1.98,2.16-.7.41-.7.29-.99.18-.23-.06-.82-.88-1.34-2.04-4.49-9.8-5.72-21-6.42-32.21-1.23-22.58-1.63-45.33-1.23-68.03.18-11.32.58-22.64,1.17-34.02.64-11.32,1.17-22.64.76-34.13-2.63,11.2-3.85,22.52-4.61,33.9-.76,11.38-1.4,22.75-1.75,34.13-.82,22.81-.76,45.63.06,68.44Z"/>
                <path class="cls-11" d="M864.02,1654.25v16.63c1.87,13.36,3.09,26.84,4.2,40.38.93,12.31,2.1,24.62,3.62,36.87.64,5.25,1.34,10.44,2.1,15.64,1.4,8.75,2.98,17.45,5.19,26.08,1.05,4.38,2.16,8.46,3.62,13.01.82,2.22,2.39,5.31,5.78,6.53,3.38,1.22,6.59,0,8.75-1.34,1.81-1.11,3.27-2.51,4.61-3.91.29-.35.64-.7.93-1.05,1.52-1.75,2.98-3.56,4.2-5.49,2.63-3.85,4.73-7.93,6.42-12.14,3.5-8.4,5.43-17.21,7-25.96.88-5.25,1.69-10.44,2.57-15.64v-30.98l-7.76,45.69c-1.63,8.52-3.62,16.98-6.94,24.8-1.63,3.85-3.62,7.58-5.95,11.03-.17.23-.29.41-.47.64-2.28,3.09-4.9,6.36-7.64,8.05-3.27,1.81-4.67,1.4-6.19-2.28-1.22-3.79-2.45-8.23-3.56-12.31-2.22-8.4-3.85-16.98-5.31-25.56-2.92-17.21-4.43-34.66-6.48-52.1-.29-2.51-.58-5.02-.88-7.47-1.81-15.05-3.79-29.99-6.89-44.81-.29-1.46-.58-2.86-.93-4.32Z"/>
                <path class="cls-11" d="M864.02,1822.52v14c2.16,4.2,4.61,8.23,7.82,11.84,1.28,1.46,2.68,2.86,4.2,4.2,2.1,1.69,4.55,3.15,7.35,3.97,2.8.82,6.01.82,8.81-.18,4.2-1.46,7.23-4.14,9.69-7,.93-1.05,1.75-2.1,2.57-3.09,5.89-7.88,11.38-15.99,16.1-24.51.82-1.46,1.69-2.98,2.45-4.49v-8.23c-1.98,3.56-4.08,7-6.3,10.44-4.67,7.18-9.51,14.35-14.82,21.06-.58.76-1.17,1.52-1.75,2.27-2.86,3.62-6.07,7-9.69,8.11-3.56,1.22-7.47-.18-10.74-2.92-3.03-2.57-5.66-5.78-7.88-9.39-2.68-4.2-4.9-8.93-6.83-13.54-.35-.88-.7-1.69-.99-2.57Z"/>
                <path class="cls-11" d="M882.63,1874.63c2.1,4.26,3.27,8.98,2.74,13.48-.41,7.35-6.3,12.54-13.54,15.05-1.87.7-3.79,1.17-5.78,1.46-.64.12-1.34.23-2.04.29v4.32c.88,0,1.75-.06,2.63-.12,1.75-.12,3.44-.35,5.19-.76,3.68-.82,7.29-2.28,10.62-4.61,4.78-3.38,8.17-9.1,8.69-15.05.99-11.96-5.83-22.58-14.47-29.06-1.52-1.17-3.15-2.22-4.84-3.15-2.45-1.46-5.08-2.63-7.82-3.5v3.5c2.8,1.34,5.43,3.03,7.82,4.96.7.58,1.34,1.11,1.98,1.69,3.62,3.38,6.77,7.18,8.81,11.49Z"/>
              </g>
              <path class="cls-5" d="M864.02,618.79v1299.13c0,2.1,2.98,3.97,7.82,5.37V613.42c-4.84,1.4-7.82,3.27-7.82,5.37Z"/>
              <path class="cls-3" d="M901.88,611.27v1314.18c12.19-.93,21.12-3.91,21.12-7.53V618.79c0-3.62-8.93-6.59-21.12-7.53Z"/>
            </g>
          </g>
          <g>
            <g>
              <g>
                <path class="cls-12" d="M1494.13,1744.47c-45.1,76.26-129,127.6-224.92,127.6-104.27,0-194.29-60.68-235.83-148.02l.06-.06c6.65-1.81,13.65-3.56,20.83-5.13,4.55-.99,9.04-2.04,13.59-3.21,39.97-9.86,78.59-24.51,115.35-43.29,22.87-11.67,46.33-21.76,71.47-26.84,25.15-5.02,51.34-4.78,76.43.7,40.9,9.04,77.54,31.62,110.8,57.12,3.79,2.92,7.59,5.83,11.32,8.87,10.56,8.46,20.83,17.27,30.81,26.37,2.92,2.68,6.36,4.61,10.04,5.89h.06Z"/>
                <path d="M1492.83,1743.71c-9.24,15.6-20.12,30.21-32.44,43.52-12.33,13.32-26.05,25.36-40.88,35.82-14.99,10.56-31.08,19.54-47.95,26.74s-35.09,12.73-53.39,16.21-38.15,5.04-57.36,4.44c-18.73-.59-37.38-3.17-55.56-7.74-17.64-4.44-34.81-10.72-51.13-18.74-16.04-7.89-31.3-17.43-45.39-28.44-13.95-10.91-26.78-23.24-38.23-36.74s-21.48-28.2-29.9-43.78c-2.08-3.85-4.06-7.75-5.94-11.7l-.23,1.82c-.41.41.51.02.73-.03.52-.14,1.05-.28,1.57-.42,1.06-.28,2.11-.56,3.17-.83,2.08-.53,4.15-1.05,6.24-1.56,4.16-1.01,8.34-1.91,12.51-2.86,8.28-1.89,16.52-4,24.7-6.29,15.99-4.46,31.77-9.7,47.27-15.66s30.87-12.68,45.83-20.05,29.37-14.76,44.82-20.57,31.73-10.25,48.28-12.17,34.21-1.64,51.06,1.07c15.61,2.51,30.83,7.13,45.39,13.26,14.26,5.99,27.9,13.42,40.98,21.65,13.37,8.41,26.14,17.71,38.6,27.4,6.79,5.27,13.45,10.72,20,16.28,3.31,2.81,6.6,5.66,9.85,8.54s6.13,5.81,9.45,8.37c1.38,1.07,2.85,2.01,4.4,2.81.8.41,1.61.78,2.43,1.12.73.3,1.6.8,2.4.8,1.93,0,1.93-3,0-3-.19,0-.82-.37-1.03-.46-.4-.16-.79-.33-1.17-.51-.88-.41-1.75-.86-2.58-1.36-1.67-.99-3.17-2.15-4.61-3.46-3.21-2.92-6.45-5.82-9.72-8.68-6.54-5.73-13.2-11.32-19.98-16.76-12.5-10.05-25.33-19.72-38.69-28.6s-26.54-16.54-40.71-23.13-28.62-11.79-43.71-15.15c-16.75-3.74-34.07-5.11-51.2-4.15-16.78.94-33.29,4.21-49.27,9.38-15.69,5.08-30.79,11.81-45.52,19.19s-30.01,14.74-45.52,21.08-31.32,11.96-47.37,16.81c-8.02,2.42-16.11,4.65-24.24,6.68-8.34,2.08-16.75,3.86-25.1,5.91-1.99.49-3.98,1-5.97,1.51-.98.25-1.95.51-2.93.77-.81.22-1.89.31-2.5.93-.5.51-.53,1.21-.23,1.82,7.76,16.28,17.23,31.74,28.21,46.04,10.9,14.19,23.21,27.26,36.77,38.93s28.44,22.09,44.16,30.81,33.04,16.12,50.59,21.48,36.39,9,55.04,10.57,38.99,1.11,58.29-1.5c18.85-2.55,37.41-7.15,55.26-13.71,17.39-6.4,34.11-14.62,49.77-24.53s30.03-21.28,43.17-34.12,24.85-26.99,34.98-42.24c2.46-3.71,4.82-7.48,7.09-11.31.99-1.66-1.61-3.18-2.59-1.51Z"/>
              </g>
              <path class="cls-6" d="M1494.13,1744.47c-45.1,76.26-129,127.6-224.92,127.6-104.27,0-194.29-60.68-235.83-148.02l.06-.06c6.65-1.81,13.65-3.56,20.83-5.13,4.55-.99,9.04-2.04,13.59-3.21,31.62,37.17,72.17,66.75,118.03,83.2,52.57,18.9,111.97,19.9,164.13-.12,42.71-16.45,79.99-47.26,103.21-86.53,10.56,8.46,20.83,17.27,30.81,26.37,2.92,2.68,6.36,4.61,10.04,5.89h.06Z"/>
            </g>
            <g>
              <g>
                <path class="cls-14" d="M1087.32,954.69c41.67,4.77,82.11,19.01,124.04,20.32,59.94,1.88,117.08-22.6,175.58-35.7,36.36-8.14,77.46-11.04,108.04,10.13,7.71,5.34,15.9,13.27,18.6,22.22,3.09,10.26-1.19,20.8-7.2,29.68-6.01,8.88-14.69,15.63-23.65,21.59-46.4,30.86-103.32,43.79-159.14,43.19s-110.83-14.08-163.49-32.51c-32.03-11.21-63.66-24.4-91.69-43.46-8.55-5.81-16.71-12.15-25.17-18.09-3.77-2.65-17.79,1.53-27.8-17.76-2.75-5.3,35.46-1.42,40.63-1.41,10.44,0,20.88.6,31.24,1.79Z"/>
                <path d="M1087.32,956.19c19.96,2.3,39.57,6.76,59.21,10.91,19.52,4.13,39.2,7.99,59.17,9.15,19.47,1.13,38.97-.61,58.14-3.99s38.25-8.41,57.09-13.7,37.82-10.94,56.95-15.6c17.17-4.18,34.59-7.54,52.29-8.16,16.78-.59,33.98,1.26,49.54,7.91,7.72,3.3,15.1,7.74,21.32,13.41s11.97,13.32,12.09,22.3-4.63,18.11-10.16,25.09-12.81,12.65-20.26,17.65c-15.08,10.12-31.38,18.38-48.35,24.81-17.03,6.46-34.73,11.12-52.68,14.18-18.03,3.07-36.33,4.5-54.61,4.49-19.96-.01-39.91-1.71-59.63-4.73-19.86-3.04-39.5-7.4-58.87-12.7-19.26-5.26-38.27-11.43-57.03-18.25s-35.83-13.87-52.89-22.68c-8.53-4.4-16.86-9.18-24.91-14.41-8.5-5.52-16.58-11.64-24.78-17.59-2.23-1.62-4.45-3.78-7.22-4.42-1.68-.38-3.41-.52-5.11-.81-5.28-.9-10-3.04-13.8-6.89-1.34-1.36-2.54-2.85-3.6-4.44-.57-.86-1.12-1.74-1.62-2.63-.29-.5-.52-1.07-.84-1.55,0,0,.04.13.05.17.02.17-.05.23-.06.38,0-.04-.26.16-.02.05.18-.08-.3.2,0,0,.1-.06.21-.11.31-.17.2-.11-.28.09.11-.04.3-.1.61-.19.92-.27,3.82-.91,8.45-.7,12.58-.61,5.29.11,10.57.42,15.85.77,3.6.24,7.2.55,10.81.57,10.03.05,20.05.65,30.02,1.79,1.92.22,1.9-2.78,0-3-10.42-1.18-20.84-1.66-31.31-1.79-3.52-.04-7.04-.41-10.55-.64-5.39-.35-10.78-.65-16.18-.72-4.07-.05-8.67-.31-12.62.91-1.19.37-2.5,1.01-2.8,2.33-.25,1.09.41,2.06.91,2.97,1.06,1.92,2.27,3.74,3.63,5.47,3.77,4.79,8.86,8.25,14.8,9.72,1.98.49,3.99.74,6,1.04.74.11,1.48.23,2.2.43.15.04.3.09.45.14.29.09.22.09.15.06.59.31,1.12.73,1.66,1.11,8.47,6,16.68,12.36,25.3,18.14,16.28,10.92,33.77,19.9,51.75,27.67,18.16,7.84,36.81,14.55,55.62,20.68s39.26,11.91,59.28,16.32c19.87,4.37,40.01,7.6,60.29,9.3s38.89,1.83,58.28.27,36.86-4.51,54.77-9.3,35.3-11.31,51.77-19.74c8.2-4.2,16.17-8.87,23.81-14.02s14.95-10.82,20.65-18.05,10.32-15.92,10.87-25.15-3.96-17.14-10.1-23.57c-11.85-12.39-28.57-19.67-45.2-22.83s-34.93-2.58-52.2-.14c-18.72,2.65-37.09,7.49-55.29,12.52-19.34,5.34-38.56,11.14-58.02,16.05-19.26,4.86-38.8,8.86-58.62,10.47-20.13,1.64-40.14.33-60.04-2.96s-40.05-8.21-60.13-12.08c-9.66-1.86-19.37-3.48-29.14-4.6-1.91-.22-1.9,2.78,0,3Z"/>
              </g>
              <g>
                <path class="cls-13" d="M1512.68,988.89c-.53,1.4-1.05,2.8-1.63,4.2,0,.06,0,.12-.06.18-.64,1.58-1.28,3.15-1.93,4.73-13.71,32.73-33.96,60.86-61.38,86.29l-.76.82c-23.98,25.21-51.75,49.59-82.56,72.52-56.13,41.66-79,61.79-87.52,85.65-1.28,3.44-4.49,5.78-8.17,5.78s-6.94-2.33-8.17-5.78c-8.58-23.86-31.45-43.99-87.58-85.65-35.83-26.66-67.27-55.02-93.47-84.43-10.56-11.14-19.9-22.81-28.06-35.12-.64-.93-1.17-1.69-1.63-2.39l-1.75-2.86c-5.66-8.99-10.73-18.32-15.23-27.83-7.58-16.28-13.36-33.26-17.33-50.7,45.28,3.97,90.03,19.78,133.2,34.37,72.93,24.68,144.23,47.73,222.12,45.28,54.96-1.75,100.53-17.62,141.9-45.04Z"/>
                <path d="M1511.23,988.49c-9.54,25.41-23.34,49.04-40.8,69.82-4.43,5.27-9.08,10.37-13.9,15.28-4.51,4.6-9.22,8.98-13.7,13.61-10.19,10.54-20.8,20.68-31.73,30.45s-23.03,19.85-35.02,29.19-24.21,18.15-36.21,27.38c-9.42,7.25-18.76,14.61-27.75,22.39-6.75,5.84-13.33,11.92-19.3,18.56-4.65,5.17-8.96,10.72-12.4,16.78-1.54,2.7-2.88,5.51-4.05,8.39-.72,1.78-1.22,3.66-2.61,5.07-2,2.03-5.08,2.71-7.74,1.64-3.87-1.55-4.65-6-6.2-9.42-1.28-2.82-2.76-5.55-4.39-8.17-3.81-6.12-8.45-11.71-13.39-16.94-6.41-6.78-13.39-13.01-20.51-19.03-9.48-8-19.29-15.63-29.17-23.14-12.27-9.34-24.76-18.38-36.83-27.97s-23.04-18.92-34.05-28.96-20.96-19.78-30.84-30.25-20.14-21.52-29.01-33.25c-17.05-22.54-30.33-47.95-38.94-74.87-2.23-6.96-4.14-14.02-5.77-21.14l-1.45,1.9c17.84,1.58,35.47,4.98,52.82,9.36s34.6,9.77,51.66,15.42c16.88,5.59,33.68,11.4,50.56,17s33.03,10.76,49.71,15.57,33.35,9.12,50.28,12.65c16.82,3.51,33.81,6.24,50.92,7.92,17.43,1.71,34.99,2.33,52.5,1.6,15.89-.66,31.74-2.56,47.3-5.87s29.26-7.57,43.25-13.26,27.01-12.33,39.67-20.07c3.14-1.92,6.25-3.9,9.32-5.94,1.6-1.06.1-3.66-1.51-2.59-12.41,8.22-25.42,15.55-38.97,21.71s-27.74,11.14-42.2,14.84-30.55,6.33-46.09,7.54c-17.19,1.33-34.5,1.2-51.69,0s-34.35-3.53-51.31-6.72-33.47-7.17-49.97-11.71-33.26-9.72-49.74-15.08c-16.74-5.45-33.38-11.15-50.06-16.77s-34.11-11.34-51.42-16.13-34.48-8.67-52.09-11.03c-4.3-.58-8.6-1.06-12.92-1.44-1.02-.09-1.65,1.03-1.45,1.9,3.42,15,8.18,29.65,14.23,43.8,5.58,13.04,12.48,25.31,19.88,37.39,3.45,5.63,7.46,11.02,11.46,16.27,4.64,6.09,9.54,11.98,14.68,17.65,9.69,10.69,19.51,21.25,29.83,31.34,21.66,21.18,44.97,40.61,69.27,58.68,11.47,8.52,22.89,17.11,34.07,26.01,8.37,6.67,16.64,13.51,24.44,20.84,10.34,9.71,20.35,20.64,25.92,33.79.72,1.69,1.2,3.57,2.15,5.15,1.5,2.48,4.06,4.28,6.92,4.78s5.71-.21,7.98-1.97c2.07-1.61,3.03-3.73,3.94-6.1,2.21-5.78,5.41-11.32,9.09-16.38,4.57-6.29,9.94-11.99,15.54-17.37,7.4-7.13,15.28-13.76,23.27-20.21,23.02-18.56,47.36-35.39,70.06-54.36,11.6-9.69,22.88-19.77,33.76-30.26,5.21-5.02,10.33-10.14,15.35-15.36,4.55-4.73,9.4-9.16,13.98-13.88,18.87-19.47,34.77-41.76,46.32-66.32,2.91-6.18,5.56-12.49,7.96-18.88.68-1.81-2.22-2.59-2.89-.8Z"/>
              </g>
              <path class="cls-12" d="M1509.06,995.07c-13.71,32.73-33.96,60.86-61.38,86.29l-.76.82c-23.98,25.21-51.75,49.59-82.56,72.52-56.13,41.66-79,61.79-87.52,85.65-1.28,3.44-4.49,5.78-8.17,5.78s-6.94-2.33-8.17-5.78c-8.58-23.86-31.45-43.99-87.58-85.65-35.83-26.66-67.27-55.02-93.47-84.43-10.56-11.14-19.9-22.81-28.06-35.12-.64-.93-1.17-1.69-1.63-2.39l-1.75-2.86c-5.66-8.99-10.73-18.32-15.23-27.83,33.43,31.22,66.81,62.43,100.24,93.65,18.5,17.33,37.17,34.72,58.58,48.31,21.41,13.54,45.98,23.16,71.3,23.28,24.8.12,48.89-8.93,70.07-21.76,21.24-12.78,39.85-29.35,58.35-45.8,28.41-25.26,56.77-50.47,85.18-75.73,10.44-9.28,20.83-18.55,31.27-27.83.41-.35.88-.76,1.28-1.11Z"/>
            </g>
            <g>
              <path class="cls-12" d="M1175.14,1676.39c8.89-4.37,44.21-22.54,66.07-48.28,7.4-8.71,12.62-17.43,16.05-26.14,3.54-8.71,4.95-17.43,5.68-26.14.94-8.71,1.57-17.43,1.97-26.14,1.66-34.86-2.25-69.71-2.2-104.57-.23-17.43.44-34.86.88-52.28.53-17.43.36-34.86-.09-52.28-.7-34.86-1.73-69.71-3.87-104.57h19.15c-1.05,18.25-1.89,35.7-2.47,52.28-.61,17.43-1.05,34.86-1.39,52.28-.45,17.43-.62,34.86-.09,52.28.44,17.43,1.11,34.86.88,52.28.05,34.86-3.85,69.71-2.2,104.57.4,8.71,1.03,17.43,1.97,26.14.72,8.71,2.14,17.43,5.68,26.14,3.43,8.71,8.65,17.43,16.05,26.14,2.44,2.86,5.09,5.72,8.06,8.58,8.59,8.27,16.89,13.89,23.15,17.56"/>
              <path d="M1277.29,1235.99c-1.66,28.86-2.78,57.74-3.48,86.64-.36,14.85-.76,29.71-.81,44.57-.05,14.86.45,29.71.84,44.57s.54,29.51.26,44.26-1.11,29.74-1.74,44.6-1.04,29.4-.56,44.11c.24,7.41.69,14.83,1.32,22.22.59,6.92,1.12,13.91,2.38,20.74,4.92,26.69,23.82,49.12,45.9,63.93,2.05,1.37,4.14,2.68,6.26,3.93,1.67.98,3.18-1.61,1.51-2.59-10.73-6.31-20.49-14.23-28.81-23.5-8.94-9.97-16.3-21.61-20.08-34.53-1.97-6.74-2.75-13.61-3.47-20.57s-1.29-14.46-1.67-21.7c-.76-14.69-.62-29.39-.1-44.09s1.35-29.07,1.82-43.61.49-29.49.18-44.22-.92-29.37-1.03-44.07c-.12-14.69.24-29.38.56-44.07.62-28.6,1.56-57.18,3.1-85.75.19-3.62.4-7.23.6-10.85.11-1.93-2.89-1.92-3,0h0Z"/>
              <path d="M1175.89,1677.69c7.09-3.49,14-7.33,20.75-11.44,10.87-6.62,21.35-13.99,30.95-22.36,11.1-9.68,21.11-20.95,27.81-34.15,3.6-7.11,6.19-14.66,7.59-22.5s2.06-16.65,2.67-24.97c1.27-17.31,1.35-34.63.76-51.98s-1.68-34.84-2.07-52.28c-.39-17.41-.1-34.82.38-52.22s.83-34.84.54-52.28-.72-34.86-1.25-52.28-1.22-35.03-2.17-52.53c-.23-4.23-.47-8.47-.73-12.7-.12-1.92-3.12-1.93-3,0,1.06,17.33,1.85,34.68,2.46,52.03s1.04,34.52,1.39,51.79.64,34.69.13,52.03c-.5,17.34-1.11,34.69-.92,52.03.19,17.29.87,34.52,1.64,51.79.76,17.17,1.37,34.36.68,51.54-.34,8.57-.92,17.13-1.77,25.66s-1.72,16.42-4.33,24.34c-4.77,14.5-13.9,27.13-24.66,37.79-9.27,9.19-19.73,17.12-30.64,24.24-7.89,5.15-16.06,9.89-24.44,14.19-1.09.56-2.19,1.11-3.29,1.66-1.73.85-.21,3.44,1.51,2.59h0Z"/>
            </g>
          </g>
        </g>
        <g>
          <g>
            <g>
              <path class="cls-2" d="M1244.88,26.52v317.7c0,13.08,11.5,25.6,25,25s25-10.98,25-25V26.52c0-13.08-11.5-25.6-25-25-13.55.61-25,10.98-25,25h0Z"/>
              <path d="M1243.38,26.52v171.33c0,28.51,0,57.02,0,85.53,0,14.3,0,28.59,0,42.89v10.48c0,3.28-.22,6.64.13,9.9.54,5.01,2.5,9.75,5.57,13.74,3.06,3.98,7.13,7.12,11.84,8.9s9.78,1.81,14.61.65c9.28-2.23,17.16-9.22,19.84-18.47.73-2.52,1.01-5.12,1.01-7.74,0-3.49,0-6.98,0-10.48V33.51c0-5.79.25-11.37-2.03-16.81-3.84-9.19-12.71-16.36-22.87-16.68-9.58-.3-19.19,4.76-24.26,12.9-2.54,4.08-3.81,8.82-3.85,13.61-.01,1.93,2.99,1.93,3,0,.07-9.5,5.93-17.87,14.66-21.52,4.3-1.8,9.27-2.56,13.86-1.57s8.86,3.63,12.08,7.16,5.49,8.11,6.19,12.89c.43,2.97.21,6.05.21,9.04v10.48c0,13.8,0,27.6,0,41.4,0,27.76,0,55.52,0,83.28v166.59c0,5.75.65,11.84-1.2,17.38-1.41,4.22-4.14,7.93-7.61,10.69-7.47,5.93-18.25,7.34-26.51,2.25-4.08-2.51-7.33-6.25-9.41-10.56-1.02-2.11-1.72-4.41-2.06-6.73-.43-2.97-.21-6.05-.21-9.04V26.52c0-1.93-3-1.93-3,0Z"/>
            </g>
            <g>
              <path class="cls-2" d="M1244.88,2195.58v317.7c0,13.08,11.5,25.6,25,25s25-10.98,25-25v-317.7c0-13.08-11.5-25.6-25-25s-25,10.98-25,25h0Z"/>
              <path d="M1243.38,2195.58v310.22c0,3.28-.22,6.64.13,9.9.54,5.01,2.5,9.75,5.57,13.74s7.13,7.12,11.84,8.9,9.78,1.81,14.61.65c9.28-2.23,17.16-9.22,19.84-18.47.73-2.52,1.01-5.12,1.01-7.74,0-3.49,0-6.98,0-10.48,0-7.15,0-14.3,0-21.45v-278.3c0-5.79.25-11.37-2.03-16.81-3.84-9.19-12.71-16.36-22.87-16.68-9.58-.3-19.19,4.76-24.26,12.9-2.54,4.08-3.81,8.82-3.85,13.61-.01,1.93,2.99,1.93,3,0,.07-9.5,5.93-17.87,14.66-21.52,4.3-1.8,9.27-2.56,13.86-1.57s8.86,3.63,12.08,7.16,5.49,8.11,6.19,12.89c.43,2.97.21,6.05.21,9.04v218.44c0,27.77,0,55.54,0,83.3,0,5.75.65,11.84-1.2,17.38-1.41,4.22-4.14,7.93-7.61,10.69-7.47,5.93-18.25,7.34-26.51,2.25-4.08-2.51-7.33-6.25-9.41-10.56-1.02-2.11-1.72-4.41-2.06-6.73-.43-2.97-.21-6.05-.21-9.04v-311.72c0-1.93-3-1.93-3,0Z"/>
            </g>
          </g>
          <g>
            <g>
              <path class="cls-2" d="M2513.26,1244.9c-35.75,0-71.5,0-107.25,0-57.02,0-114.03,0-171.05,0-13.14,0-26.27,0-39.41,0s-25.6,11.5-25,25c.61,13.55,10.98,25,25,25,35.75,0,71.5,0,107.25,0,57.02,0,114.03,0,171.05,0,13.14,0,26.27,0,39.41,0s25.6-11.5,25-25-10.98-25-25-25h0Z"/>
              <path d="M2513.26,1243.4c-28.6,0-57.2,0-85.8,0-28.51,0-57.02,0-85.53,0-28.51,0-57.02,0-85.53,0-14.3,0-28.59,0-42.89,0-3.49,0-6.98,0-10.48,0-3.28,0-6.64-.22-9.9.13-5.01.54-9.75,2.5-13.74,5.57s-7.12,7.13-8.9,11.84-1.81,9.78-.65,14.61c2.23,9.28,9.22,17.16,18.47,19.84,2.52.73,5.12,1.01,7.74,1.01,3.49,0,6.98,0,10.48,0,7.15,0,14.3,0,21.45,0,14.3,0,28.6,0,42.9,0,28.51,0,57.02,0,85.53,0s57.02,0,85.53,0c14.3,0,28.59,0,42.89,0,7.15,0,14.3,0,21.45,0,5.79,0,11.37.25,16.81-2.03,9.19-3.84,16.36-12.71,16.68-22.87.3-9.58-4.76-19.19-12.9-24.26-4.08-2.54-8.82-3.81-13.61-3.85-1.93-.01-1.93,2.99,0,3,9.5.07,17.87,5.93,21.52,14.66,1.8,4.3,2.56,9.27,1.57,13.86s-3.63,8.86-7.16,12.08-8.11,5.49-12.89,6.19c-2.97.43-6.05.21-9.04.21-3.49,0-6.98,0-10.48,0-13.8,0-27.6,0-41.4,0-27.76,0-55.52,0-83.28,0s-55.52,0-83.28,0c-27.77,0-55.54,0-83.3,0-5.75,0-11.84.65-17.38-1.2-4.22-1.41-7.93-4.14-10.69-7.61-5.93-7.47-7.34-18.25-2.25-26.51,2.51-4.08,6.25-7.33,10.56-9.41,2.11-1.02,4.41-1.72,6.73-2.06,2.97-.43,6.05-.21,9.04-.21,13.97,0,27.93,0,41.9,0,27.76,0,55.52,0,83.28,0,27.68,0,55.36,0,83.03,0,27.77,0,55.54,0,83.3,0,6.73,0,13.47,0,20.2,0,1.93,0,1.93-3,0-3Z"/>
            </g>
            <g>
              <path class="cls-2" d="M344.2,1244.9c-35.75,0-71.5,0-107.25,0-57.02,0-114.03,0-171.05,0-13.14,0-26.27,0-39.41,0s-25.6,11.5-25,25,10.98,25,25,25c35.75,0,71.5,0,107.25,0,57.02,0,114.03,0,171.05,0,13.14,0,26.27,0,39.41,0s25.6-11.5,25-25c-.61-13.55-10.98-25-25-25h0Z"/>
              <path d="M344.2,1243.4c-28.6,0-57.2,0-85.8,0-28.51,0-57.02,0-85.53,0-28.51,0-57.02,0-85.53,0-14.3,0-28.59,0-42.89,0-3.49,0-6.98,0-10.48,0-3.28,0-6.64-.22-9.9.13-5.01.54-9.75,2.5-13.74,5.57s-7.12,7.13-8.9,11.84-1.81,9.78-.65,14.61c2.23,9.28,9.22,17.16,18.47,19.84,2.52.73,5.12,1.01,7.74,1.01,3.49,0,6.98,0,10.48,0,7.15,0,14.3,0,21.45,0,14.3,0,28.6,0,42.9,0,28.51,0,57.02,0,85.53,0,28.51,0,57.02,0,85.53,0,14.3,0,28.59,0,42.89,0,7.15,0,14.3,0,21.45,0,5.79,0,11.37.25,16.81-2.03,9.19-3.84,16.36-12.71,16.68-22.87.3-9.58-4.76-19.19-12.9-24.26-4.08-2.54-8.82-3.81-13.61-3.85-1.93-.01-1.93,2.99,0,3,9.5.07,17.87,5.93,21.52,14.66,1.8,4.3,2.56,9.27,1.57,13.86s-3.63,8.86-7.16,12.08-8.11,5.49-12.89,6.19c-2.97.43-6.05.21-9.04.21-3.49,0-6.98,0-10.48,0-13.8,0-27.6,0-41.4,0-27.76,0-55.52,0-83.28,0s-55.52,0-83.28,0-55.54,0-83.3,0c-5.75,0-11.84.65-17.38-1.2-4.22-1.41-7.93-4.14-10.69-7.61-5.93-7.47-7.34-18.25-2.25-26.51,2.51-4.08,6.25-7.33,10.56-9.41,2.11-1.02,4.41-1.72,6.73-2.06,2.97-.43,6.05-.21,9.04-.21,13.97,0,27.93,0,41.9,0,27.76,0,55.52,0,83.28,0,27.68,0,55.36,0,83.03,0,27.77,0,55.54,0,83.3,0,6.73,0,13.47,0,20.2,0,1.93,0,1.93-3,0-3Z"/>
            </g>
          </g>
          <g>
            <g>
              <path class="cls-2" d="M2166.76,2131.43c-25.28-25.28-50.56-50.56-75.84-75.84-40.32-40.32-80.63-80.63-120.95-120.95-9.29-9.29-18.58-18.58-27.86-27.86s-26.22-9.95-35.36,0c-9.16,9.98-9.88,25.47,0,35.36,25.28,25.28,50.56,50.56,75.84,75.84,40.32,40.32,80.63,80.63,120.95,120.95,9.29,9.29,18.58,18.58,27.86,27.86,9.26,9.26,26.22,9.95,35.36,0,9.16-9.98,9.88-25.47,0-35.36h0Z"/>
              <path d="M2167.82,2130.37c-20.22-20.22-40.45-40.45-60.67-60.67-20.1-20.1-40.2-40.2-60.3-60.3-20.16-20.16-40.32-40.32-60.48-60.48-10.05-10.05-20.1-20.1-30.15-30.15-2.59-2.59-5.17-5.17-7.76-7.76-2.22-2.22-4.35-4.62-6.76-6.64-3.68-3.09-8.2-5.12-12.94-5.9s-9.68-.44-14.17,1.3-8.51,4.96-11.39,9.07c-5.75,8.2-6.79,19.31-2.05,28.22,1.28,2.41,2.98,4.55,4.91,6.48,2.47,2.47,4.94,4.94,7.41,7.41,5.06,5.06,10.11,10.11,15.17,15.17,10.11,10.11,20.22,20.22,30.33,30.33,20.1,20.1,40.2,40.2,60.31,60.31,20.16,20.16,40.32,40.32,60.48,60.48,10.05,10.05,20.1,20.1,30.15,30.15,5.06,5.06,10.11,10.11,15.17,15.17,4,4,7.7,8.2,12.97,10.51,8.82,3.88,19.65,3.17,27.31-2.92s11.48-17.08,9.52-26.77c-1-4.94-3.52-9.44-7.04-13.01-1.36-1.38-3.48.74-2.12,2.12,7.06,7.16,8.6,18.04,4.2,27.04-2.08,4.26-5.24,7.99-9.43,10.27s-8.76,2.99-13.33,2.59-9.08-2.09-12.69-4.9c-2.32-1.81-4.32-4.1-6.39-6.17-2.41-2.41-4.82-4.82-7.23-7.23-9.87-9.87-19.75-19.75-29.62-29.62-19.57-19.57-39.14-39.14-58.71-58.71-19.57-19.57-39.14-39.14-58.71-58.72s-39.27-39.27-58.91-58.91c-4.17-4.17-9.04-8.1-11.62-13.52-2-4.19-2.61-9.09-1.83-13.66.82-4.87,3.04-9.48,6.4-13.11,3.18-3.45,7.42-5.59,12.02-6.41s9.07-.27,13.27,1.31c5.19,1.96,8.7,5.85,12.53,9.69,9.76,9.76,19.52,19.52,29.27,29.27,19.63,19.63,39.26,39.26,58.89,58.89,19.63,19.63,39.26,39.26,58.89,58.89s39.15,39.15,58.73,58.73c4.76,4.76,9.52,9.52,14.29,14.29,1.37,1.37,3.49-.75,2.12-2.12Z"/>
            </g>
            <g>
              <path class="cls-2" d="M633,597.67c-25.28-25.28-50.56-50.56-75.84-75.84-40.32-40.32-80.63-80.63-120.95-120.95-9.29-9.29-18.58-18.58-27.86-27.86s-26.22-9.95-35.36,0-9.88,25.47,0,35.36c25.28,25.28,50.56,50.56,75.84,75.84,40.32,40.32,80.63,80.63,120.95,120.95,9.29,9.29,18.58,18.58,27.86,27.86s26.22,9.95,35.36,0,9.88-25.47,0-35.36h0Z"/>
              <path d="M634.06,596.61c-20.22-20.22-40.45-40.45-60.67-60.67-20.1-20.1-40.2-40.2-60.3-60.3-20.16-20.16-40.32-40.32-60.48-60.48-10.05-10.05-20.1-20.1-30.15-30.15-2.59-2.59-5.17-5.17-7.76-7.76-2.22-2.22-4.35-4.62-6.76-6.64-3.68-3.09-8.2-5.12-12.94-5.9s-9.68-.44-14.17,1.3c-4.7,1.82-8.51,4.96-11.39,9.07-5.75,8.2-6.79,19.31-2.05,28.22,1.28,2.41,2.98,4.55,4.91,6.48,2.47,2.47,4.94,4.94,7.41,7.41,5.06,5.06,10.11,10.11,15.17,15.17,10.11,10.11,20.22,20.22,30.33,30.33,20.1,20.1,40.2,40.2,60.31,60.31,20.16,20.16,40.32,40.32,60.48,60.48,10.05,10.05,20.1,20.1,30.15,30.15,5.06,5.06,10.11,10.11,15.17,15.17,4,4,7.7,8.2,12.97,10.51,8.82,3.88,19.65,3.17,27.31-2.92s11.48-17.08,9.52-26.77c-1-4.94-3.52-9.44-7.04-13.01-1.36-1.38-3.48.74-2.12,2.12,7.06,7.16,8.6,18.04,4.2,27.04-2.08,4.26-5.24,7.99-9.43,10.27s-8.76,2.99-13.33,2.59-9.08-2.09-12.69-4.9c-2.32-1.81-4.32-4.1-6.39-6.17-2.41-2.41-4.82-4.82-7.23-7.23-9.87-9.87-19.75-19.75-29.62-29.62-19.57-19.57-39.14-39.14-58.71-58.71-19.57-19.57-39.14-39.14-58.71-58.72-19.64-19.64-39.27-39.27-58.91-58.91-4.17-4.17-9.04-8.1-11.62-13.52-2-4.19-2.61-9.09-1.83-13.66.82-4.87,3.04-9.48,6.4-13.11,3.18-3.45,7.42-5.59,12.02-6.41s9.07-.27,13.27,1.31c5.19,1.96,8.7,5.85,12.53,9.69,9.76,9.76,19.52,19.52,29.27,29.27,19.63,19.63,39.26,39.26,58.89,58.89s39.26,39.26,58.89,58.89,39.15,39.15,58.73,58.73c4.76,4.76,9.52,9.52,14.29,14.29,1.37,1.37,3.49-.75,2.12-2.12Z"/>
            </g>
          </g>
          <g>
            <g>
              <path class="cls-2" d="M408.35,2166.78c25.28-25.28,50.56-50.56,75.84-75.84,40.32-40.32,80.63-80.63,120.95-120.95,9.29-9.29,18.58-18.58,27.86-27.86s9.95-26.22,0-35.36-25.47-9.88-35.36,0c-25.28,25.28-50.56,50.56-75.84,75.84-40.32,40.32-80.63,80.63-120.95,120.95-9.29,9.29-18.58,18.58-27.86,27.86-9.26,9.26-9.95,26.22,0,35.36,9.98,9.16,25.47,9.88,35.36,0h0Z"/>
              <path d="M409.41,2167.84c20.22-20.22,40.45-40.45,60.67-60.67s40.2-40.2,60.3-60.3,40.32-40.32,60.48-60.48c10.05-10.05,20.1-20.1,30.15-30.15,2.59-2.59,5.17-5.17,7.76-7.76,2.22-2.22,4.62-4.35,6.64-6.76,3.09-3.68,5.12-8.2,5.9-12.94s.44-9.68-1.3-14.17-4.96-8.51-9.07-11.39c-8.2-5.75-19.31-6.79-28.22-2.05-2.41,1.28-4.55,2.98-6.48,4.91-2.47,2.47-4.94,4.94-7.41,7.41-5.06,5.06-10.11,10.11-15.17,15.17-10.11,10.11-20.22,20.22-30.33,30.33-20.1,20.1-40.2,40.2-60.31,60.31s-40.32,40.32-60.48,60.48c-10.05,10.05-20.1,20.1-30.15,30.15-5.06,5.06-10.11,10.11-15.17,15.17-4,4-8.2,7.7-10.51,12.97-3.88,8.82-3.17,19.65,2.92,27.31s17.08,11.48,26.77,9.52c4.94-1,9.44-3.52,13.01-7.04,1.38-1.36-.74-3.48-2.12-2.12-7.16,7.06-18.04,8.6-27.04,4.2-4.26-2.08-7.99-5.24-10.27-9.43s-2.99-8.76-2.59-13.33,2.09-9.08,4.9-12.69c1.81-2.32,4.1-4.32,6.17-6.39,2.41-2.41,4.82-4.82,7.23-7.23,9.87-9.87,19.75-19.75,29.62-29.62,19.57-19.57,39.14-39.14,58.71-58.71s39.14-39.14,58.72-58.71,39.27-39.27,58.91-58.91c4.17-4.17,8.1-9.04,13.52-11.62,4.19-2,9.09-2.61,13.66-1.83,4.87.82,9.48,3.04,13.11,6.4,3.45,3.18,5.59,7.42,6.41,12.02s.27,9.07-1.31,13.27c-1.96,5.19-5.85,8.7-9.69,12.53-9.76,9.76-19.52,19.52-29.27,29.27-19.63,19.63-39.26,39.26-58.89,58.89-19.63,19.63-39.26,39.26-58.89,58.89-19.58,19.58-39.15,39.15-58.73,58.73-4.76,4.76-9.52,9.52-14.29,14.29-1.37,1.37.75,3.49,2.12,2.12Z"/>
            </g>
            <g>
              <path class="cls-2" d="M1942.11,633.03c25.28-25.28,50.56-50.56,75.84-75.84,40.32-40.32,80.63-80.63,120.95-120.95,9.29-9.29,18.58-18.58,27.86-27.86s9.95-26.22,0-35.36c-9.98-9.16-25.47-9.88-35.36,0-25.28,25.28-50.56,50.56-75.84,75.84-40.32,40.32-80.63,80.63-120.95,120.95-9.29,9.29-18.58,18.58-27.86,27.86s-9.95,26.22,0,35.36,25.47,9.88,35.36,0h0Z"/>
              <path d="M1943.17,634.09c20.22-20.22,40.45-40.45,60.67-60.67,20.1-20.1,40.2-40.2,60.3-60.3,20.16-20.16,40.32-40.32,60.48-60.48,10.05-10.05,20.1-20.1,30.15-30.15,2.59-2.59,5.17-5.17,7.76-7.76,2.22-2.22,4.62-4.35,6.64-6.76,3.09-3.68,5.12-8.2,5.9-12.94s.44-9.68-1.3-14.17-4.96-8.51-9.07-11.39c-8.2-5.75-19.31-6.79-28.22-2.05-2.41,1.28-4.55,2.98-6.48,4.91-2.47,2.47-4.94,4.94-7.41,7.41-5.06,5.06-10.11,10.11-15.17,15.17-10.11,10.11-20.22,20.22-30.33,30.33-20.1,20.1-40.2,40.2-60.31,60.31s-40.32,40.32-60.48,60.48c-10.05,10.05-20.1,20.1-30.15,30.15-5.06,5.06-10.11,10.11-15.17,15.17-4,4-8.2,7.7-10.51,12.97-3.88,8.82-3.17,19.65,2.92,27.31,6.2,7.8,17.08,11.48,26.77,9.52,4.94-1,9.44-3.52,13.01-7.04,1.38-1.36-.74-3.48-2.12-2.12-7.16,7.06-18.04,8.6-27.04,4.2-4.26-2.08-7.99-5.24-10.27-9.43s-2.99-8.76-2.59-13.33,2.09-9.08,4.9-12.69c1.81-2.32,4.1-4.32,6.17-6.39,2.41-2.41,4.82-4.82,7.23-7.23,9.87-9.87,19.75-19.75,29.62-29.62,19.57-19.57,39.14-39.14,58.71-58.71,19.57-19.57,39.14-39.14,58.72-58.71,19.64-19.64,39.27-39.27,58.91-58.91,4.17-4.17,8.1-9.04,13.52-11.62,4.19-2,9.09-2.61,13.66-1.83,4.87.82,9.48,3.04,13.11,6.4,3.45,3.18,5.59,7.42,6.41,12.02s.27,9.07-1.31,13.27c-1.96,5.19-5.85,8.7-9.69,12.53-9.76,9.76-19.52,19.52-29.27,29.27-19.63,19.63-39.26,39.26-58.89,58.89-19.63,19.63-39.26,39.26-58.89,58.89-19.58,19.58-39.15,39.15-58.73,58.73-4.76,4.76-9.52,9.52-14.29,14.29-1.37,1.37.75,3.49,2.12,2.12Z"/>
            </g>
          </g>
        </g>
      </g>
    </g>
  </g>
</svg>