<?xml version="1.0" encoding="UTF-8"?>
<svg id="Layer_1" data-name="Layer 1" xmlns="http://www.w3.org/2000/svg" viewBox="0 0 1921.19 1062.3">
  <defs>
    <style>
      .cls-1 {
        fill: #fff;
      }
    </style>
  </defs>
  <g>
    <g>
      <path class="cls-1" d="M0,491.15h193.56v474.37c0,53.42-43.37,96.78-96.78,96.78h0C43.37,1062.3,0,1018.94,0,965.52v-474.37H0Z"/>
      <path class="cls-1" d="M192.85,491.15h193.56v474.37c0,53.42-43.37,96.78-96.78,96.78h0c-53.42,0-96.78-43.37-96.78-96.78v-474.37h0Z"/>
    </g>
    <g>
      <path class="cls-1" d="M383.69,491.15h193.56v474.37c0,53.42-43.37,96.78-96.78,96.78h0c-53.42,0-96.78-43.37-96.78-96.78v-474.37h0Z"/>
      <path class="cls-1" d="M576.54,491.15h193.56v474.37c0,53.42-43.37,96.78-96.78,96.78h0c-53.42,0-96.78-43.37-96.78-96.78v-474.37h0Z"/>
    </g>
    <g>
      <path class="cls-1" d="M767.39,491.15h193.56v474.37c0,53.42-43.37,96.78-96.78,96.78h0c-53.42,0-96.78-43.37-96.78-96.78v-474.37h0Z"/>
      <path class="cls-1" d="M960.23,491.15h193.56v474.37c0,53.42-43.37,96.78-96.78,96.78h0c-53.42,0-96.78-43.37-96.78-96.78v-474.37h0Z"/>
    </g>
    <g>
      <path class="cls-1" d="M1151.08,491.15h193.56v474.37c0,53.42-43.37,96.78-96.78,96.78h0c-53.42,0-96.78-43.37-96.78-96.78v-474.37h0Z"/>
      <path class="cls-1" d="M1343.93,491.15h193.56v474.37c0,53.42-43.37,96.78-96.78,96.78h0c-53.42,0-96.78-43.37-96.78-96.78v-474.37h0Z"/>
    </g>
    <g>
      <path class="cls-1" d="M1534.77,491.15h193.56v474.37c0,53.42-43.37,96.78-96.78,96.78h0c-53.42,0-96.78-43.37-96.78-96.78v-474.37h0Z"/>
      <path class="cls-1" d="M1727.62,491.15h193.56v474.37c0,53.42-43.37,96.78-96.78,96.78h0c-53.42,0-96.78-43.37-96.78-96.78v-474.37h0Z"/>
    </g>
  </g>
  <g>
    <g>
      <path class="cls-1" d="M1727.62,0h193.56v394.37c0,53.42-43.37,96.78-96.78,96.78h0c-53.42,0-96.78-43.37-96.78-96.78V0h0Z" transform="translate(3648.81 491.15) rotate(180)"/>
      <path class="cls-1" d="M1534.77,0h193.56v394.37c0,53.42-43.37,96.78-96.78,96.78h0c-53.42,0-96.78-43.37-96.78-96.78V0h0Z" transform="translate(3263.11 491.15) rotate(180)"/>
    </g>
    <g>
      <path class="cls-1" d="M1343.93,0h193.56v394.37c0,53.42-43.37,96.78-96.78,96.78h0c-53.42,0-96.78-43.37-96.78-96.78V0h0Z" transform="translate(2881.42 491.15) rotate(180)"/>
      <path class="cls-1" d="M1151.08,0h193.56v394.37c0,53.42-43.37,96.78-96.78,96.78h0c-53.42,0-96.78-43.37-96.78-96.78V0h0Z" transform="translate(2495.72 491.15) rotate(180)"/>
    </g>
    <g>
      <path class="cls-1" d="M960.23,0h193.56v394.37c0,53.42-43.37,96.78-96.78,96.78h0c-53.42,0-96.78-43.37-96.78-96.78V0h0Z" transform="translate(2114.03 491.15) rotate(180)"/>
      <path class="cls-1" d="M767.39,0h193.56v394.37c0,53.42-43.37,96.78-96.78,96.78h0c-53.42,0-96.78-43.37-96.78-96.78V0h0Z" transform="translate(1728.34 491.15) rotate(180)"/>
    </g>
    <g>
      <path class="cls-1" d="M576.54,0h193.56v394.37c0,53.42-43.37,96.78-96.78,96.78h0c-53.42,0-96.78-43.37-96.78-96.78V0h0Z" transform="translate(1346.65 491.15) rotate(180)"/>
      <path class="cls-1" d="M383.69,0h193.56v394.37c0,53.42-43.37,96.78-96.78,96.78h0c-53.42,0-96.78-43.37-96.78-96.78V0h0Z" transform="translate(960.95 491.15) rotate(180)"/>
    </g>
    <g>
      <path class="cls-1" d="M192.85,0h193.56v394.37c0,53.42-43.37,96.78-96.78,96.78h0c-53.42,0-96.78-43.37-96.78-96.78V0h0Z" transform="translate(579.26 491.15) rotate(180)"/>
      <path class="cls-1" d="M0,0h193.56v394.37c0,53.42-43.37,96.78-96.78,96.78h0C43.37,491.15,0,447.79,0,394.37V0H0Z" transform="translate(193.56 491.15) rotate(180)"/>
    </g>
  </g>
</svg>