<?xml version="1.0" encoding="UTF-8"?>
<svg id="Layer_1" data-name="Layer 1" xmlns="http://www.w3.org/2000/svg" viewBox="0 0 1008.63 857">
  <defs>
    <style>
      .cls-1 {
        fill: #211c17;
      }

      .cls-2 {
        fill: #29cea2;
      }
    </style>
  </defs>
  <path class="cls-1" d="M896.29,495.68c32.78,23.67,55.25,58.2,68.51,97.35,28.12,75.12-5.15,153.64-79.85,182.99-107.36,41.93-252.95-9.99-298.88-118.39-17.78-40.01-21.22-87.66-2.22-127.39,56.26-111.89,222.81-99.54,311.55-35.23l.9.66ZM632.42,544.57c-18.2-11.62-18.09,31.06-17.37,42.23,2.39,36.84,17.63,76.11,38.83,102.17,42.59,42.41,6.13-95.31-.61-107.85-6.79-18.02-14.07-31.05-20.38-36.17l-.47-.37Z"/>
  <path class="cls-1" d="M344.04,570.17c76.5-82.41,194.25-71.82,211.47-70-7.41,29.2-17.98,88.62,3.03,157.03,10.2,33.21,24.97,59.21,37.81,77.78-4.49,18.6-14.06,45.42-36.12,68.94-55.24,58.9-168.02,74.93-229.43,16.54-55.61-52.87-39.98-139.09-37.8-151.11,9.76-53.82,40.5-87.81,51.04-99.17ZM371.3,594.56c-22.08-9.65-63.8,142.85-52.36,164.82,7.47,10.89,21.21-20.89,25.49-29.8,12.21-27.13,23.41-67.52,27.36-96.46,2.84-20.01,2.89-33.98-.26-38.26l-.23-.3Z"/>
  <path class="cls-2" d="M651.69,239.37c-12.88,29.14-31.62,67.61-58.06,111.13-13.05,44.05,65.02-20.51,80.3-35.59,65.33-65.79,142.34-125.57,230.06-153.42,39.97-14.64,134.8-37.47,95.15,40.1-54.8,107.19-163.55,164.5-163.55,164.5-108.33,54.46-213.75,47.34-264.28,40.22-19.62,16.05-50.49,38.55-92.03,57.76-67.93,31.41-86.01,17.76-233.41,44.78-15.78,2.89-118.15,18.62-190.92,12.16-21.65-1.92-51.62-8.46-54.75-23.81,0,0-.95-4.39,1.29-9.55,12.48-28.83,179.88-22.92,288.38-38.46,52.65-7.54,131.13-25.81,224.28-76.66-10.82-70.14-16.34-188.81,53.58-282.9,32.8-44.14,96.18-101.66,120.91-87.41,3.8,2.19,11.72,8.97,9.8,56.05-2.66,65.39-20.79,122.39-46.75,181.11ZM583.83,133.25c-18.42,30.41-25.45,57-31.42,78.7-16.56,60.21-15.04,112.79-10.98,147.58,31.84-34.47,82.05-98.72,107.55-192.4,12.13-44.57,15.66-84.76,15.8-116.9-21.21,13.82-54.77,39.79-80.95,83.02ZM883.82,290.38c42.82-37.48,67.47-79.08,81.39-108.52-58.45,6.45-99.72,23.61-125.6,37.18-23.7,12.43-39.83,24.64-125.6,94.45-28.95,23.56-53.96,44.03-73.84,60.33,32.67.99,147.82.45,243.65-83.44Z"/>
</svg>