<?xml version="1.0" encoding="UTF-8"?>
<svg id="Layer_1" data-name="Layer 1" xmlns="http://www.w3.org/2000/svg" viewBox="0 0 609.8 539.97">
  <defs>
    <style>
      .cls-1, .cls-2, .cls-3, .cls-4, .cls-5 {
        stroke: #000;
        stroke-miterlimit: 10;
      }

      .cls-1, .cls-6 {
        fill: #ffb48f;
      }

      .cls-2 {
        fill: #ffac83;
      }

      .cls-3 {
        fill: #fff;
      }

      .cls-4 {
        fill: none;
      }

      .cls-5 {
        fill: #fdc13e;
      }

      .cls-7 {
        fill: #ffa383;
      }
    </style>
  </defs>
  <rect class="cls-2" x="-19.58" y="231.58" width="140.5" height="96.87" transform="translate(329.35 222.42) rotate(88.58)"/>
  <path class="cls-5" d="M50.13,203.16c-3.78-1.29-7.55-2.58-11.33-3.87-6.95,11.27-22.77,40.29-22.09,80.41.7,41.49,18.64,70.69,26.1,81.54,2.96-1.19,5.93-2.39,8.89-3.58-6.86-14.48-17.47-41.78-17.74-77.54-.27-35.26,9.64-62.39,16.17-76.96Z"/>
  <g>
    <path d="M274.84,50.01c58.67.73,46.5-9.22,106.77-8.88,55.72.32,100.92,1.18,139.95,30.81,20,15.19,31.9,33.01,38.5,44.75-1.01-7.06,3.25-12.79,8.17-13.48,3.76-.53,7.73,1.92,9.16,5.09,2.17,4.83-1.05,12.5-9.16,16.16,3.17-.88,15.7-3.97,26.64,3.06,8.86,5.69,14.69,16.75,12.18,19.89-2.54,3.17-13.86-1.43-20.82-4.27-4.92-2-8.77-4.09-11.29-5.56,15.71,28.92,31.34,68.67,34.33,117.02,3.97,64.16-12.9,165.86-83.54,207.5-8.15,4.81-18.27,9.55-82.6,18.89-139.53,20.26-210.59,29.69-274.01-4.44-13.75-7.4-34.39-20.48-56.08-43.51.03-44.15.85-290.67,30.62-349.87,1.69-3.37,5.1-10.13,11.92-16.9,25.76-25.53,65.88-16.91,119.29-16.24Z"/>
    <g>
      <g>
        <path class="cls-1" d="M274.94,68.48c6.83-6.45,15.97-15.34,16.54-28.45.67-15.28-10.64-28.93-21.94-34.9-24.91-13.16-64.89,2.99-77.75,32.58-6.86,15.79-7.99,40.01,5.11,51.6,19.3,17.07,58.82-2.68,78.03-20.83Z"/>
        <path class="cls-4" d="M267.93,20.09c-2.94,8.12-8.15,19.96-17.43,32.35-8.04,10.72-22.52,30.04-33.53,26.56-8.05-2.54-15.76-17.74-8.86-29.09,5.29-8.71,17.43-12.28,27.83-7.2"/>
      </g>
      <g>
        <path class="cls-1" d="M284.89,470.25c7.14,6.1,16.71,14.53,17.93,27.6,1.42,15.23-9.2,29.42-20.18,35.94-24.22,14.38-64.96.23-79.26-28.69-7.63-15.43-9.97-39.57,2.55-51.79,18.43-18,58.88-.24,78.97,16.94Z"/>
        <path class="cls-4" d="M280.3,518.94c-3.34-7.96-9.13-19.53-19.02-31.44-8.56-10.31-23.98-28.88-34.81-24.86-7.92,2.94-14.86,18.5-7.41,29.49,5.72,8.43,18.02,11.4,28.15,5.82"/>
      </g>
    </g>
    <g>
      <path class="cls-6" d="M184.86,472.25c-6.35,0-12.65-.04-19.26-.13l-2.12-.03c-11.06-.17-16.61-.26-18.53-.52-39.63-5.93-64.09-39.34-80.97-67.79-.15-.22-.27-.46-.4-.7-1.39-2.33-2.44-4.13-3.39-5.82-11.57-19.98-31.27-62.35-33.1-121.63-.42-22.33,1.75-56.65,14.5-93.52,3.68-10.67,7.9-20.62,12.55-29.58l.26-.51c.88-1.73,1.81-3.56,2.83-5.49.05-.11.12-.23.19-.36.06-.1.11-.2.16-.31,15.44-29.26,38.19-63.84,77.52-71.76,1.07-.23,3.31-.4,7.02-.69l.41-.03c3.24-.23,7.56-.51,13.18-.86,11.33-.71,22.18-1.27,33.15-1.71,14.91-.6,27.93-.89,41.72-1.19,8.85-.19,17.99-.39,27.96-.69,16.73-.56,35.34-1.25,58.04-2.53,12.86-2.04,26.43-3.08,40.29-3.08,30.61,0,76.22,5.33,119.63,30.69,32.85,19.19,57.95,45.85,74.6,79.25,13.39,26.86,17.5,50.59,19.25,60.72.64,3.47,1.09,6.95,1.46,9.94.23,1.79.44,3.74.62,5.95.19,1.78.3,3.58.4,5.33.04.51.09,1.1.07,1.66.12,1.52.2,3.18.25,5.18.05,2.05.05,3.76.01,5.33.04.52.03,1.13.01,1.62-.01,1.76-.03,3.57-.13,5.35-.08,2.25-.18,4.21-.32,5.97-.22,3-.5,6.5-.96,9.97-1.25,10.2-4.18,34.1-16.22,61.6-14.97,34.19-38.72,62.07-70.58,82.88-46.71,30.48-97.18,36.88-131.29,36.88-9.32,0-18.44-.48-27.12-1.44-4.83-.03-9.54-.04-14.05-.04-7.16,0-13.77.04-19.65.12h-.14c-10.21.1-18.7.26-24.2.37-10.18.19-19.52.44-28.54.68-13.6.36-26.44.7-41.15.84-4.71.05-9.27.07-13.93.07Z"/>
      <path d="M356.86,63.85c31.82,0,76.55,5.6,119.38,30.63,77.14,45.05,90.07,119.19,93.61,139.62.61,3.31,1.05,6.63,1.45,9.92.25,1.97.45,3.93.62,5.93.19,1.76.29,3.53.4,5.32.04.53.09,1.09.07,1.62.13,1.73.2,3.47.25,5.21v.09c.05,1.74.06,3.47.01,5.21.04.53.03,1.09.01,1.62-.02,1.77-.03,3.56-.13,5.33-.07,1.97-.17,3.98-.32,5.96-.24,3.27-.51,6.61-.96,9.95-2.52,20.58-11.77,95.27-86.58,144.12-47.72,31.13-99.21,36.79-131.02,36.79-12.59,0-22.1-.89-27.06-1.43-4.87-.03-9.56-.04-14.07-.04-7.05,0-13.63.04-19.7.12h-.15c-9.36.09-17.48.23-24.19.37-25.31.48-45.07,1.29-69.68,1.52-4.46.04-9.07.07-13.9.07-6.04,0-12.42-.04-19.28-.13-12.37-.19-18.58-.28-20.59-.55-41.37-6.19-66.35-43.52-80.61-67.55-.15-.23-.28-.46-.4-.7-1.23-2.06-2.34-3.95-3.38-5.8-6.31-10.88-30.99-55.26-33.04-121.4v-.03c-.74-39.41,6.91-71.45,14.47-93.31,5.14-14.88,10.19-25.01,12.52-29.52.95-1.88,1.96-3.88,3.09-5.99.11-.24.25-.45.37-.69,13.05-24.73,36.15-63.23,77.17-71.49,1.08-.23,3.43-.41,7.37-.71,3.23-.23,7.55-.51,13.17-.86,12.32-.78,23.11-1.31,33.14-1.7,24.59-.99,44.37-1.13,69.67-1.87,13.83-.46,33.8-1.16,58.06-2.53,6.55-1.04,21.06-3.08,40.27-3.08M356.87,62.85v1-1c-13.88,0-27.46,1.04-40.38,3.08-22.66,1.28-41.26,1.97-57.98,2.52-9.96.29-19.11.49-27.95.69-13.79.3-26.82.59-41.73,1.19-10.96.43-21.81.99-33.16,1.71-5.22.32-9.66.61-13.18.86l-.39.03c-3.75.29-6.01.46-7.13.7-18.18,3.66-34.87,13.71-49.6,29.87-12.65,13.88-21.74,29.8-28.24,42.13-.07.14-.12.23-.17.32-.08.13-.15.27-.22.41-1.03,1.94-1.97,3.79-2.88,5.58l-.2.39c-4.65,8.98-8.88,18.96-12.57,29.64-7.05,20.39-15.29,53.18-14.52,93.65,1.84,59.43,21.58,101.89,33.18,121.91.93,1.66,1.98,3.46,3.39,5.82.12.22.25.47.43.74,7.09,11.95,16.96,27.41,30.27,40.62,15.52,15.41,32.69,24.62,51.03,27.36,1.96.27,7.52.35,18.58.53l2.15.03c6.63.09,12.95.13,19.3.13,4.65,0,9.2-.02,13.91-.07,14.72-.14,27.58-.48,41.18-.84,9.01-.24,18.33-.49,28.51-.68,8.72-.18,16.4-.29,24.18-.36h.16c5.89-.08,12.51-.12,19.68-.12,4.4,0,9.11.01,14.01.04,8.68.95,17.8,1.43,27.12,1.43,34.18,0,84.75-6.41,131.57-36.96,31.95-20.86,55.76-48.81,70.77-83.09,12.07-27.56,15.01-51.51,16.26-61.74.46-3.46.74-6.97.96-9.99.14-1.76.25-3.72.33-5.99.1-1.75.12-3.55.13-5.29v-.07c.02-.47.03-1.07,0-1.65.04-1.57.04-3.27-.01-5.21v-.09c-.05-1.94-.13-3.65-.25-5.2.01-.54-.03-1.08-.07-1.67-.1-1.73-.2-3.53-.4-5.35-.18-2.21-.39-4.16-.62-5.95-.37-2.99-.82-6.48-1.46-9.97-1.76-10.14-5.87-33.92-19.3-60.85-16.69-33.49-41.86-60.22-74.8-79.46-43.51-25.43-89.21-30.76-119.88-30.76h0Z"/>
    </g>
    <g>
      <path class="cls-7" d="M110.42,164.51c-19.89.49-38.34-6.2-52.76-17.74.11-.24.25-.45.37-.69,13.05-24.73,36.15-63.23,77.16-71.49,1.08-.23,3.43-.41,7.37-.71,3.23-.23,7.55-.51,13.17-.86,12.32-.78,23.11-1.31,33.14-1.7.49,3.23.78,6.52.86,9.84,1.11,44.93-34.41,82.23-79.31,83.35Z"/>
      <path class="cls-7" d="M198.79,471.68c-10.04.1-20.84.1-33.18-.06-12.37-.19-18.59-.28-20.59-.55-41.37-6.19-66.35-43.52-80.61-67.55-.15-.23-.28-.46-.4-.7,13.83-12.24,31.92-19.84,51.82-20.33,44.9-1.11,82.23,34.38,83.34,79.29.08,3.35-.04,6.66-.37,9.9Z"/>
    </g>
    <path class="cls-4" d="M144.44,195.67c-8.66,15.74-20.03,42.49-18.09,75.97,1.88,32.65,15.62,57.87,25.78,72.78"/>
    <g>
      <g>
        <path class="cls-3" d="M263.43,129.54c29.08-3.87,57.12,21.05,56.43,50.71-.57,24.52-20.64,46.3-45.79,48.11-28.59,2.06-53.64-22.43-53.21-50.6.36-24,19.14-45.11,42.57-48.23Z"/>
        <path d="M265.43,149.93c21.48-2.86,42.18,15.55,41.67,37.45-.42,18.11-15.24,34.19-33.81,35.53-21.12,1.52-39.61-16.57-39.29-37.37.27-17.73,14.13-33.31,31.44-35.61Z"/>
        <path class="cls-4" d="M220.86,177.76c-.19-2.19-1.98-28,18.35-44.31,15.15-12.15,32.46-10.91,36.3-10.54"/>
      </g>
      <g>
        <path class="cls-3" d="M270.38,409.84c29.24,2.43,56.01-23.85,53.85-53.44-1.79-24.47-22.91-45.22-48.11-45.79-28.66-.64-52.46,25.06-50.64,53.17,1.55,23.96,21.35,44.1,44.91,46.06Z"/>
        <path d="M271.36,389.37c21.59,1.79,41.36-17.62,39.76-39.47-1.32-18.07-16.92-33.4-35.53-33.81-21.16-.47-38.74,18.51-37.4,39.27,1.15,17.69,15.76,32.57,33.16,34.01Z"/>
        <path class="cls-4" d="M225.47,363.78c-.08,2.19-.59,28.07,20.52,43.35,15.73,11.39,32.96,9.29,36.78,8.73"/>
      </g>
    </g>
    <path class="cls-4" d="M212.35,242.1c1.95.73,14.3,5.57,19.36,19.02,1.55,4.12,4.34,14.15-.9,24.55-5.45,10.81-15.67,14.31-17.66,14.95"/>
    <path d="M379.5,191.53c-.31-7.39-1.4-18.85-5.36-30.8-9.12-27.54-25.95-35.26-29.34-36.69.15,22.78.29,45.56.44,68.34.4,16.28,8.4,29.29,17.86,29.06,9.46-.23,16.81-13.62,16.4-29.9Z"/>
    <path d="M383.48,351.95c.06,7.4-.47,18.89-3.83,31.03-7.74,27.96-24.17,36.5-27.49,38.09-.98-22.76-1.96-45.52-2.95-68.28-.4-16.28,6.94-29.67,16.4-29.9,9.46-.23,17.46,12.77,17.86,29.06Z"/>
    <path d="M326.57,469.72c-12.47-.06-23.81-.06-33.76.06,26.04-1.9,61-7.39,99.66-22.38,33.65-13.06,59.94-29.41,78.76-43.23-7.87-.89-17.8-1.29-29.08.04-7.38.86-13.94,2.28-19.54,3.88,4.62-12.14,11.89-27.57,23.27-43.89,11.55-16.56,23.71-28.82,33.59-37.38-5.1,2.44-19.02,8.18-35.77,4.28-7.04-1.66-12.55-4.55-16.41-7.03,9.6-8.76,19.59-18.46,29.75-29.17,10.99-11.62,20.83-23,29.6-33.89-5.34-.31-12.98-.05-21.58,2.57-16.22,4.92-26.08,15.32-30.24,20.28.52-14.62,3.09-36.93,13.38-61.92,12.27-29.82,29.95-49.73,41.2-60.6-1.04-.89-7.53-6.3-16.5-5.03-5.59.78-9.28,3.8-10.78,5.16-.39-2.03-.98-6.7,1.35-11.48,3.24-6.47,10.58-10.45,18.84-10.28-34.6-19.76-81.27-41.54-139-56-30.9-7.76-59.51-12.05-84.77-14.27,13.85-.45,33.81-1.14,58.06-2.53,17.39-2.74,90.97-12.58,159.66,27.57,77.14,45.04,90.05,119.18,93.62,139.61.59,3.31,1.05,6.63,1.43,9.92.25,1.96.47,3.93.62,5.93.18,1.76.29,3.53.4,5.32.05.54.09,1.08.07,1.63.11,1.73.19,3.46.23,5.19v.1c.05,1.73.05,3.46.03,5.2.05.54.03,1.09,0,1.63-.02,1.77-.05,3.57-.14,5.34-.05,1.97-.17,3.98-.33,5.95-.22,3.27-.52,6.6-.94,9.94-2.55,20.58-11.77,95.27-86.59,144.11-66.63,43.47-140.6,37.28-158.1,35.37Z"/>
  </g>
</svg>