<?xml version="1.0" encoding="UTF-8"?>
<svg xmlns="http://www.w3.org/2000/svg" viewBox="0 0 64.12 93.25">
  <defs>
    <style>
      .cls-1 {
        fill: #ffc0a4;
        stroke: #000;
        stroke-miterlimit: 10;
      }

      .cls-2 {
        isolation: isolate;
      }

      .cls-3 {
        fill: #fff;
      }

      .cls-4 {
        opacity: .86;
      }

      .cls-5 {
        mix-blend-mode: overlay;
        opacity: .5;
      }
    </style>
  </defs>
  <g class="cls-2">
    <g id="Layer_1" data-name="Layer 1">
      <g>
        <path class="cls-1" d="M52.53,5.13L16.58.57C10.6-.19,5.4,5.17,5.03,12.47h0c-.38,7.51,4.49,14.04,10.66,14.29l36.06,1.45c5.3.21,9.59-4.92,9.53-11.39h0c-.06-6-3.85-11.08-8.75-11.7Z"/>
        <path class="cls-1" d="M53.56,52.72l-43.12-2.46c-4.68-.27-8.67-4.55-9.57-10.27l-.18-1.17c-1.22-7.81,3.71-14.77,10.1-14.23l43.3,3.63c5.2.44,9.36,5.77,9.53,12.22h0c.18,7.01-4.4,12.61-10.06,12.29Z"/>
        <path class="cls-1" d="M52.86,62.06h0c-.28-5.3-3.83-9.57-8.33-10.03l-28.65-2.91c-4.64-.47-8.83,3.24-9.71,8.61l-.44,2.68c-1.08,6.58,3.2,12.71,8.91,12.75l29.09.23c5.27.04,9.46-5.16,9.13-11.34Z"/>
        <path class="cls-1" d="M46,80.85h0c-.79-4.11-3.64-7.18-6.91-7.44l-23.68-1.85c-3.87-.3-7,3.41-7.04,8.34l-.02,3.11c-.04,5.41,3.63,9.96,7.84,9.74l23.7-1.26c4.27-.23,7.14-5.24,6.1-10.64Z"/>
        <g class="cls-4">
          <g class="cls-5">
            <path class="cls-3" d="M49.92,25.66c-4.66-.27-8.28-4.32-8.09-9.04s4.12-8.33,8.77-8.06c4.66.27,8.28,4.32,8.09,9.04-.19,4.72-4.12,8.33-8.77,8.06Z"/>
          </g>
        </g>
        <g class="cls-4">
          <g class="cls-5">
            <path class="cls-3" d="M51.45,48.71c-4.66-.27-8.28-4.32-8.09-9.04.19-4.72,4.12-8.33,8.77-8.06,4.66.27,8.28,4.32,8.09,9.04-.19,4.72-4.12,8.33-8.77,8.06Z"/>
          </g>
        </g>
        <g class="cls-4">
          <g class="cls-5">
            <path class="cls-3" d="M42.82,69.24c-4.1-.24-7.31-3.5-7.16-7.29.15-3.79,3.6-6.67,7.71-6.43,4.1.24,7.31,3.5,7.16,7.29-.15,3.79-3.6,6.67-7.71,6.43Z"/>
          </g>
        </g>
        <g class="cls-4">
          <g class="cls-5">
            <path class="cls-3" d="M38.51,88.66c-3-.17-5.33-2.87-5.2-6.02.13-3.15,2.66-5.56,5.66-5.39,3,.17,5.33,2.87,5.2,6.02-.13,3.15-2.66,5.56-5.66,5.39Z"/>
          </g>
        </g>
      </g>
    </g>
  </g>
</svg>