<?xml version="1.0" encoding="UTF-8"?>
<svg id="Layer_1" data-name="Layer 1" xmlns="http://www.w3.org/2000/svg" viewBox="0 0 1921.84 294.2">
  <defs>
    <style>
      .cls-1 {
        fill: #2acca0;
      }

      .cls-2 {
        fill: #3e4c1b;
      }
    </style>
  </defs>
  <path class="cls-1" d="M1921.84,0H0v185.15h.33v12.27c0,53.23,43.55,96.78,96.78,96.78h0c50.45,0,92.2-39.12,96.42-88.53,4.22,49.41,45.97,88.53,96.42,88.53h0c47.74,0,87.69-35.03,95.42-80.66,7.73,45.63,47.68,80.66,95.42,80.66h0c50.45,0,92.2-39.12,96.42-88.53,4.22,49.41,45.97,88.53,96.42,88.53h0c47.74,0,87.69-35.03,95.42-80.66,7.73,45.63,47.68,80.66,95.42,80.66h0c50.45,0,92.2-39.12,96.42-88.53,4.22,49.41,45.97,88.53,96.42,88.53h0c47.74,0,87.69-35.03,95.42-80.66,7.73,45.63,47.68,80.66,95.42,80.66h0c50.45,0,92.2-39.12,96.42-88.53,4.22,49.41,45.97,88.53,96.42,88.53h0c47.74,0,87.69-35.03,95.42-80.66,7.73,45.63,47.68,80.66,95.42,80.66h0c50.45,0,92.2-39.12,96.42-88.53,4.22,49.41,45.97,88.53,96.42,88.53h0c53.23,0,96.78-43.55,96.78-96.78v-12.27h.33V0h.06Z"/>
  <g id="grase">
    <g>
      <g>
        <path class="cls-2" d="M365.04,72.99c1.81,1.39,2.89,3.56,3.64,5.66.92,2.58,1.52,5.25,2.6,7.77.24.56,1.06.68,1.54.4.58-.34.64-.98.4-1.54-1.12-2.61-1.63-5.43-2.69-8.07-.96-2.41-2.28-4.57-4.36-6.17-.48-.37-1.26-.07-1.54.4-.34.58-.08,1.17.4,1.54h0Z"/>
        <path class="cls-2" d="M376.61,60.55c-.84,8.01.44,16.06,3.57,23.47.56,1.33,2.5.18,1.94-1.14-2.98-7.04-4.06-14.75-3.26-22.33.15-1.44-2.1-1.43-2.25,0h0Z"/>
        <path class="cls-2" d="M390.53,70.12c-.12,2.87-.08,5.74.13,8.6.04.61.49,1.12,1.12,1.12.57,0,1.17-.52,1.12-1.12-.21-2.86-.25-5.74-.13-8.6.03-.61-.54-1.12-1.12-1.12-.63,0-1.1.52-1.12,1.12h0Z"/>
        <path class="cls-2" d="M413.6,56.12c-.22,4.74-.43,9.5-1.35,14.17s-2.27,8.78-2.4,13.34c-.04,1.45,2.21,1.45,2.25,0,.14-4.67,1.68-9.11,2.5-13.68s1.04-9.21,1.26-13.84c.07-1.45-2.18-1.44-2.25,0h-.01Z"/>
        <path class="cls-2" d="M402.27,73.31c.12,2.46.07,4.92-.16,7.37-.06.59.56,1.15,1.12,1.12.66-.03,1.07-.5,1.12-1.12.23-2.45.28-4.92.16-7.37-.03-.59-.5-1.15-1.12-1.12-.58.03-1.16.5-1.12,1.12h0Z"/>
        <path class="cls-2" d="M428.15,74.93c-.35,1.32-1.13,2.5-2.01,3.7s-1.81,2.37-2.47,3.72c-.27.54-.15,1.22.4,1.54.5.29,1.27.14,1.54-.4,1.37-2.78,3.88-4.88,4.7-7.95.16-.59-.2-1.22-.79-1.38s-1.23.2-1.38.79h0v-.02Z"/>
      </g>
      <g>
        <path class="cls-2" d="M145.5,230.21c7.34,1.86,13.38,7.72,15.44,15.01.39,1.39,2.56.8,2.17-.6-2.26-8.03-8.92-14.53-17.01-16.59-1.4-.36-2,1.81-.6,2.17h0Z"/>
        <path class="cls-2" d="M164.85,227.65c1.13,3.81,3.03,7.32,5.58,10.37.39.47,1.19.4,1.59,0,.46-.46.39-1.12,0-1.59-2.29-2.74-3.99-5.95-5-9.37-.41-1.38-2.58-.8-2.17.6h0Z"/>
        <path class="cls-2" d="M145.85,242.16c1.14,2.41,2.29,4.81,3.43,7.22.26.55,1.05.69,1.54.4.56-.33.67-.99.4-1.54-1.14-2.41-2.29-4.81-3.43-7.22-.26-.55-1.05-.69-1.54-.4-.56.33-.67.99-.4,1.54h0Z"/>
      </g>
      <g>
        <path class="cls-2" d="M197.29,31.73c6.23,3.63,8.25,11.31,9.88,17.84.35,1.4,2.52.81,2.17-.6-1.78-7.14-4.13-15.23-10.92-19.18-1.25-.73-2.39,1.21-1.14,1.94h0Z"/>
        <path class="cls-2" d="M190.55,44.47c2.79,2.54,4.61,6.08,4.92,9.85.05.61.48,1.12,1.12,1.12.57,0,1.18-.52,1.12-1.12-.36-4.36-2.33-8.49-5.58-11.44-1.07-.97-2.67.61-1.59,1.59h.01Z"/>
      </g>
    </g>
    <g>
      <path class="cls-2" d="M461.44,217.41c1.81,1.39,2.89,3.56,3.64,5.66.92,2.58,1.52,5.25,2.6,7.77.24.56,1.06.68,1.54.4.58-.34.64-.98.4-1.54-1.12-2.61-1.63-5.43-2.69-8.07-.96-2.41-2.28-4.57-4.36-6.17-.48-.37-1.26-.07-1.54.4-.34.58-.08,1.17.4,1.54h0Z"/>
      <path class="cls-2" d="M473,204.97c-.84,8.01.44,16.06,3.57,23.47.56,1.33,2.5.18,1.94-1.14-2.98-7.04-4.06-14.75-3.26-22.33.15-1.44-2.1-1.43-2.25,0h0Z"/>
      <path class="cls-2" d="M486.92,214.54c-.12,2.87-.08,5.74.13,8.6.04.61.49,1.12,1.12,1.12.57,0,1.17-.52,1.12-1.12-.21-2.86-.25-5.74-.13-8.6.03-.61-.54-1.12-1.12-1.12-.63,0-1.1.52-1.12,1.12h0Z"/>
      <path class="cls-2" d="M509.99,200.54c-.22,4.74-.43,9.5-1.35,14.17s-2.27,8.78-2.4,13.34c-.04,1.45,2.21,1.45,2.25,0,.14-4.67,1.68-9.11,2.5-13.68s1.04-9.21,1.26-13.84c.07-1.45-2.18-1.44-2.25,0h-.01Z"/>
      <path class="cls-2" d="M498.67,217.74c.12,2.46.07,4.92-.16,7.37-.06.59.56,1.15,1.12,1.12.66-.03,1.07-.5,1.12-1.12.23-2.45.28-4.92.16-7.37-.03-.59-.5-1.15-1.12-1.12-.58.03-1.16.5-1.12,1.12h0Z"/>
      <path class="cls-2" d="M524.54,219.35c-.35,1.32-1.13,2.5-2.01,3.7s-1.81,2.37-2.47,3.72c-.27.54-.15,1.22.4,1.54.5.29,1.27.14,1.54-.4,1.37-2.78,3.88-4.88,4.7-7.95.16-.59-.2-1.22-.79-1.38s-1.23.2-1.38.79h0v-.02Z"/>
    </g>
    <g>
      <path class="cls-2" d="M19.24,98.08c.81-4.44,3.26-8.55,6.9-11.26.49-.36.73-.97.4-1.54-.28-.48-1.05-.77-1.54-.4-4.1,3.05-7.01,7.55-7.93,12.6-.11.6.16,1.21.79,1.38.55.15,1.27-.18,1.38-.79h0Z"/>
      <path class="cls-2" d="M36.12,106.22c-.11-5.56,3.1-10.85,8.04-13.36,1.29-.66.15-2.6-1.14-1.94-5.62,2.86-9.28,9.01-9.16,15.31.03,1.45,2.28,1.45,2.25,0h.01Z"/>
      <path class="cls-2" d="M53.9,111.76c3.29-3.4,7.24-6.15,11.6-7.98.56-.23.96-.74.79-1.38-.15-.53-.82-1.02-1.38-.79-4.73,1.98-9.02,4.86-12.6,8.55-1.01,1.04.58,2.63,1.59,1.59h0Z"/>
    </g>
  </g>
  <g>
    <path class="cls-2" d="M1048.16,192.19c1.81,1.39,2.89,3.56,3.64,5.66.92,2.58,1.52,5.25,2.6,7.77.24.56,1.06.68,1.54.4.58-.34.64-.98.4-1.54-1.12-2.61-1.63-5.43-2.69-8.07-.96-2.41-2.28-4.57-4.36-6.17-.48-.37-1.26-.07-1.54.4-.34.58-.08,1.17.4,1.54h0Z"/>
    <path class="cls-2" d="M1059.72,179.76c-.84,8.01.44,16.06,3.57,23.47.56,1.33,2.5.18,1.94-1.14-2.98-7.04-4.06-14.75-3.26-22.33.15-1.44-2.1-1.43-2.25,0h0Z"/>
    <path class="cls-2" d="M1073.64,189.33c-.12,2.87-.08,5.74.13,8.6.04.61.49,1.12,1.12,1.12.57,0,1.17-.52,1.12-1.12-.21-2.86-.25-5.74-.13-8.6.03-.61-.54-1.12-1.12-1.12-.63,0-1.1.52-1.12,1.12h0Z"/>
    <path class="cls-2" d="M1096.71,175.33c-.22,4.74-.43,9.5-1.35,14.17s-2.27,8.78-2.4,13.34c-.04,1.45,2.21,1.45,2.25,0,.14-4.67,1.68-9.11,2.5-13.68s1.04-9.21,1.26-13.84c.07-1.45-2.18-1.44-2.25,0h-.01Z"/>
    <path class="cls-2" d="M1085.39,192.52c.12,2.46.07,4.92-.16,7.37-.06.59.56,1.15,1.12,1.12.66-.03,1.07-.5,1.12-1.12.23-2.45.28-4.92.16-7.37-.03-.59-.5-1.15-1.12-1.12-.58.03-1.16.5-1.12,1.12h0Z"/>
    <path class="cls-2" d="M1111.26,194.14c-.35,1.32-1.13,2.5-2.01,3.7s-1.81,2.37-2.47,3.72c-.27.54-.15,1.22.4,1.54.5.29,1.27.14,1.54-.4,1.37-2.78,3.88-4.88,4.7-7.95.16-.59-.2-1.22-.79-1.38s-1.23.2-1.38.79h0v-.02Z"/>
  </g>
  <g>
    <path class="cls-2" d="M600.25,99.76c1.81,1.39,2.89,3.56,3.64,5.66.92,2.58,1.52,5.25,2.6,7.77.24.56,1.06.68,1.54.4.58-.34.64-.98.4-1.54-1.12-2.61-1.63-5.43-2.69-8.07-.96-2.41-2.28-4.57-4.36-6.17-.48-.37-1.26-.07-1.54.4-.34.58-.08,1.17.4,1.54h0Z"/>
    <path class="cls-2" d="M611.81,87.33c-.84,8.01.44,16.06,3.57,23.47.56,1.33,2.5.18,1.94-1.14-2.98-7.04-4.06-14.75-3.26-22.33.15-1.44-2.1-1.43-2.25,0h0Z"/>
    <path class="cls-2" d="M625.73,96.9c-.12,2.87-.08,5.74.13,8.6.04.61.49,1.12,1.12,1.12.57,0,1.17-.52,1.12-1.12-.21-2.86-.25-5.74-.13-8.6.03-.61-.54-1.12-1.12-1.12-.63,0-1.1.52-1.12,1.12h0Z"/>
    <path class="cls-2" d="M648.8,82.9c-.22,4.74-.43,9.5-1.35,14.17s-2.27,8.78-2.4,13.34c-.04,1.45,2.21,1.45,2.25,0,.14-4.67,1.68-9.11,2.5-13.68s1.04-9.21,1.26-13.84c.07-1.45-2.18-1.44-2.25,0h-.01Z"/>
    <path class="cls-2" d="M637.48,100.09c.12,2.46.07,4.92-.16,7.37-.06.59.56,1.15,1.12,1.12.66-.03,1.07-.5,1.12-1.12.23-2.45.28-4.92.16-7.37-.03-.59-.5-1.15-1.12-1.12-.58.03-1.16.5-1.12,1.12h0Z"/>
    <path class="cls-2" d="M663.35,101.71c-.35,1.32-1.13,2.5-2.01,3.7s-1.81,2.37-2.47,3.72c-.27.54-.15,1.22.4,1.54.5.29,1.27.14,1.54-.4,1.37-2.78,3.88-4.88,4.7-7.95.16-.59-.2-1.22-.79-1.38s-1.23.2-1.38.79h0v-.02Z"/>
  </g>
  <g>
    <path class="cls-2" d="M889.15,89.09c1.81,1.39,2.89,3.56,3.64,5.66.92,2.58,1.52,5.25,2.6,7.77.24.56,1.06.68,1.54.4.58-.34.64-.98.4-1.54-1.12-2.61-1.63-5.43-2.69-8.07-.96-2.41-2.28-4.57-4.36-6.17-.48-.37-1.26-.07-1.54.4-.34.58-.08,1.17.4,1.54h0Z"/>
    <path class="cls-2" d="M900.72,76.66c-.84,8.01.44,16.06,3.57,23.47.56,1.33,2.5.18,1.94-1.14-2.98-7.04-4.06-14.75-3.26-22.33.15-1.44-2.1-1.43-2.25,0h0Z"/>
    <path class="cls-2" d="M914.64,86.23c-.12,2.87-.08,5.74.13,8.6.04.61.49,1.12,1.12,1.12.57,0,1.17-.52,1.12-1.12-.21-2.86-.25-5.74-.13-8.6.03-.61-.54-1.12-1.12-1.12-.63,0-1.1.52-1.12,1.12h0Z"/>
    <path class="cls-2" d="M937.7,72.23c-.22,4.74-.43,9.5-1.35,14.17s-2.27,8.78-2.4,13.34c-.04,1.45,2.21,1.45,2.25,0,.14-4.67,1.68-9.11,2.5-13.68s1.04-9.21,1.26-13.84c.07-1.45-2.18-1.44-2.25,0h-.01Z"/>
    <path class="cls-2" d="M926.38,89.42c.12,2.46.07,4.92-.16,7.37-.06.59.56,1.15,1.12,1.12.66-.03,1.07-.5,1.12-1.12.23-2.45.28-4.92.16-7.37-.03-.59-.5-1.15-1.12-1.12-.58.03-1.16.5-1.12,1.12h0Z"/>
    <path class="cls-2" d="M952.25,91.04c-.35,1.32-1.13,2.5-2.01,3.7s-1.81,2.37-2.47,3.72c-.27.54-.15,1.22.4,1.54.5.29,1.27.14,1.54-.4,1.37-2.78,3.88-4.88,4.7-7.95.16-.59-.2-1.22-.79-1.38s-1.23.2-1.38.79h0v-.02Z"/>
  </g>
  <g>
    <path class="cls-2" d="M808.63,203.57c.81-4.44,3.26-8.55,6.9-11.26.49-.36.73-.97.4-1.54-.28-.48-1.05-.77-1.54-.4-4.1,3.05-7.01,7.55-7.93,12.6-.11.6.16,1.21.79,1.38.55.15,1.27-.18,1.38-.79h0Z"/>
    <path class="cls-2" d="M825.5,211.71c-.11-5.56,3.1-10.85,8.04-13.36,1.29-.66.15-2.6-1.14-1.94-5.62,2.86-9.28,9.01-9.16,15.31.03,1.45,2.28,1.45,2.25,0h.01Z"/>
    <path class="cls-2" d="M843.28,217.26c3.29-3.4,7.24-6.15,11.6-7.98.56-.23.96-.74.79-1.38-.15-.53-.82-1.02-1.38-.79-4.73,1.98-9.02,4.86-12.6,8.55-1.01,1.04.58,2.63,1.59,1.59h0Z"/>
  </g>
  <g>
    <path class="cls-2" d="M1845.63,192.19c1.81,1.39,2.89,3.56,3.64,5.66.92,2.58,1.52,5.25,2.6,7.77.24.56,1.06.68,1.54.4.58-.34.64-.98.4-1.54-1.12-2.61-1.63-5.43-2.69-8.07-.96-2.41-2.28-4.57-4.36-6.17-.48-.37-1.26-.07-1.54.4-.34.58-.08,1.17.4,1.54h0Z"/>
    <path class="cls-2" d="M1857.19,179.76c-.84,8.01.44,16.06,3.57,23.47.56,1.33,2.5.18,1.94-1.14-2.98-7.04-4.06-14.75-3.26-22.33.15-1.44-2.1-1.43-2.25,0h0Z"/>
    <path class="cls-2" d="M1871.11,189.33c-.12,2.87-.08,5.74.13,8.6.04.61.49,1.12,1.12,1.12.57,0,1.17-.52,1.12-1.12-.21-2.86-.25-5.74-.13-8.6.03-.61-.54-1.12-1.12-1.12-.63,0-1.1.52-1.12,1.12h0Z"/>
    <path class="cls-2" d="M1894.18,175.33c-.22,4.74-.43,9.5-1.35,14.17s-2.27,8.78-2.4,13.34c-.04,1.45,2.21,1.45,2.25,0,.14-4.67,1.68-9.11,2.5-13.68s1.04-9.21,1.26-13.84c.07-1.45-2.18-1.44-2.25,0h-.01Z"/>
    <path class="cls-2" d="M1882.86,192.52c.12,2.46.07,4.92-.16,7.37-.06.59.56,1.15,1.12,1.12.66-.03,1.07-.5,1.12-1.12.23-2.45.28-4.92.16-7.37-.03-.59-.5-1.15-1.12-1.12-.58.03-1.16.5-1.12,1.12h0Z"/>
    <path class="cls-2" d="M1908.73,194.14c-.35,1.32-1.13,2.5-2.01,3.7s-1.81,2.37-2.47,3.72c-.27.54-.15,1.22.4,1.54.5.29,1.27.14,1.54-.4,1.37-2.78,3.88-4.88,4.7-7.95.16-.59-.2-1.22-.79-1.38s-1.23.2-1.38.79h0v-.02Z"/>
  </g>
  <g>
    <path class="cls-2" d="M1606.09,203.57c.81-4.44,3.26-8.55,6.9-11.26.49-.36.73-.97.4-1.54-.28-.48-1.05-.77-1.54-.4-4.1,3.05-7.01,7.55-7.93,12.6-.11.6.16,1.21.79,1.38.55.15,1.27-.18,1.38-.79h0Z"/>
    <path class="cls-2" d="M1622.96,211.71c-.11-5.56,3.1-10.85,8.04-13.36,1.29-.66.15-2.6-1.14-1.94-5.62,2.86-9.28,9.01-9.16,15.31.03,1.45,2.28,1.45,2.25,0h.01Z"/>
    <path class="cls-2" d="M1640.74,217.26c3.29-3.4,7.24-6.15,11.6-7.98.56-.23.96-.74.79-1.38-.15-.53-.82-1.02-1.38-.79-4.73,1.98-9.02,4.86-12.6,8.55-1.01,1.04.58,2.63,1.59,1.59h0Z"/>
  </g>
  <g id="grase-2">
    <g>
      <g>
        <path class="cls-2" d="M1488.26,79.28c1.81,1.39,2.89,3.56,3.64,5.66.92,2.58,1.52,5.25,2.6,7.77.24.56,1.06.68,1.54.4.58-.34.64-.98.4-1.54-1.12-2.61-1.63-5.43-2.69-8.07-.96-2.41-2.28-4.57-4.36-6.17-.48-.37-1.26-.07-1.54.4-.34.58-.08,1.17.4,1.54h0Z"/>
        <path class="cls-2" d="M1499.82,66.84c-.84,8.01.44,16.06,3.57,23.47.56,1.33,2.5.18,1.94-1.14-2.98-7.04-4.06-14.75-3.26-22.33.15-1.44-2.1-1.43-2.25,0h0Z"/>
        <path class="cls-2" d="M1513.75,76.41c-.12,2.87-.08,5.74.13,8.6.04.61.49,1.12,1.12,1.12.57,0,1.17-.52,1.12-1.12-.21-2.86-.25-5.74-.13-8.6.03-.61-.54-1.12-1.12-1.12-.63,0-1.1.52-1.12,1.12h0Z"/>
        <path class="cls-2" d="M1536.81,62.41c-.22,4.74-.43,9.5-1.35,14.17s-2.27,8.78-2.4,13.34c-.04,1.45,2.21,1.45,2.25,0,.14-4.67,1.68-9.11,2.5-13.68s1.04-9.21,1.26-13.84c.07-1.45-2.18-1.44-2.25,0h-.01Z"/>
        <path class="cls-2" d="M1525.49,79.61c.12,2.46.07,4.92-.16,7.37-.06.59.56,1.15,1.12,1.12.66-.03,1.07-.5,1.12-1.12.23-2.45.28-4.92.16-7.37-.03-.59-.5-1.15-1.12-1.12-.58.03-1.16.5-1.12,1.12h0Z"/>
        <path class="cls-2" d="M1551.36,81.22c-.35,1.32-1.13,2.5-2.01,3.7s-1.81,2.37-2.47,3.72c-.27.54-.15,1.22.4,1.54.5.29,1.27.14,1.54-.4,1.37-2.78,3.88-4.88,4.7-7.95.16-.59-.2-1.22-.79-1.38s-1.23.2-1.38.79h0v-.02Z"/>
      </g>
      <g>
        <path class="cls-2" d="M1268.72,236.51c7.34,1.86,13.38,7.72,15.44,15.01.39,1.39,2.56.8,2.17-.6-2.26-8.03-8.92-14.53-17.01-16.59-1.4-.36-2,1.81-.6,2.17h0Z"/>
        <path class="cls-2" d="M1288.07,233.95c1.13,3.81,3.03,7.32,5.58,10.37.39.47,1.19.4,1.59,0,.46-.46.39-1.12,0-1.59-2.29-2.74-3.99-5.95-5-9.37-.41-1.38-2.58-.8-2.17.6h0Z"/>
        <path class="cls-2" d="M1269.07,248.45c1.14,2.41,2.29,4.81,3.43,7.22.26.55,1.05.69,1.54.4.56-.33.67-.99.4-1.54-1.14-2.41-2.29-4.81-3.43-7.22-.26-.55-1.05-.69-1.54-.4-.56.33-.67.99-.4,1.54h0Z"/>
      </g>
      <g>
        <path class="cls-2" d="M1438.59,167.88c6.23,3.63,8.25,11.31,9.88,17.84.35,1.4,2.52.81,2.17-.6-1.78-7.14-4.13-15.23-10.92-19.18-1.25-.73-2.39,1.21-1.14,1.94h.01Z"/>
        <path class="cls-2" d="M1431.85,180.61c2.79,2.54,4.61,6.08,4.92,9.85.05.61.48,1.12,1.12,1.12.57,0,1.18-.52,1.12-1.12-.36-4.36-2.33-8.49-5.58-11.44-1.07-.97-2.67.61-1.59,1.59h0Z"/>
      </g>
    </g>
    <g>
      <path class="cls-2" d="M1142.46,104.37c.81-4.44,3.26-8.55,6.9-11.26.49-.36.73-.97.4-1.54-.28-.48-1.05-.77-1.54-.4-4.1,3.05-7.01,7.55-7.93,12.6-.11.6.16,1.21.79,1.38.55.15,1.27-.18,1.38-.79h0Z"/>
      <path class="cls-2" d="M1159.33,112.51c-.11-5.56,3.1-10.85,8.04-13.36,1.29-.66.15-2.6-1.14-1.94-5.62,2.86-9.28,9.01-9.16,15.31.03,1.45,2.28,1.45,2.25,0h.01Z"/>
      <path class="cls-2" d="M1177.12,118.05c3.29-3.4,7.24-6.15,11.6-7.98.56-.23.96-.74.79-1.38-.15-.53-.82-1.02-1.38-.79-4.73,1.98-9.02,4.86-12.6,8.55-1.01,1.04.58,2.63,1.59,1.59h0Z"/>
    </g>
  </g>
</svg>