<?xml version="1.0" encoding="UTF-8"?>
<svg id="Layer_1" data-name="Layer 1" xmlns="http://www.w3.org/2000/svg" viewBox="0 0 130.35 98.11">
  <defs>
    <style>
      .cls-1 {
        fill: #e55451;
      }
    </style>
  </defs>
  <g id="Stroke_3-96" data-name="Stroke 3-96">
    <path class="cls-1" d="M92.83,35.39l23.17-18.97c3.75-3.07,9.29-2.53,12.36,1.23,1.29,1.57,1.99,3.54,1.99,5.58l-.08,51.71c0,4.85-3.95,8.77-8.8,8.77-2.03,0-3.99-.71-5.56-2l-23.08-18.96"/>
  </g>
  <g id="Stroke_1-223" data-name="Stroke 1-223">
    <path d="M0,49.07c.01,10.81.77,22.69,6.43,32.23,4.85,8.18,13.14,12.86,22.24,14.91,5.87,1.32,11.94,1.78,17.94,1.88,6.38.11,12.78-.16,19.09-1.17,9.43-1.51,18.45-5.3,24.3-13.13,6.29-8.43,7.65-19.73,8.01-29.92.4-11.38-.02-23.66-4.86-34.18-3.92-8.5-11.34-14.1-20.17-16.81-5.39-1.65-11.09-2.34-16.7-2.65-6.39-.36-12.87-.3-19.24.38-9.69,1.04-19.87,3.66-26.74,11.05C3.3,19.19,1.11,29.69.34,39.63.09,42.77,0,45.92,0,49.07c0,3.86,6,3.87,6,0,0-3.1.09-6.19.33-9.28.11-1.4.25-2.79.42-4.18.01-.1.08-.59,0-.06.02-.14.04-.28.06-.42.05-.33.1-.65.15-.98.1-.63.21-1.27.33-1.9.44-2.34,1.02-4.65,1.8-6.9.18-.52.37-1.04.57-1.55.09-.22.17-.43.26-.65-.28.69.08-.17.16-.33.43-.94.9-1.86,1.43-2.76s1.06-1.7,1.64-2.51c.08-.11.17-.23.25-.34,0,0-.36.45-.15.19.15-.19.31-.38.46-.57.31-.37.64-.74.97-1.09.67-.71,1.38-1.38,2.12-2,.19-.16.38-.31.57-.46.26-.21-.19.14-.19.15.11-.08.22-.17.34-.25.4-.29.81-.58,1.22-.85.85-.56,1.73-1.07,2.63-1.53.46-.24.94-.47,1.41-.69.21-.09.42-.19.63-.28-.68.3.18-.07.35-.14,2.15-.85,4.37-1.49,6.62-1.99,1.23-.28,2.48-.51,3.73-.7.33-.05.65-.1.98-.15.14-.02.28-.04.42-.06-.53.07-.04,0,.06,0,.68-.08,1.37-.16,2.06-.23,2.98-.3,5.98-.44,8.97-.49,3.17-.05,6.34-.01,9.51.16,1.45.08,2.89.19,4.33.33.69.07,1.37.15,2.06.23.52.06-.22-.04.48.07.33.05.65.1.98.15,2.42.38,4.83.89,7.18,1.6,1.07.32,2.13.69,3.17,1.1.09.03.86.36.5.2s.37.17.48.22c.48.22.95.45,1.41.69.9.47,1.78.98,2.63,1.53.42.27.82.56,1.22.85.09.06.17.13.25.19.33.24-.43-.34-.11-.08.19.16.38.31.57.46.74.63,1.45,1.3,2.12,2,.33.35.66.72.97,1.09.16.19.31.38.46.57.21.26-.14-.19-.15-.19.08.11.17.22.25.34,1.22,1.68,2.26,3.48,3.12,5.37.04.1.32.73.17.38s.16.39.2.5c.22.55.42,1.11.61,1.67.37,1.09.7,2.2.99,3.32.31,1.19.57,2.39.79,3.6.11.59.21,1.18.3,1.77.05.33.1.65.15.98.02.14.04.28.06.42-.06-.44,0,0,.02.21.35,2.89.55,5.79.65,8.69.2,6.08.06,12.19-.69,18.23-.04.36,0-.03.01-.08-.03.19-.05.38-.08.56-.04.28-.08.56-.13.84-.11.68-.22,1.36-.35,2.03-.23,1.2-.5,2.39-.81,3.58-.29,1.11-.62,2.21-1,3.3-.17.48-.35.96-.53,1.44-.06.14-.35.84-.2.5s-.21.47-.26.58c-.85,1.85-1.89,3.59-3.09,5.25-.41.57.23-.26-.11.14-.14.16-.26.33-.4.49-.34.4-.68.79-1.04,1.17-.67.71-1.38,1.37-2.13,2-.19.16-.38.31-.57.46.39-.31.2-.15-.06.04-.43.31-.87.62-1.31.91-.85.55-1.74,1.06-2.64,1.53-.43.22-.87.43-1.31.64-.13.06-.82.36-.48.22s-.44.18-.61.24c-1.05.41-2.11.77-3.18,1.09-2.36.7-4.77,1.21-7.2,1.59-.33.05-.65.1-.98.15-.57.08.24-.02-.34.05-.73.09-1.47.17-2.21.25-1.45.14-2.89.25-4.34.32-6.14.33-12.35.27-18.47-.35-.64-.06-1.27-.14-1.91-.22s-.19-.02-.06,0c-.14-.02-.28-.04-.42-.06-.37-.05-.74-.11-1.11-.17-1.25-.2-2.49-.43-3.72-.71-2.25-.51-4.46-1.16-6.6-2.01-.23-.09-.8-.34-.24-.1-.21-.09-.42-.18-.63-.28-.51-.23-1.01-.48-1.51-.74-.9-.47-1.78-.98-2.62-1.54-.38-.25-.76-.52-1.13-.79-.11-.08-.23-.17-.34-.25,0,0,.45.36.19.15-.22-.18-.43-.35-.65-.53-.74-.63-1.45-1.3-2.11-2.01-.31-.33-.61-.67-.9-1.01-.16-.19-.31-.38-.46-.57-.26-.32.33.44.08.11-.08-.11-.17-.23-.25-.34-.59-.81-1.14-1.65-1.64-2.51s-.99-1.82-1.42-2.77c-.1-.23-.34-.79-.11-.23-.1-.25-.21-.5-.3-.75-.2-.52-.39-1.03-.57-1.56-.77-2.26-1.34-4.57-1.78-6.92-.12-.63-.23-1.27-.33-1.9-.04-.28-.08-.56-.13-.84-.01-.08-.09-.67-.04-.31.04.31-.03-.26-.04-.32-.17-1.4-.31-2.79-.41-4.2-.23-3.04-.31-6.08-.31-9.12C6,45.2,0,45.2,0,49.07Z"/>
  </g>
</svg>