<?xml version="1.0" encoding="UTF-8"?>
<svg id="Layer_1" xmlns="http://www.w3.org/2000/svg" version="1.1" viewBox="0 0 528.8 149.6">
  <!-- Generator: Adobe Illustrator 29.1.0, SVG Export Plug-In . SVG Version: 2.1.0 Build 142)  -->
  <defs>
    <style>
      .st0 {
        fill: #e55451;
      }

      .st1 {
        fill: #fff;
      }

      .st2 {
        fill: #211c17;
      }
    </style>
  </defs>
  <path class="st2" d="M506.3,66.1c-6.3-4-14-6.2-20.2-6.6-.9,0-1.7,0-2.5,0-2,0-3.7.2-5.1.6-1,.3-2,.6-3,1-3.9,1.5-7.2,3.6-10.1,6.2,4,4.7,7,10.5,8.5,17.1,1.2,4.7,1.6,9.6,1.4,14.5-.2,12-4.4,23.8-12.3,33.9-.5.6-1,1.2-1.5,1.8,3.6,4.5,8.3,6.8,13.7,9.9,2.7,1.6,9.6,4.8,18.4,4.8s5.8-.3,8.9-1.1c1.4-.4,12.1-3.3,19.2-12.5,14.7-19.3,5.4-55.8-15.3-69.2h0Z"/>
  <path class="st2" d="M470.3,97.9c0-3.9-.4-7.8-1.4-11.7v-.2c-2-7.3-5.7-13-10.5-17.2-.6-.6-1.3-1.1-2-1.6-.7-.5-1.4-1-2.1-1.4-4.2-2.7-9-4.3-14.1-4.9-1-.1-2.1-.2-3.2-.3-.5,0-1,0-1.5,0-5.1,0-10.4,1-15.6,2.9-.4.1-.8.3-1.2.5-19.5,7.2-35.6,23.9-37.5,44.9-1.6,13.3,3.4,27.5,15.3,34.5,7.5,4.3,15.3,6.3,22.9,6.3,13.5,0,26.3-6.1,35.7-15.7,9.2-9.4,15.2-22.2,15.2-36h0q0,0,0,0Z"/>
  <g>
    <g>
      <g>
        <path class="st1" d="M22.2,23.1c5.7,0,10.6-4.5,11.3-10.2.7,5.6,5.6,10.2,11.3,10.2s11.4-5.4,11.4-11.6S50.9,0,44.8,0s-10.6,4.5-11.3,10c-.7-5.6-5.6-10-11.3-10s-11.4,5.2-11.4,11.4,5.2,11.6,11.4,11.6h0Z"/>
        <path class="st1" d="M120.1,34.4c-5,0-10,3.5-10,10.2v27.1c0,10.5-8.2,18.7-18.7,18.7s-11.6-2.9-15-7.4c-1.7,6.9-5.2,13.2-9.8,18.3,5.8,4.9,13.2,8.1,21.1,8.9v.2h7.3v-.2c19.6-1.9,35.1-18.6,35.1-38.5v-27.1c0-6.7-5-10.2-10-10.2Z"/>
        <path class="st1" d="M119.9.2c-6.2,0-11.4,5.2-11.4,11.4s5.2,11.6,11.4,11.6,11.4-5.3,11.4-11.6S126.1.2,119.9.2Z"/>
        <path class="st1" d="M230.7,23.1c6.1,0,11.4-5.4,11.4-11.6S236.8.1,230.7.1s-10.6,4.5-11.3,10c-.7-5.6-5.6-10-11.3-10s-11.4,5.2-11.4,11.4,5.2,11.6,11.4,11.6,10.6-4.5,11.3-10.2c.7,5.6,5.6,10.2,11.3,10.2h0Z"/>
        <path class="st1" d="M298.1,121c-5.7,0-10.6,4.5-11.3,10-.7-5.6-5.6-10-11.3-10s-11.4,5.2-11.4,11.4,5.2,11.6,11.4,11.6,10.6-4.5,11.3-10.2c.7,5.6,5.6,10.2,11.3,10.2s11.4-5.4,11.4-11.6-5.4-11.4-11.4-11.4Z"/>
        <path class="st1" d="M260.5,72h0v-27.5c0-6.7-5.1-10.2-10-10.2s-10,3.5-10,10.2v27.1c0,10.3-8.4,18.7-18.7,18.7h-4.9v20h8.6v-.2c9.7-.9,18.7-5.4,25.1-12.4h0c3.2-3.3,5.6-7.1,7.3-11.3,1.9-4.5,2.8-9.5,2.6-14.5h0Z"/>
        <path class="st1" d="M308.1,34.4c-5,0-10,3.5-10,10.1v27.1c0,10.5-8.2,18.7-18.7,18.7s-11.7-2.9-15.1-7.3c-.5,1.8-1,3.6-1.8,5.4-2,4.8-4.8,9.1-8.3,12.8,6.1,5.1,13.7,8.2,21.5,9v.2h7.3v-.2c19.6-1.9,35.1-18.5,35.1-38.5v-27.1c0-6.7-5-10.2-10-10.1h0Z"/>
        <path class="st1" d="M354.6.2c-6.2,0-11.4,5.2-11.4,11.4s5.2,11.6,11.4,11.6,11.4-5.3,11.4-11.6S360.8.2,354.6.2Z"/>
        <path class="st1" d="M355.1,34.4c-5,0-10,3.5-10,10.2v66.6c0,11.9-4.6,17.4-15.4,18.3-6.6.5-9.8,6-9.5,11,.4,4.6,3.8,9.1,9.9,9.1s.6,0,.9,0c21-1.5,34.1-16.2,34.1-38.4V44.6c0-6.7-5-10.2-10-10.2h0Z"/>
        <path class="st1" d="M72.9,72.1h0c0-5.5-1.4-10.5-3.7-15.1-3.6-7.3-9.5-13.3-16.9-16.9h0c-5.6-2.7-11.9-4-18.6-3.5-10.6.8-20,6.2-26.2,14.2h0c-2.1,2.8-3.9,5.9-5.2,9.2v.2c-1.2,3.2-2,6.6-2.2,10.2-1.4,20.5,14,37.6,33.8,39h4c19.2-.7,34.5-16.3,35-35.5v-.9c0-.3,0-.6,0-.9ZM46.7,73c0,1.5-.3,2.9-.9,4.2-1,2.3-2.9,4.1-5.1,5.1-1.3.6-2.7.9-4.2.9h0c-1.5,0-2.9-.3-4.2-.9-2.3-1-4.1-2.8-5.1-5.1-.6-1.3-.9-2.7-.9-4.2h0c0-1.6.3-3,.9-4.2,1-2.3,2.9-4.1,5.1-5.1,1.3-.6,2.7-.9,4.2-.9h0c1.5,0,2.9.3,4.2.9,1.2.5,2.3,1.3,3.2,2.3.8.8,1.4,1.8,1.9,2.8.6,1.3.9,2.7.9,4.2h0Z"/>
        <path class="st1" d="M211.5,73.1h0c-.1-5.5-1.4-10.5-3.7-15.1-3.6-7.3-9.5-13.3-16.9-16.9h0c-5.6-2.7-11.9-4-18.6-3.5-10.6.8-20,6.2-26.2,14.2h0c-2.1,2.8-3.9,5.9-5.2,9.2v.2c-1.2,3.2-2,6.6-2.2,10.2-1.4,20.5,14,37.6,33.8,39h18.1c-1.5,7.9-4.9,13.7-9.7,16.8-5,3.2-11.7,3.5-19.3,1-3.7-1.2-7.3-.4-10.1,2.1-2.8,2.5-4,6.4-3.2,9.9.8,3.4,3.4,6,7.2,7.1,5.1,1.6,10.1,2.4,14.9,2.4,8,0,15.4-2.2,21.7-6.4,10.2-6.8,16.9-18.5,18.8-32.9.2-7.1.4-14.3.6-21.4h0v-15.9h0ZM175,84.2h0c-1.5,0-2.9-.3-4.2-.9-2.3-1-4.1-2.8-5.1-5.1-.6-1.3-.9-2.7-.9-4.2h0c0-1.6.3-3,.9-4.2,1-2.3,2.9-4.1,5.1-5.1,1.3-.6,2.7-.9,4.2-.9h0c1.5,0,2.9.3,4.2.9,1.2.5,2.3,1.3,3.2,2.3.8.8,1.4,1.8,1.9,2.8.6,1.3.9,2.7.9,4.2h0c0,1.5-.3,3-.9,4.2-1,2.3-2.9,4.1-5.1,5.1-1.3.6-2.7.9-4.2.9h0Z"/>
        <path class="st1" d="M515.6,93.2h0c-4.9,4.8-12.3-3.9-15.3-7.3s-11.8-10.3-8.4-15.5,12.7-.3,16.3,3.1c3.5,3.4,12.4,14.9,7.5,19.7h0Z"/>
        <path class="st1" d="M459,106.1h0c-6.8,1.3-8.2-10.1-8.8-14.5-.6-4.5-4.3-15,1.4-17.5,5.7-2.5,10.9,6.7,12,11.5s2.3,19.3-4.5,20.6h-.1Z"/>
      </g>
      <g>
        <path class="st1" d="M474.6,41.6c-.9-.8-1.9-1.7-2.8-2.4-1.7,3.2-3.3,6.4-4.8,9.5.2.2.4.3.6.5,2.5,2.3,4.3,4.8,5.7,7.2,1.3-.5,2.6-.9,3.9-1.3,1.8-.5,4-.7,6.4-.7s.3,0,.4,0c-2.3-4.8-5.5-9.2-9.4-12.7h0Z"/>
        <path class="st1" d="M440.2,40.8c-11.2-.8-21.2-6.3-31.2-11.1-6.6-3.1-19.6-8.9-24.7-.3-.9,1.5-.8,3.4-.4,5.1,3.8,16.5,26.1,19.7,39.9,17.3,3.6-.6,7-1.8,10.4-3,1.8-.7,4.7-1.2,6.7-2.3.7-1.9,1.5-3.8,2.4-5.7-1,0-2,0-3.1,0h0Z"/>
        <path class="st1" d="M431.3,31.5c4,3,8.5,5.1,12.6,8,1.3-2.9,2.7-5.9,4.2-8.8-1.1-11.5-6.4-21-16.9-27.3-4.6-2.8-13.2-6.4-15.6.9-1.6,4.9,2.1,11.7,4.6,15.6,2.9,4.5,6.9,8.3,11.1,11.6h0Z"/>
        <path class="st1" d="M481.2,13.6c3.4-5.1,1.6-8.3-2.2-10.6-1.5-.9-2.9-1.5-4.2-1.5-2,0-4,1.3-6.2,4.4-9.2,13.1-20,32.6-24.9,47.5-.3,1-.7,1.9-1,2.8,5,.8,9.6,2.5,13.7,5,.3-.8.6-1.6.9-2.4,1.5-4,3.4-8.5,5.5-13.1,1.5-3.1,3-6.2,4.7-9.3,4.4-8.2,9.3-16.3,13.7-22.8Z"/>
      </g>
    </g>
    <g>
      <path class="st0" d="M175,46.3h0c2.2,0,4,1.8,4,4h0c0,2.2-1.8,4-4,4h0c-2.2,0-4-1.8-4-4h0c0-2.2,1.8-4,4-4Z"/>
      <path class="st0" d="M167.1,54.2h0c2.2,0,4,1.8,4,4h0c0,2.2-1.8,4-4,4h0c-2.2,0-4-1.8-4-4h0c0-2.2,1.8-4,4-4Z"/>
      <path class="st0" d="M175,54.2h0c2.2,0,4,1.8,4,4h0c0,2.2-1.8,4-4,4h0c-2.2,0-4-1.8-4-4h0c0-2.2,1.8-4,4-4Z"/>
      <path class="st0" d="M182.9,54.2h0c2.2,0,4,1.8,4,4h0c0,2.2-1.8,4-4,4h0c-2.2,0-4-1.8-4-4h0c0-2.2,1.8-4,4-4Z"/>
      <path class="st0" d="M190.8,62.1h0c2.2,0,4,1.8,4,4h0c0,2.2-1.8,4-4,4h0c-2.2,0-4-1.8-4-4h0c0-2.2,1.8-4,4-4Z"/>
      <path class="st0" d="M159.2,62.1h0c2.2,0,4,1.8,4,4h0c0,2.2-1.8,4-4,4h0c-2.2,0-4-1.8-4-4h0c0-2.2,1.8-4,4-4Z"/>
      <path class="st0" d="M151.3,70h0c2.2,0,4,1.8,4,4h0c0,2.2-1.8,4-4,4h0c-2.2,0-4-1.8-4-4h0c0-2.2,1.8-4,4-4Z"/>
      <path class="st0" d="M159.2,70h0c2.2,0,4,1.8,4,4h0c0,2.2-1.8,4-4,4h0c-2.2,0-4-1.8-4-4h0c0-2.2,1.8-4,4-4Z"/>
      <path class="st0" d="M190.8,70h0c2.2,0,4,1.8,4,4h0c0,2.2-1.8,4-4,4h0c-2.2,0-4-1.8-4-4h0c0-2.2,1.8-4,4-4Z"/>
      <path class="st0" d="M198.7,70h0c2.2,0,4,1.8,4,4h0c0,2.2-1.8,4-4,4h0c-2.2,0-4-1.8-4-4h0c0-2.2,1.8-4,4-4Z"/>
      <path class="st0" d="M190.8,77.9h0c2.2,0,4,1.8,4,4h0c0,2.2-1.8,4-4,4h0c-2.2,0-4-1.8-4-4h0c0-2.2,1.8-4,4-4Z"/>
      <path class="st0" d="M159.2,77.9h0c2.2,0,4,1.8,4,4h0c0,2.2-1.8,4-4,4h0c-2.2,0-4-1.8-4-4h0c0-2.2,1.8-4,4-4Z"/>
      <path class="st0" d="M167.1,85.8h0c2.2,0,4,1.8,4,4h0c0,2.2-1.8,4-4,4h0c-2.2,0-4-1.8-4-4h0c0-2.2,1.8-4,4-4Z"/>
      <path class="st0" d="M175,85.8h0c2.2,0,4,1.8,4,4h0c0,2.2-1.8,4-4,4h0c-2.2,0-4-1.8-4-4h0c0-2.2,1.8-4,4-4Z"/>
      <path class="st0" d="M182.9,85.8h0c2.2,0,4,1.8,4,4h0c0,2.2-1.8,4-4,4h0c-2.2,0-4-1.8-4-4h0c0-2.2,1.8-4,4-4Z"/>
      <path class="st0" d="M175,93.7h0c2.2,0,4,1.8,4,4h0c0,2.2-1.8,4-4,4h0c-2.2,0-4-1.8-4-4h0c0-2.2,1.8-4,4-4Z"/>
    </g>
  </g>
  <g>
    <path class="st0" d="M36.5,45.3h0c2.2,0,4,1.8,4,4h0c0,2.2-1.8,4-4,4h0c-2.2,0-4-1.8-4-4h0c0-2.2,1.8-4,4-4Z"/>
    <path class="st0" d="M28.6,53.2h0c2.2,0,4,1.8,4,4h0c0,2.2-1.8,4-4,4h0c-2.2,0-4-1.8-4-4h0c0-2.2,1.8-4,4-4Z"/>
    <path class="st0" d="M36.5,53.2h0c2.2,0,4,1.8,4,4h0c0,2.2-1.8,4-4,4h0c-2.2,0-4-1.8-4-4h0c0-2.2,1.8-4,4-4Z"/>
    <path class="st0" d="M44.4,53.2h0c2.2,0,4,1.8,4,4h0c0,2.2-1.8,4-4,4h0c-2.2,0-4-1.8-4-4h0c0-2.2,1.8-4,4-4Z"/>
    <path class="st0" d="M52.3,61.1h0c2.2,0,4,1.8,4,4h0c0,2.2-1.8,4-4,4h0c-2.2,0-4-1.8-4-4h0c0-2.2,1.8-4,4-4Z"/>
    <path class="st0" d="M20.6,61.1h0c2.2,0,4,1.8,4,4h0c0,2.2-1.8,4-4,4h0c-2.2,0-4-1.8-4-4h0c0-2.2,1.8-4,4-4Z"/>
    <path class="st0" d="M12.7,69h0c2.2,0,4,1.8,4,4h0c0,2.2-1.8,4-4,4h0c-2.2,0-4-1.8-4-4h0c0-2.2,1.8-4,4-4Z"/>
    <path class="st0" d="M20.6,69h0c2.2,0,4,1.8,4,4h0c0,2.2-1.8,4-4,4h0c-2.2,0-4-1.8-4-4h0c0-2.2,1.8-4,4-4Z"/>
    <path class="st0" d="M52.3,69h0c2.2,0,4,1.8,4,4h0c0,2.2-1.8,4-4,4h0c-2.2,0-4-1.8-4-4h0c0-2.2,1.8-4,4-4Z"/>
    <path class="st0" d="M60.2,69h0c2.2,0,4,1.8,4,4h0c0,2.2-1.8,4-4,4h0c-2.2,0-4-1.8-4-4h0c0-2.2,1.8-4,4-4Z"/>
    <path class="st0" d="M52.3,76.9h0c2.2,0,4,1.8,4,4h0c0,2.2-1.8,4-4,4h0c-2.2,0-4-1.8-4-4h0c0-2.2,1.8-4,4-4Z"/>
    <path class="st0" d="M20.6,76.9h0c2.2,0,4,1.8,4,4h0c0,2.2-1.8,4-4,4h0c-2.2,0-4-1.8-4-4h0c0-2.2,1.8-4,4-4Z"/>
    <path class="st0" d="M28.6,84.8h0c2.2,0,4,1.8,4,4h0c0,2.2-1.8,4-4,4h0c-2.2,0-4-1.8-4-4h0c0-2.2,1.8-4,4-4Z"/>
    <path class="st0" d="M36.5,84.8h0c2.2,0,4,1.8,4,4h0c0,2.2-1.8,4-4,4h0c-2.2,0-4-1.8-4-4h0c0-2.2,1.8-4,4-4Z"/>
    <path class="st0" d="M44.4,84.8h0c2.2,0,4,1.8,4,4h0c0,2.2-1.8,4-4,4h0c-2.2,0-4-1.8-4-4h0c0-2.2,1.8-4,4-4Z"/>
    <path class="st0" d="M36.5,92.7h0c2.2,0,4,1.8,4,4h0c0,2.2-1.8,4-4,4h0c-2.2,0-4-1.8-4-4h0c0-2.2,1.8-4,4-4Z"/>
  </g>
</svg>