<?xml version="1.0" encoding="UTF-8"?>
<svg id="Layer_1" data-name="Layer 1" xmlns="http://www.w3.org/2000/svg" viewBox="0 0 528.76 149.64">
  <defs>
    <style>
      .cls-1 {
        fill: #e55451;
      }

      .cls-2 {
        fill: #fff;
      }

      .cls-3 {
        fill: #211c17;
      }

      .cls-4 {
        fill: #29cea2;
      }
    </style>
  </defs>
  <g>
    <g>
      <g>
        <path class="cls-3" d="M22.17,23.06c5.72,0,10.62-4.53,11.34-10.18.72,5.65,5.62,10.18,11.34,10.18,6.09,0,11.44-5.43,11.44-11.62S50.94,0,44.84,0C39.12,0,34.23,4.47,33.5,10.03,32.78,4.47,27.89,0,22.17,0,15.96,0,10.73,5.24,10.73,11.44s5.24,11.62,11.44,11.62Z"/>
        <path class="cls-3" d="M120.08,34.42c-4.98,0-10.02,3.49-10.02,10.16v27.1c0,10.47-8.21,18.68-18.68,18.68-6.19,0-11.59-2.87-14.97-7.37-1.73,6.94-5.16,13.2-9.82,18.34,5.84,4.91,13.15,8.13,21.14,8.89v.18h7.3v-.18c19.6-1.87,35.07-18.55,35.07-38.54v-27.1c0-6.67-5.04-10.16-10.02-10.16Z"/>
        <path class="cls-3" d="M119.9.18c-6.2,0-11.44,5.24-11.44,11.44s5.24,11.62,11.44,11.62,11.44-5.32,11.44-11.62S126.11.18,119.9.18Z"/>
        <path class="cls-3" d="M230.72,23.06c6.09,0,11.44-5.43,11.44-11.62S236.82,0,230.72,0c-5.72,0-10.62,4.46-11.34,10.03C218.66,4.47,213.77,0,208.04,0c-6.2,0-11.44,5.24-11.44,11.44s5.24,11.62,11.44,11.62c5.72,0,10.62-4.53,11.34-10.18.72,5.65,5.62,10.18,11.34,10.18Z"/>
        <path class="cls-3" d="M298.14,121c-5.72,0-10.62,4.47-11.34,10.03-.72-5.56-5.61-10.03-11.34-10.03-6.2,0-11.44,5.24-11.44,11.44s5.24,11.62,11.44,11.62c5.72,0,10.62-4.53,11.34-10.19.72,5.65,5.61,10.19,11.34,10.19,6.09,0,11.44-5.43,11.44-11.62s-5.35-11.44-11.44-11.44Z"/>
        <path class="cls-3" d="M260.54,72.03h.01c-.01-.12-.01-.24-.01-.36v-27.11c0-6.66-5.05-10.15-10.03-10.15s-10.02,3.49-10.02,10.15v27.11c0,10.31-8.36,18.68-18.67,18.68h-4.94v20.04h8.58v-.18c9.67-.91,18.68-5.38,25.1-12.43l.02.02c3.16-3.29,5.63-7.09,7.34-11.31,1.85-4.54,2.76-9.54,2.62-14.46Z"/>
        <path class="cls-3" d="M308.09,34.41c-4.98,0-10.03,3.49-10.03,10.15v27.11c0,10.47-8.2,18.68-18.67,18.68-6.23,0-11.67-2.86-15.08-7.34-.46,1.83-1.04,3.63-1.75,5.37-1.95,4.78-4.75,9.1-8.33,12.83,6.12,5.06,13.65,8.24,21.51,8.99v.19h7.3v-.18c19.6-1.87,35.07-18.54,35.07-38.54v-27.11c0-6.66-5.04-10.15-10.02-10.15Z"/>
        <path class="cls-3" d="M354.58.18c-6.2,0-11.44,5.24-11.44,11.44s5.24,11.62,11.44,11.62,11.44-5.32,11.44-11.62S360.78.18,354.58.18Z"/>
        <path class="cls-3" d="M355.11,34.42c-4.98,0-10.02,3.49-10.02,10.16v66.61c0,11.93-4.61,17.41-15.37,18.33-6.64.51-9.83,6.03-9.45,10.96.35,4.64,3.84,9.1,9.86,9.1.31,0,.62-.01.94-.04,21.01-1.53,34.07-16.23,34.07-38.36V44.57c0-6.67-5.04-10.16-10.02-10.16Z"/>
        <path class="cls-3" d="M72.93,72.95c0-.29,0-.59-.01-.88v-.09c-.14-5.36-1.44-10.44-3.66-14.98-3.57-7.34-9.54-13.31-16.89-16.87-.01,0-.01-.01-.02-.01-5.56-2.69-11.9-4.02-18.59-3.54-10.61.76-20.01,6.16-26.18,14.16h-.01c-2.14,2.79-3.89,5.87-5.16,9.19-.02.06-.05.13-.07.19-1.23,3.21-1.99,6.64-2.25,10.2-1.43,20.45,14.03,37.63,33.83,38.99.04,0,.08.01.12.01.42.04.84.06,1.26.07h2.11c.16,0,.31,0,.47-.01,19.17-.73,34.55-16.26,35.04-35.49.01-.31.01-.63.01-.94ZM46.74,72.96c0,1.5-.33,2.93-.91,4.22-1.03,2.28-2.87,4.1-5.14,5.12-1.28.58-2.7.9-4.19.9h-.06c-1.5,0-2.92-.32-4.2-.9-2.27-1.02-4.1-2.85-5.13-5.13-.58-1.28-.91-2.71-.91-4.21v-.07c.01-1.49.33-2.9.91-4.17,1.02-2.27,2.86-4.11,5.13-5.13,1.28-.58,2.7-.9,4.2-.9h.06c1.49,0,2.91.32,4.19.9,1.23.55,2.33,1.34,3.25,2.31.78.82,1.42,1.77,1.89,2.81.58,1.29.91,2.71.91,4.22v.03Z"/>
        <path class="cls-3" d="M211.46,72.98c-.14-5.36-1.44-10.44-3.66-14.98-3.57-7.34-9.54-13.31-16.89-16.87-.01,0-.01-.01-.02-.01-5.56-2.69-11.9-4.02-18.59-3.54-10.61.76-20.01,6.16-26.18,14.16h-.08c-2.15,2.78-3.9,5.87-5.17,9.19,0,.06.01.12.01.19-1.23,3.21-1.99,6.64-2.25,10.2-1.43,20.45,14.03,37.63,33.83,38.99.04,0,.08.01.12.01.42.04.84.06,1.26.07h16.71c-1.54,7.94-4.87,13.72-9.74,16.82-4.98,3.18-11.66,3.53-19.33,1.03-3.66-1.21-7.35-.44-10.1,2.08-2.77,2.54-4.02,6.43-3.2,9.9.79,3.4,3.42,5.97,7.16,7.06,5.06,1.58,10.06,2.36,14.87,2.36,7.97,0,15.41-2.15,21.74-6.37,10.25-6.84,16.86-18.45,18.83-32.88.21-7.13.42-14.26.64-21.39h.05v-15.05c0-.29,0-.59-.01-.88v-.09ZM170.78,64.59c1.28-.58,2.7-.9,4.2-.9h.06c1.49,0,2.91.32,4.19.9,1.23.55,2.33,1.34,3.25,2.31.78.82,1.42,1.77,1.89,2.81.58,1.29.91,2.71.91,4.22v.03c0,1.5-.33,2.93-.91,4.22-1.03,2.28-2.87,4.1-5.14,5.12-1.28.58-2.7.9-4.19.9h-.06c-1.5,0-2.92-.32-4.2-.9-2.27-1.02-4.1-2.85-5.13-5.13-.58-1.28-.91-2.71-.91-4.21v-.07c.01-1.49.33-2.9.91-4.17,1.02-2.27,2.86-4.11,5.13-5.13Z"/>
        <path class="cls-3" d="M506.26,66.1c-6.27-4.01-13.99-6.17-20.21-6.64-.87-.07-1.7-.1-2.5-.1-1.95,0-3.67.19-5.06.57-1.03.28-2.03.6-2.99.96-3.88,1.45-7.24,3.57-10.11,6.17,3.99,4.67,6.95,10.51,8.55,17.08,1.23,4.72,1.65,9.6,1.36,14.47-.2,11.99-4.43,23.85-12.3,33.87-.48.61-.97,1.22-1.48,1.81,3.63,4.48,8.33,6.78,13.66,9.9,2.71,1.58,9.63,4.75,18.38,4.75,2.8,0,5.79-.32,8.88-1.13,1.35-.35,12.13-3.29,19.16-12.54,14.66-19.27,5.44-55.85-15.34-69.17Z"/>
        <path class="cls-3" d="M470.32,97.88c.02-3.86-.43-7.78-1.4-11.73l-.06-.19c-1.99-7.27-5.66-13-10.42-17.16-.64-.57-1.31-1.1-1.99-1.61-.67-.5-1.35-.97-2.06-1.4-4.22-2.65-9.03-4.29-14.13-4.9-1.05-.14-2.12-.22-3.19-.26-.5-.02-1-.03-1.51-.03-5.11,0-10.41.97-15.63,2.93-.41.14-.81.29-1.21.45-19.46,7.24-35.63,23.94-37.51,44.91-1.6,13.28,3.43,27.48,15.27,34.47,7.53,4.34,15.34,6.28,22.93,6.28,13.47,0,26.27-6.1,35.66-15.7,9.24-9.43,15.18-22.24,15.25-35.99v-.07Z"/>
      </g>
      <g>
        <g>
          <path class="cls-4" d="M474.57,41.64c-.91-.84-1.85-1.65-2.84-2.41-1.68,3.16-3.3,6.37-4.78,9.52.2.16.38.33.57.5,2.46,2.28,4.32,4.76,5.73,7.15,1.27-.51,2.58-.94,3.93-1.3,1.82-.49,3.96-.74,6.37-.74.13,0,.26,0,.4.01-2.34-4.83-5.52-9.16-9.38-12.73Z"/>
          <path class="cls-4" d="M440.2,40.83c-11.2-.82-21.25-6.35-31.18-11.11-6.56-3.15-19.6-8.93-24.68-.27-.89,1.52-.84,3.42-.44,5.14,3.79,16.5,26.1,19.67,39.85,17.28,3.61-.63,6.98-1.77,10.42-3,1.81-.65,4.67-1.25,6.72-2.31.72-1.88,1.52-3.8,2.37-5.73-1.01.11-2.04.07-3.06,0Z"/>
          <path class="cls-4" d="M431.28,31.5c3.95,3.02,8.53,5.06,12.56,8.02,1.31-2.93,2.73-5.89,4.22-8.82-1.13-11.45-6.37-21.02-16.93-27.32-4.61-2.75-13.18-6.41-15.57.93-1.57,4.86,2.06,11.67,4.63,15.62,2.92,4.5,6.85,8.33,11.09,11.57Z"/>
          <path class="cls-4" d="M481.24,13.59c3.44-5.06,1.56-8.32-2.18-10.61-1.49-.91-2.87-1.46-4.22-1.46-2.04,0-4.03,1.26-6.24,4.4-9.17,13.05-19.95,32.64-24.88,47.48-.34,1.02-.67,1.94-1,2.78,5,.82,9.61,2.5,13.69,4.97.3-.77.6-1.56.9-2.39,1.46-4.05,3.37-8.5,5.55-13.07,1.46-3.07,3.04-6.2,4.69-9.31,4.39-8.22,9.27-16.3,13.69-22.79Z"/>
        </g>
        <path class="cls-2" d="M515.62,93.23c4.94-4.8-3.95-16.3-7.49-19.71-3.54-3.41-12.89-8.27-16.28-3.08-3.39,5.19,5.44,12.04,8.43,15.45,2.99,3.41,10.4,12.14,15.34,7.35Z"/>
      </g>
      <path class="cls-2" d="M515.62,93.23c4.94-4.8-3.95-16.3-7.49-19.71-3.54-3.41-12.89-8.27-16.28-3.08-3.39,5.19,5.44,12.04,8.43,15.45,2.99,3.41,10.4,12.14,15.34,7.35Z"/>
      <path class="cls-2" d="M459,106.07c6.76-1.32,5.6-15.81,4.5-20.6-1.1-4.79-6.28-13.97-11.95-11.48-5.67,2.49-2.02,13.06-1.38,17.54s2.08,15.86,8.84,14.53Z"/>
    </g>
    <g>
      <rect class="cls-1" x="171.05" y="46.26" width="7.91" height="7.91" rx="3.96" ry="3.96"/>
      <rect class="cls-1" x="163.14" y="54.17" width="7.91" height="7.91" rx="3.96" ry="3.96"/>
      <rect class="cls-1" x="171.05" y="54.17" width="7.91" height="7.91" rx="3.96" ry="3.96"/>
      <rect class="cls-1" x="178.97" y="54.17" width="7.91" height="7.91" rx="3.96" ry="3.96"/>
      <rect class="cls-1" x="186.88" y="62.08" width="7.91" height="7.91" rx="3.96" ry="3.96"/>
      <rect class="cls-1" x="155.23" y="62.08" width="7.91" height="7.91" rx="3.96" ry="3.96"/>
      <rect class="cls-1" x="147.31" y="70" width="7.91" height="7.91" rx="3.96" ry="3.96"/>
      <rect class="cls-1" x="155.23" y="70" width="7.91" height="7.91" rx="3.96" ry="3.96"/>
      <rect class="cls-1" x="186.88" y="70" width="7.91" height="7.91" rx="3.96" ry="3.96"/>
      <rect class="cls-1" x="194.79" y="70" width="7.91" height="7.91" rx="3.96" ry="3.96"/>
      <rect class="cls-1" x="186.88" y="77.91" width="7.91" height="7.91" rx="3.96" ry="3.96"/>
      <rect class="cls-1" x="155.23" y="77.91" width="7.91" height="7.91" rx="3.96" ry="3.96"/>
      <rect class="cls-1" x="163.14" y="85.82" width="7.91" height="7.91" rx="3.96" ry="3.96"/>
      <rect class="cls-1" x="171.05" y="85.82" width="7.91" height="7.91" rx="3.96" ry="3.96"/>
      <rect class="cls-1" x="178.97" y="85.82" width="7.91" height="7.91" rx="3.96" ry="3.96"/>
      <rect class="cls-1" x="171.05" y="93.74" width="7.91" height="7.91" rx="3.96" ry="3.96"/>
    </g>
  </g>
  <g>
    <rect class="cls-1" x="32.51" y="45.26" width="7.91" height="7.91" rx="3.96" ry="3.96"/>
    <rect class="cls-1" x="24.6" y="53.17" width="7.91" height="7.91" rx="3.96" ry="3.96"/>
    <rect class="cls-1" x="32.51" y="53.17" width="7.91" height="7.91" rx="3.96" ry="3.96"/>
    <rect class="cls-1" x="40.43" y="53.17" width="7.91" height="7.91" rx="3.96" ry="3.96"/>
    <rect class="cls-1" x="48.34" y="61.08" width="7.91" height="7.91" rx="3.96" ry="3.96"/>
    <rect class="cls-1" x="16.69" y="61.08" width="7.91" height="7.91" rx="3.96" ry="3.96"/>
    <rect class="cls-1" x="8.77" y="69" width="7.91" height="7.91" rx="3.96" ry="3.96"/>
    <rect class="cls-1" x="16.69" y="69" width="7.91" height="7.91" rx="3.96" ry="3.96"/>
    <rect class="cls-1" x="48.34" y="69" width="7.91" height="7.91" rx="3.96" ry="3.96"/>
    <rect class="cls-1" x="56.25" y="69" width="7.91" height="7.91" rx="3.96" ry="3.96"/>
    <rect class="cls-1" x="48.34" y="76.91" width="7.91" height="7.91" rx="3.96" ry="3.96"/>
    <rect class="cls-1" x="16.69" y="76.91" width="7.91" height="7.91" rx="3.96" ry="3.96"/>
    <rect class="cls-1" x="24.6" y="84.82" width="7.91" height="7.91" rx="3.96" ry="3.96"/>
    <rect class="cls-1" x="32.51" y="84.82" width="7.91" height="7.91" rx="3.96" ry="3.96"/>
    <rect class="cls-1" x="40.43" y="84.82" width="7.91" height="7.91" rx="3.96" ry="3.96"/>
    <rect class="cls-1" x="32.51" y="92.74" width="7.91" height="7.91" rx="3.96" ry="3.96"/>
  </g>
</svg>